<svg width="119" height="48" viewBox="0 0 119 48" fill="none" xmlns="http://www.w3.org/2000/svg">
<path opacity="0.32" d="M15.0414 34.2101C15.1596 35.3549 15.9102 36.2611 17.0359 36.5007C18.8127 36.879 22.1622 37.3334 28.0001 37.3334C33.8379 37.3334 37.1874 36.879 38.9643 36.5007C40.0899 36.2611 40.8405 35.3549 40.9587 34.2101C41.1341 32.5126 41.3334 29.396 41.3334 24.0001C41.3334 18.6041 41.1341 15.4875 40.9587 13.7901C40.8405 12.6453 40.09 11.7391 38.9642 11.4994C37.1874 11.1212 33.8379 10.6667 28.0001 10.6667C22.1622 10.6667 18.8127 11.1212 17.0359 11.4994C15.9102 11.7391 15.1596 12.6453 15.0414 13.7901C14.8661 15.4875 14.6667 18.6041 14.6667 24.0001C14.6667 29.396 14.8661 32.5126 15.0414 34.2101Z" fill="#277351"/>
<path d="M30.5843 26.4745C32.3507 25.5443 33.5551 23.6906 33.5551 21.5555C33.5551 18.4873 31.0678 16 27.9995 16C24.9313 16 22.444 18.4873 22.444 21.5555C22.444 23.6907 23.6484 25.5445 25.415 26.4746C23.0493 27.3759 21.243 29.4789 20.6834 32.0705C20.606 32.4292 20.8034 32.7974 21.1646 32.8628C22.4612 33.0974 24.6083 33.3333 28.0009 33.3333C31.3934 33.3333 33.5406 33.0974 34.8371 32.8628C35.197 32.7977 35.3939 32.4309 35.3168 32.0735C34.758 29.4804 32.9511 27.3761 30.5843 26.4745Z" fill="#277351"/>
<path d="M52.525 29L56.179 18.878H57.831L61.478 29H59.966L59.014 26.347H55.017L54.044 29H52.525ZM55.374 24.989H58.629L57.012 20.348L55.374 24.989ZM65.7784 21.622C66.3197 21.622 66.8004 21.7293 67.2204 21.944C67.6451 22.154 67.9881 22.448 68.2494 22.826C68.5107 23.204 68.6694 23.645 68.7254 24.149H67.4304C67.3884 23.911 67.2974 23.6893 67.1574 23.484C67.0221 23.2787 66.8377 23.1153 66.6044 22.994C66.3757 22.868 66.1027 22.805 65.7854 22.805C65.2067 22.805 64.7354 23.0173 64.3714 23.442C64.0074 23.8667 63.8254 24.5177 63.8254 25.395C63.8254 26.1977 63.9934 26.837 64.3294 27.313C64.6701 27.789 65.1647 28.027 65.8134 28.027C66.1261 28.027 66.3967 27.9617 66.6254 27.831C66.8587 27.7003 67.0431 27.5323 67.1784 27.327C67.3137 27.1217 67.4001 26.9093 67.4374 26.69H68.7114C68.6601 27.1753 68.5014 27.6023 68.2354 27.971C67.9741 28.3397 67.6311 28.6267 67.2064 28.832C66.7864 29.0373 66.3104 29.14 65.7784 29.14C65.1204 29.14 64.5371 28.9977 64.0284 28.713C63.5197 28.4237 63.1207 28.0013 62.8314 27.446C62.5467 26.886 62.4044 26.207 62.4044 25.409C62.4044 24.6577 62.5374 23.9973 62.8034 23.428C63.0694 22.8587 63.4544 22.4153 63.9584 22.098C64.4671 21.7807 65.0737 21.622 65.7784 21.622ZM73.3253 21.622C73.8666 21.622 74.3473 21.7293 74.7673 21.944C75.1919 22.154 75.5349 22.448 75.7963 22.826C76.0576 23.204 76.2163 23.645 76.2723 24.149H74.9773C74.9353 23.911 74.8443 23.6893 74.7043 23.484C74.5689 23.2787 74.3846 23.1153 74.1513 22.994C73.9226 22.868 73.6496 22.805 73.3323 22.805C72.7536 22.805 72.2823 23.0173 71.9183 23.442C71.5543 23.8667 71.3723 24.5177 71.3723 25.395C71.3723 26.1977 71.5403 26.837 71.8763 27.313C72.2169 27.789 72.7116 28.027 73.3603 28.027C73.6729 28.027 73.9436 27.9617 74.1723 27.831C74.4056 27.7003 74.5899 27.5323 74.7253 27.327C74.8606 27.1217 74.9469 26.9093 74.9843 26.69H76.2583C76.2069 27.1753 76.0483 27.6023 75.7823 27.971C75.5209 28.3397 75.1779 28.6267 74.7533 28.832C74.3333 29.0373 73.8573 29.14 73.3253 29.14C72.6673 29.14 72.0839 28.9977 71.5753 28.713C71.0666 28.4237 70.6676 28.0013 70.3783 27.446C70.0936 26.886 69.9513 26.207 69.9513 25.409C69.9513 24.6577 70.0843 23.9973 70.3503 23.428C70.6163 22.8587 71.0013 22.4153 71.5053 22.098C72.0139 21.7807 72.6206 21.622 73.3253 21.622ZM80.8652 29.14C80.1885 29.14 79.5958 28.9953 79.0872 28.706C78.5832 28.412 78.1912 27.9873 77.9112 27.432C77.6358 26.8767 77.4982 26.2047 77.4982 25.416C77.4982 24.6553 77.6288 23.9903 77.8902 23.421C78.1562 22.8517 78.5412 22.4107 79.0452 22.098C79.5492 21.7807 80.1582 21.622 80.8722 21.622C81.5535 21.622 82.1438 21.7713 82.6432 22.07C83.1425 22.364 83.5298 22.7957 83.8052 23.365C84.0805 23.9297 84.2182 24.6133 84.2182 25.416C84.2182 26.1487 84.0875 26.795 83.8262 27.355C83.5695 27.915 83.1915 28.3537 82.6922 28.671C82.1975 28.9837 81.5885 29.14 80.8652 29.14ZM80.8722 27.985C81.2828 27.985 81.6258 27.8777 81.9012 27.663C82.1812 27.4437 82.3912 27.138 82.5312 26.746C82.6712 26.3493 82.7412 25.892 82.7412 25.374C82.7412 24.8933 82.6782 24.457 82.5522 24.065C82.4308 23.6683 82.2325 23.3533 81.9572 23.12C81.6818 22.8867 81.3202 22.77 80.8722 22.77C80.4522 22.77 80.1022 22.8773 79.8222 23.092C79.5422 23.302 79.3298 23.603 79.1852 23.995C79.0452 24.3823 78.9752 24.842 78.9752 25.374C78.9752 25.8453 79.0382 26.2793 79.1642 26.676C79.2902 27.0727 79.4932 27.39 79.7732 27.628C80.0532 27.866 80.4195 27.985 80.8722 27.985ZM88.3781 29.14C88.0141 29.1353 87.6665 29.0817 87.3351 28.979C87.0038 28.8763 86.7075 28.7223 86.4461 28.517C86.1895 28.3117 85.9841 28.0573 85.8301 27.754C85.6808 27.4507 85.6061 27.0983 85.6061 26.697V21.762H87.1111V26.536C87.1111 26.97 87.2465 27.3223 87.5171 27.593C87.7878 27.8637 88.1961 27.999 88.7421 27.999C89.2368 27.999 89.6335 27.8707 89.9321 27.614C90.2308 27.3527 90.3801 26.9723 90.3801 26.473V21.762H91.8711V29H90.7091L90.5411 27.6C90.4571 27.978 90.3055 28.2813 90.0861 28.51C89.8715 28.734 89.6148 28.8973 89.3161 29C89.0221 29.098 88.7095 29.1447 88.3781 29.14ZM93.8802 29V21.762H95.3432V22.805C95.4599 22.609 95.6162 22.4247 95.8122 22.252C96.0129 22.0793 96.2579 21.9393 96.5472 21.832C96.8412 21.7247 97.1796 21.671 97.5622 21.671C98.0149 21.671 98.4326 21.762 98.8152 21.944C99.2026 22.1213 99.5129 22.4013 99.7462 22.784C99.9796 23.162 100.096 23.652 100.096 24.254V29H98.5982V24.415C98.5982 23.897 98.4582 23.512 98.1782 23.26C97.9029 23.008 97.5459 22.882 97.1072 22.882C96.8132 22.882 96.5332 22.931 96.2672 23.029C96.0012 23.127 95.7866 23.2763 95.6232 23.477C95.4599 23.673 95.3782 23.9203 95.3782 24.219V29H93.8802ZM105.553 22.84H103.929L103.936 27.159C103.936 27.397 103.959 27.572 104.006 27.684C104.057 27.7913 104.141 27.8613 104.258 27.894C104.379 27.922 104.543 27.936 104.748 27.936H105.595V28.909C105.502 28.9463 105.362 28.979 105.175 29.007C104.993 29.035 104.757 29.049 104.468 29.049C103.931 29.049 103.514 28.9767 103.215 28.832C102.921 28.6873 102.716 28.4797 102.599 28.209C102.487 27.9337 102.431 27.6023 102.431 27.215V22.84H101.255V21.762H102.473L102.844 19.634H103.929V21.755H105.553V22.84Z" fill="#1D563D"/>
</svg>
