<svg width="68" height="124" viewBox="0 0 68 124" fill="none" xmlns="http://www.w3.org/2000/svg">
<g opacity="0.9">
<path d="M26.7908 18.7961C25.015 18.7968 23.3091 19.5045 22.0342 20.7694C20.7593 22.0342 20.0155 23.757 19.9602 25.5731C19.9582 25.644 19.9572 25.7159 19.9572 25.7878C19.9572 27.1707 20.358 28.5224 21.1089 29.6722C21.8598 30.822 22.927 31.7181 24.1757 32.2473C25.4244 32.7765 26.7984 32.915 28.124 32.6452C29.4496 32.3754 30.6672 31.7095 31.6229 30.7317C32.5786 29.7539 33.2294 28.5081 33.4931 27.1519C33.7568 25.7956 33.6214 24.3898 33.1042 23.1122C32.587 21.8347 31.7111 20.7427 30.5873 19.9745C29.4636 19.2062 28.1424 18.7961 26.7908 18.7961ZM26.7908 32.5798C25.0308 32.5779 23.3434 31.8617 22.0988 30.5884C20.8543 29.3151 20.1543 27.5886 20.1525 25.7878C20.1525 25.695 20.1544 25.6031 20.1583 25.5122C20.2112 24.1817 20.6451 22.8965 21.4062 21.8164C22.1672 20.7363 23.2218 19.9088 24.4388 19.437C25.6558 18.9652 26.9814 18.8698 28.251 19.1626C29.5206 19.4555 30.678 20.1237 31.5793 21.0842C32.4807 22.0447 33.0862 23.255 33.3206 24.5648C33.555 25.8746 33.4079 27.2259 32.8977 28.4509C32.3874 29.6758 31.5365 30.7202 30.4507 31.4544C29.365 32.1885 28.0922 32.5798 26.7908 32.5798Z" fill="url(#paint0_linear_2029_49061)"/>
<path d="M32.5505 25.788C32.5505 27.3509 31.9437 28.8498 30.8636 29.955C29.7834 31.0601 28.3184 31.681 26.7908 31.681C25.2632 31.681 23.7982 31.0601 22.7181 29.955C21.6379 28.8498 21.0311 27.3509 21.0311 25.788C21.0311 25.6012 21.0399 25.4174 21.0564 25.2357C21.1952 23.7273 21.8965 22.3315 23.0147 21.3382C24.1328 20.345 25.5819 19.8304 27.061 19.9015C28.5402 19.9726 29.9358 20.6238 30.958 21.72C31.9802 22.8161 32.5505 24.273 32.5505 25.788Z" fill="url(#paint1_linear_2029_49061)"/>
<path d="M27.3875 29.2832L24.9958 26.7943C24.9634 26.7619 24.9375 26.7214 24.918 26.6728C24.8986 26.6242 24.8889 26.574 24.8889 26.5221V26.2888C24.8889 26.1786 24.9261 26.0862 25.0007 26.0117C25.0752 25.9372 25.1676 25.8999 25.2777 25.8999H26.25C26.5935 25.8999 26.89 25.7881 27.1396 25.5645C27.3891 25.3409 27.5398 25.0638 27.5916 24.7332H24.8889C24.7787 24.7332 24.6863 24.696 24.6118 24.6214C24.5372 24.5469 24.5 24.4545 24.5 24.3443C24.5 24.2342 24.5372 24.1418 24.6118 24.0673C24.6863 23.9927 24.7787 23.9555 24.8889 23.9555H27.475C27.3648 23.7286 27.2011 23.5423 26.984 23.3964C26.7669 23.2506 26.5222 23.1777 26.25 23.1777H24.8889C24.7787 23.1777 24.6863 23.1404 24.6118 23.0659C24.5372 22.9913 24.5 22.899 24.5 22.7888C24.5 22.6786 24.5372 22.5862 24.6118 22.5117C24.6863 22.4372 24.7787 22.3999 24.8889 22.3999H28.7777C28.8879 22.3999 28.9803 22.4372 29.0548 22.5117C29.1294 22.5862 29.1666 22.6786 29.1666 22.7888C29.1666 22.899 29.1294 22.9913 29.0548 23.0659C28.9803 23.1404 28.8879 23.1777 28.7777 23.1777H27.9027C27.9935 23.2879 28.0745 23.4078 28.1458 23.5374C28.2171 23.667 28.2722 23.8064 28.3111 23.9555H28.7777C28.8879 23.9555 28.9803 23.9927 29.0548 24.0673C29.1294 24.1418 29.1666 24.2342 29.1666 24.3443C29.1666 24.4545 29.1294 24.5469 29.0548 24.6214C28.9803 24.696 28.8879 24.7332 28.7777 24.7332H28.3791C28.3273 25.2842 28.1004 25.746 27.6986 26.1187C27.2967 26.4913 26.8139 26.6777 26.25 26.6777H25.968L27.9514 28.7388C28.068 28.8619 28.0923 29.0029 28.0243 29.1617C27.9562 29.3205 27.8379 29.3999 27.6694 29.3999C27.6176 29.3999 27.5673 29.3902 27.5187 29.3707C27.4701 29.3513 27.4264 29.3221 27.3875 29.2832Z" fill="url(#paint2_linear_2029_49061)"/>
</g>
<path d="M0.585052 110.585H181.252" stroke="url(#paint3_linear_2029_49061)" stroke-width="1.0749" stroke-miterlimit="10"/>
<path d="M26.9822 83.0567C29.914 83.0567 32.2907 80.625 32.2907 77.6254C32.2907 74.6258 29.914 72.1941 26.9822 72.1941C24.0504 72.1941 21.6738 74.6258 21.6738 77.6254C21.6738 80.625 24.0504 83.0567 26.9822 83.0567Z" fill="url(#paint4_linear_2029_49061)"/>
<path d="M17.9593 95.8389C20.8911 95.8389 23.2678 93.4072 23.2678 90.4076C23.2678 87.408 20.8911 84.9763 17.9593 84.9763C15.0276 84.9763 12.6509 87.408 12.6509 90.4076C12.6509 93.4072 15.0276 95.8389 17.9593 95.8389Z" fill="url(#paint5_linear_2029_49061)"/>
<path d="M6.8539 106.047C9.78569 106.047 12.1624 103.615 12.1624 100.616C12.1624 97.6162 9.78569 95.1846 6.8539 95.1846C3.92212 95.1846 1.54544 97.6162 1.54544 100.616C1.54544 103.615 3.92212 106.047 6.8539 106.047Z" fill="url(#paint6_linear_2029_49061)"/>
<path d="M6.84935 110.438V100.586" stroke="url(#paint7_linear_2029_49061)" stroke-width="0.254216" stroke-miterlimit="10"/>
<path d="M6.84946 101.979C7.60152 101.979 8.21118 101.356 8.21118 100.586C8.21118 99.8166 7.60152 99.1929 6.84946 99.1929C6.0974 99.1929 5.48773 99.8166 5.48773 100.586C5.48773 101.356 6.0974 101.979 6.84946 101.979Z" fill="url(#paint8_linear_2029_49061)"/>
<path d="M6.84939 106.658C6.84939 106.658 6.65485 102.377 2.66695 102.875L6.84939 106.658Z" fill="url(#paint9_linear_2029_49061)"/>
<path d="M26.9857 110.507V77.6453" stroke="url(#paint10_linear_2029_49061)" stroke-width="0.254216" stroke-miterlimit="10"/>
<path d="M26.9856 79.0228C27.7377 79.0228 28.3473 78.399 28.3473 77.6296C28.3473 76.8601 27.7377 76.2363 26.9856 76.2363C26.2335 76.2363 25.6239 76.8601 25.6239 77.6296C25.6239 78.399 26.2335 79.0228 26.9856 79.0228Z" fill="url(#paint11_linear_2029_49061)"/>
<path d="M22.8032 102.799C23.5553 102.799 24.1649 102.175 24.1649 101.406C24.1649 100.636 23.5553 100.012 22.8032 100.012C22.0511 100.012 21.4415 100.636 21.4415 101.406C21.4415 102.175 22.0511 102.799 22.8032 102.799Z" fill="url(#paint12_linear_2029_49061)"/>
<path d="M26.9857 84.7463C26.9857 84.7463 26.7911 80.4655 22.8032 80.9631L26.9857 84.7463Z" fill="url(#paint13_linear_2029_49061)"/>
<path d="M26.9857 96.8818C26.9857 96.8818 26.7911 92.601 22.8032 93.0986L26.9857 96.8818Z" fill="url(#paint14_linear_2029_49061)"/>
<path d="M26.9857 110.124C26.9857 110.124 27.8611 101.804 22.8032 101.406" stroke="url(#paint15_linear_2029_49061)" stroke-width="0.254216" stroke-miterlimit="10"/>
<path d="M31.1688 102.799C31.9209 102.799 32.5305 102.175 32.5305 101.406C32.5305 100.636 31.9209 100.012 31.1688 100.012C30.4168 100.012 29.8071 100.636 29.8071 101.406C29.8071 102.175 30.4168 102.799 31.1688 102.799Z" fill="url(#paint16_linear_2029_49061)"/>
<path d="M26.9863 110.124C26.9863 110.124 26.1109 101.804 31.1687 101.406" stroke="url(#paint17_linear_2029_49061)" stroke-width="0.254216" stroke-miterlimit="10"/>
<path d="M31.2517 89.7298C32.0037 89.7298 32.6134 89.1061 32.6134 88.3366C32.6134 87.5671 32.0037 86.9434 31.2517 86.9434C30.4996 86.9434 29.8899 87.5671 29.8899 88.3366C29.8899 89.1061 30.4996 89.7298 31.2517 89.7298Z" fill="url(#paint18_linear_2029_49061)"/>
<path d="M27.0692 96.6117C27.0692 96.6117 26.1938 88.7347 31.2516 88.3367" stroke="url(#paint19_linear_2029_49061)" stroke-width="0.254216" stroke-miterlimit="10"/>
<path d="M17.9641 110.461V90.4019" stroke="url(#paint20_linear_2029_49061)" stroke-width="0.254216" stroke-miterlimit="10"/>
<path d="M17.9641 91.795C18.7162 91.795 19.3259 91.1712 19.3259 90.4018C19.3259 89.6323 18.7162 89.0085 17.9641 89.0085C17.2121 89.0085 16.6024 89.6323 16.6024 90.4018C16.6024 91.1712 17.2121 91.795 17.9641 91.795Z" fill="url(#paint21_linear_2029_49061)"/>
<path d="M17.9642 96.0756C17.9642 96.0756 17.7697 91.7949 13.7818 92.2924L17.9642 96.0756Z" fill="url(#paint22_linear_2029_49061)"/>
<path d="M17.9642 110.078C17.9642 110.078 18.8396 101.846 13.7818 101.448" stroke="url(#paint23_linear_2029_49061)" stroke-width="0.254216" stroke-miterlimit="10"/>
<path d="M13.7816 102.841C14.5337 102.841 15.1433 102.217 15.1433 101.448C15.1433 100.678 14.5337 100.055 13.7816 100.055C13.0296 100.055 12.4199 100.678 12.4199 101.448C12.4199 102.217 13.0296 102.841 13.7816 102.841Z" fill="url(#paint24_linear_2029_49061)"/>
<g opacity="0.9">
<path d="M54.8027 12.4246C53.8038 12.425 52.8442 12.823 52.1271 13.5345C51.41 14.246 50.9916 15.2151 50.9605 16.2366C50.9594 16.2765 50.9588 16.3169 50.9588 16.3574C50.9588 17.1352 51.1843 17.8956 51.6067 18.5424C52.029 19.1891 52.6294 19.6932 53.3317 19.9909C54.0341 20.2885 54.807 20.3664 55.5526 20.2147C56.2983 20.0629 56.9832 19.6883 57.5208 19.1383C58.0583 18.5883 58.4244 17.8875 58.5728 17.1246C58.7211 16.3618 58.645 15.571 58.354 14.8524C58.0631 14.1337 57.5704 13.5195 56.9383 13.0874C56.3062 12.6552 55.563 12.4246 54.8027 12.4246ZM54.8027 20.1779C53.8127 20.1768 52.8635 19.774 52.1635 19.0577C51.4634 18.3415 51.0697 17.3703 51.0687 16.3574C51.0687 16.3051 51.0698 16.2535 51.072 16.2023C51.1017 15.454 51.3458 14.731 51.7739 14.1235C52.202 13.5159 52.7952 13.0504 53.4797 12.785C54.1643 12.5196 54.91 12.466 55.6241 12.6307C56.3382 12.7954 56.9893 13.1713 57.4963 13.7116C58.0033 14.2519 58.3439 14.9327 58.4757 15.6694C58.6076 16.4062 58.5248 17.1663 58.2378 17.8553C57.9508 18.5444 57.4722 19.1319 56.8614 19.5448C56.2507 19.9577 55.5348 20.1779 54.8027 20.1779Z" fill="url(#paint25_linear_2029_49061)"/>
<path d="M58.0425 16.3573C58.0425 17.2364 57.7011 18.0796 57.0935 18.7012C56.4859 19.3229 55.6619 19.6721 54.8026 19.6721C53.9434 19.6721 53.1193 19.3229 52.5117 18.7012C51.9041 18.0796 51.5628 17.2364 51.5628 16.3573C51.5628 16.2522 51.5677 16.1488 51.577 16.0466C51.6551 15.1981 52.0496 14.413 52.6785 13.8543C53.3075 13.2956 54.1226 13.0062 54.9546 13.0461C55.7866 13.0861 56.5717 13.4524 57.1467 14.069C57.7217 14.6856 58.0425 15.5051 58.0425 16.3573Z" fill="url(#paint26_linear_2029_49061)"/>
<path d="M55.15 18.6333L53.7833 17.2111C53.7648 17.1925 53.75 17.1694 53.7389 17.1416C53.7278 17.1138 53.7222 17.0851 53.7222 17.0555V16.9222C53.7222 16.8592 53.7435 16.8064 53.7861 16.7638C53.8287 16.7212 53.8815 16.7 53.9444 16.7H54.5C54.6963 16.7 54.8657 16.6361 55.0083 16.5083C55.1509 16.3805 55.237 16.2222 55.2667 16.0333H53.7222C53.6592 16.0333 53.6065 16.012 53.5639 15.9694C53.5213 15.9268 53.5 15.874 53.5 15.8111C53.5 15.7481 53.5213 15.6953 53.5639 15.6527C53.6065 15.6101 53.6592 15.5888 53.7222 15.5888H55.2C55.137 15.4592 55.0435 15.3527 54.9194 15.2694C54.7954 15.1861 54.6555 15.1444 54.5 15.1444H53.7222C53.6592 15.1444 53.6065 15.1231 53.5639 15.0805C53.5213 15.0379 53.5 14.9851 53.5 14.9222C53.5 14.8592 53.5213 14.8064 53.5639 14.7638C53.6065 14.7212 53.6592 14.7 53.7222 14.7H55.9444C56.0074 14.7 56.0602 14.7212 56.1028 14.7638C56.1454 14.8064 56.1667 14.8592 56.1667 14.9222C56.1667 14.9851 56.1454 15.0379 56.1028 15.0805C56.0602 15.1231 56.0074 15.1444 55.9444 15.1444H55.4444C55.4963 15.2074 55.5426 15.2759 55.5833 15.35C55.6241 15.424 55.6555 15.5037 55.6778 15.5888H55.9444C56.0074 15.5888 56.0602 15.6101 56.1028 15.6527C56.1454 15.6953 56.1667 15.7481 56.1667 15.8111C56.1667 15.874 56.1454 15.9268 56.1028 15.9694C56.0602 16.012 56.0074 16.0333 55.9444 16.0333H55.7167C55.687 16.3481 55.5574 16.612 55.3278 16.825C55.0981 17.0379 54.8222 17.1444 54.5 17.1444H54.3389L55.4722 18.3222C55.5389 18.3925 55.5528 18.4731 55.5139 18.5638C55.475 18.6546 55.4074 18.7 55.3111 18.7C55.2815 18.7 55.2528 18.6944 55.225 18.6833C55.1972 18.6722 55.1722 18.6555 55.15 18.6333Z" fill="url(#paint27_linear_2029_49061)"/>
</g>
<g opacity="0.9">
<path d="M15.5715 70.8499C14.5725 70.8502 13.613 71.2483 12.8959 71.9598C12.1787 72.6713 11.7603 73.6404 11.7292 74.6619C11.7281 74.7018 11.7276 74.7422 11.7276 74.7827C11.7276 75.5605 11.953 76.3209 12.3754 76.9676C12.7978 77.6144 13.3981 78.1185 14.1005 78.4161C14.8029 78.7138 15.5757 78.7917 16.3214 78.6399C17.067 78.4882 17.7519 78.1136 18.2895 77.5636C18.8271 77.0136 19.1932 76.3128 19.3415 75.5499C19.4898 74.787 19.4137 73.9963 19.1228 73.2777C18.8318 72.559 18.3391 71.9448 17.707 71.5127C17.0749 71.0805 16.3317 70.8499 15.5715 70.8499ZM15.5715 78.6032C14.5815 78.6021 13.6323 78.1992 12.9322 77.483C12.2322 76.7667 11.8384 75.7956 11.8374 74.7827C11.8374 74.7304 11.8385 74.6787 11.8407 74.6276C11.8704 73.8792 12.1145 73.1563 12.5426 72.5487C12.9707 71.9412 13.5639 71.4757 14.2485 71.2103C14.933 70.9449 15.6787 70.8913 16.3928 71.056C17.107 71.2207 17.758 71.5966 18.265 72.1369C18.772 72.6771 19.1126 73.358 19.2445 74.0947C19.3763 74.8315 19.2936 75.5916 19.0066 76.2806C18.7196 76.9697 18.2409 77.5572 17.6302 77.9701C17.0194 78.383 16.3035 78.6032 15.5715 78.6032Z" fill="url(#paint28_linear_2029_49061)"/>
<path d="M18.8114 74.7826C18.8114 75.6617 18.47 76.5049 17.8625 77.1265C17.2549 77.7482 16.4308 78.0974 15.5715 78.0974C14.7123 78.0974 13.8882 77.7482 13.2806 77.1265C12.673 76.5049 12.3317 75.6617 12.3317 74.7826C12.3317 74.6775 12.3366 74.5741 12.346 74.4719C12.424 73.6234 12.8185 72.8383 13.4475 72.2796C14.0764 71.7209 14.8915 71.4314 15.7235 71.4714C16.5556 71.5114 17.3406 71.8777 17.9156 72.4943C18.4906 73.1109 18.8114 73.9304 18.8114 74.7826Z" fill="url(#paint29_linear_2029_49061)"/>
<path d="M16.5366 75.0028C16.458 74.8971 16.3547 74.8135 16.2362 74.7595C16.09 74.6965 15.9391 74.6457 15.7848 74.6078V73.7055C16.0219 73.7421 16.2443 73.8458 16.4268 74.005L16.6058 73.6145C16.5028 73.5207 16.3846 73.4459 16.2565 73.3937C16.1145 73.3349 15.9655 73.2958 15.8134 73.2774V72.8201H15.3988V73.2819C15.2387 73.3003 15.0843 73.3533 14.9458 73.4375C14.8207 73.5133 14.7153 73.6189 14.6388 73.7454C14.5658 73.8688 14.5279 74.0107 14.5295 74.155C14.5224 74.3113 14.5667 74.4656 14.6553 74.5932C14.7368 74.7037 14.8446 74.7911 14.9683 74.8472C15.1168 74.9121 15.2703 74.9641 15.4274 75.0028V75.8675C15.1476 75.8459 14.881 75.737 14.6635 75.5556L14.4845 75.9467C14.6061 76.0495 14.7444 76.1298 14.8931 76.1838C15.056 76.2434 15.2262 76.2797 15.3988 76.2916V76.745H15.8134V76.2832C16.0437 76.2575 16.2596 76.1562 16.429 75.9944C16.5035 75.9213 16.5624 75.833 16.602 75.7354C16.6415 75.6377 16.6607 75.5327 16.6585 75.427C16.6654 75.2756 16.6225 75.1262 16.5366 75.0028ZM15.4274 74.5123C15.3264 74.481 15.2325 74.4294 15.1511 74.3606C15.1189 74.3313 15.0934 74.295 15.0765 74.2544C15.0596 74.2138 15.0517 74.1699 15.0534 74.1258C15.0504 74.0257 15.0863 73.9285 15.1533 73.8555C15.2276 73.779 15.3234 73.7281 15.4274 73.71V74.5123ZM16.0451 75.7079C15.9751 75.7814 15.8838 75.83 15.7848 75.8467V75.1028C15.8795 75.1288 15.968 75.1741 16.0451 75.236C16.0744 75.2615 16.0976 75.2934 16.1131 75.3294C16.1286 75.3654 16.1359 75.4045 16.1346 75.4438C16.1384 75.5403 16.1065 75.6346 16.0451 75.7079Z" fill="url(#paint30_linear_2029_49061)"/>
</g>
<path d="M53.6694 26.8596C46.6049 26.8624 39.8187 29.6776 34.7471 34.7093C29.6755 39.741 26.7166 46.5944 26.4966 53.8188C26.4888 54.101 26.485 54.387 26.485 54.6731C26.485 60.1741 28.0793 65.5516 31.0664 70.1255C34.0534 74.6994 38.2991 78.2643 43.2664 80.3694C48.2337 82.4746 53.6996 83.0254 58.9729 81.9522C64.2462 80.879 69.09 78.23 72.8918 74.3402C76.6936 70.4505 79.2826 65.4946 80.3316 60.0993C81.3805 54.704 80.8421 49.1116 78.7846 44.0294C76.7271 38.9471 73.2428 34.6032 68.7723 31.547C64.3019 28.4909 59.046 26.8596 53.6694 26.8596ZM53.6694 81.692C46.6679 81.6845 39.9552 78.8355 35.0044 73.7701C30.0536 68.7047 27.269 61.8367 27.2617 54.6731C27.2617 54.3036 27.2694 53.9381 27.285 53.5765C27.4953 48.2839 29.2215 43.1713 32.249 38.8744C35.2765 34.5776 39.4717 31.286 44.3129 29.409C49.1541 27.532 54.4278 27.1524 59.4782 28.3175C64.5286 29.4825 69.1328 32.1407 72.7185 35.9616C76.3041 39.7825 78.7129 44.5974 79.6454 49.8078C80.5778 55.0181 79.9927 60.394 77.9629 65.2668C75.9332 70.1397 72.5482 74.2946 68.2289 77.2149C63.9096 80.1352 58.8466 81.6921 53.6694 81.692Z" fill="url(#paint31_linear_2029_49061)"/>
<path d="M76.5813 54.6732C76.5813 60.8906 74.1673 66.8534 69.8704 71.2498C65.5734 75.6461 59.7455 78.116 53.6687 78.116C47.5919 78.116 41.764 75.6461 37.467 71.2498C33.1701 66.8534 30.7561 60.8906 30.7561 54.6732C30.7561 53.9302 30.791 53.1991 30.857 52.4759C31.4091 46.4755 34.1988 40.9231 38.6469 36.9717C43.0949 33.0204 48.8595 30.9735 54.7437 31.2563C60.6279 31.5391 66.1796 34.1297 70.246 38.4902C74.3125 42.8508 76.5813 48.6462 76.5813 54.6732Z" fill="url(#paint32_linear_2029_49061)"/>
<path d="M55.55 68.5333L45.9834 58.5778C45.8537 58.4481 45.75 58.2861 45.6723 58.0917C45.5945 57.8972 45.5556 57.6963 45.5556 57.4889V56.5556C45.5556 56.1148 45.7047 55.7454 46.0028 55.4472C46.301 55.1491 46.6704 55 47.1112 55H51C52.3741 55 53.5602 54.5528 54.5584 53.6583C55.5565 52.7639 56.1593 51.6556 56.3667 50.3333H45.5556C45.1149 50.3333 44.7454 50.1843 44.4473 49.8861C44.1491 49.588 44 49.2185 44 48.7778C44 48.337 44.1491 47.9676 44.4473 47.6694C44.7454 47.3713 45.1149 47.2222 45.5556 47.2222H55.9C55.4593 46.3148 54.8047 45.5694 53.9362 44.9861C53.0676 44.4028 52.0889 44.1111 51 44.1111H45.5556C45.1149 44.1111 44.7454 43.962 44.4473 43.6639C44.1491 43.3657 44 42.9963 44 42.5556C44 42.1148 44.1491 41.7454 44.4473 41.4472C44.7454 41.1491 45.1149 41 45.5556 41H61.1112C61.5519 41 61.9213 41.1491 62.2195 41.4472C62.5176 41.7454 62.6667 42.1148 62.6667 42.5556C62.6667 42.9963 62.5176 43.3657 62.2195 43.6639C61.9213 43.962 61.5519 44.1111 61.1112 44.1111H57.6112C57.9741 44.5519 58.2982 45.0315 58.5834 45.55C58.8686 46.0685 59.0889 46.6259 59.2445 47.2222H61.1112C61.5519 47.2222 61.9213 47.3713 62.2195 47.6694C62.5176 47.9676 62.6667 48.337 62.6667 48.7778C62.6667 49.2185 62.5176 49.588 62.2195 49.8861C61.9213 50.1843 61.5519 50.3333 61.1112 50.3333H59.5167C59.3093 52.537 58.4019 54.3843 56.7945 55.875C55.1871 57.3657 53.2556 58.1111 51 58.1111H49.8723L57.8056 66.3556C58.2723 66.8481 58.3695 67.412 58.0973 68.0472C57.825 68.6824 57.3519 69 56.6778 69C56.4704 69 56.2695 68.9611 56.075 68.8833C55.8806 68.8056 55.7056 68.6889 55.55 68.5333Z" fill="url(#paint33_linear_2029_49061)"/>
<defs>
<linearGradient id="paint0_linear_2029_49061" x1="19.9572" y1="18.7961" x2="33.937" y2="32.4597" gradientUnits="userSpaceOnUse">
<stop stop-color="#FFD666"/>
<stop offset="1" stop-color="#FFAB00"/>
</linearGradient>
<linearGradient id="paint1_linear_2029_49061" x1="21.0311" y1="19.895" x2="32.814" y2="31.4115" gradientUnits="userSpaceOnUse">
<stop stop-color="#22C55E"/>
<stop offset="1" stop-color="#118D57"/>
</linearGradient>
<linearGradient id="paint2_linear_2029_49061" x1="24.5" y1="22.3999" x2="30.9615" y2="26.7076" gradientUnits="userSpaceOnUse">
<stop stop-color="#FFD666"/>
<stop offset="1" stop-color="#FFAB00"/>
</linearGradient>
<linearGradient id="paint3_linear_2029_49061" x1="90.9185" y1="110.585" x2="90.9185" y2="111.585" gradientUnits="userSpaceOnUse">
<stop stop-color="#3F3D56"/>
<stop offset="1" stop-color="#1E1E1E"/>
</linearGradient>
<linearGradient id="paint4_linear_2029_49061" x1="21.6738" y1="72.1941" x2="32.5335" y2="82.8082" gradientUnits="userSpaceOnUse">
<stop stop-color="#FFD666"/>
<stop offset="1" stop-color="#FFAB00"/>
</linearGradient>
<linearGradient id="paint5_linear_2029_49061" x1="12.6509" y1="84.9763" x2="23.5106" y2="95.5905" gradientUnits="userSpaceOnUse">
<stop stop-color="#FFD666"/>
<stop offset="1" stop-color="#FFAB00"/>
</linearGradient>
<linearGradient id="paint6_linear_2029_49061" x1="1.54544" y1="95.1846" x2="12.4052" y2="105.799" gradientUnits="userSpaceOnUse">
<stop stop-color="#FFD666"/>
<stop offset="1" stop-color="#FFAB00"/>
</linearGradient>
<linearGradient id="paint7_linear_2029_49061" x1="7.34935" y1="100.586" x2="7.34935" y2="110.438" gradientUnits="userSpaceOnUse">
<stop stop-color="#3F3D56"/>
<stop offset="1" stop-color="#1E1E1E"/>
</linearGradient>
<linearGradient id="paint8_linear_2029_49061" x1="6.84946" y1="99.1929" x2="6.84946" y2="101.979" gradientUnits="userSpaceOnUse">
<stop stop-color="#3F3D56"/>
<stop offset="1" stop-color="#1E1E1E"/>
</linearGradient>
<linearGradient id="paint9_linear_2029_49061" x1="4.75817" y1="102.835" x2="4.75817" y2="106.658" gradientUnits="userSpaceOnUse">
<stop stop-color="#3F3D56"/>
<stop offset="1" stop-color="#1E1E1E"/>
</linearGradient>
<linearGradient id="paint10_linear_2029_49061" x1="27.4857" y1="77.6453" x2="27.4857" y2="110.507" gradientUnits="userSpaceOnUse">
<stop stop-color="#3F3D56"/>
<stop offset="1" stop-color="#1E1E1E"/>
</linearGradient>
<linearGradient id="paint11_linear_2029_49061" x1="26.9856" y1="76.2363" x2="26.9856" y2="79.0228" gradientUnits="userSpaceOnUse">
<stop stop-color="#3F3D56"/>
<stop offset="1" stop-color="#1E1E1E"/>
</linearGradient>
<linearGradient id="paint12_linear_2029_49061" x1="22.8032" y1="100.012" x2="22.8032" y2="102.799" gradientUnits="userSpaceOnUse">
<stop stop-color="#3F3D56"/>
<stop offset="1" stop-color="#1E1E1E"/>
</linearGradient>
<linearGradient id="paint13_linear_2029_49061" x1="24.8944" y1="80.9229" x2="24.8944" y2="84.7463" gradientUnits="userSpaceOnUse">
<stop stop-color="#3F3D56"/>
<stop offset="1" stop-color="#1E1E1E"/>
</linearGradient>
<linearGradient id="paint14_linear_2029_49061" x1="24.8944" y1="93.0583" x2="24.8944" y2="96.8818" gradientUnits="userSpaceOnUse">
<stop stop-color="#3F3D56"/>
<stop offset="1" stop-color="#1E1E1E"/>
</linearGradient>
<linearGradient id="paint15_linear_2029_49061" x1="24.9234" y1="101.406" x2="24.9234" y2="110.124" gradientUnits="userSpaceOnUse">
<stop stop-color="#3F3D56"/>
<stop offset="1" stop-color="#1E1E1E"/>
</linearGradient>
<linearGradient id="paint16_linear_2029_49061" x1="31.1688" y1="100.012" x2="31.1688" y2="102.799" gradientUnits="userSpaceOnUse">
<stop stop-color="#3F3D56"/>
<stop offset="1" stop-color="#1E1E1E"/>
</linearGradient>
<linearGradient id="paint17_linear_2029_49061" x1="29.0485" y1="101.406" x2="29.0485" y2="110.124" gradientUnits="userSpaceOnUse">
<stop stop-color="#3F3D56"/>
<stop offset="1" stop-color="#1E1E1E"/>
</linearGradient>
<linearGradient id="paint18_linear_2029_49061" x1="31.2517" y1="86.9434" x2="31.2517" y2="89.7298" gradientUnits="userSpaceOnUse">
<stop stop-color="#3F3D56"/>
<stop offset="1" stop-color="#1E1E1E"/>
</linearGradient>
<linearGradient id="paint19_linear_2029_49061" x1="29.1315" y1="88.3367" x2="29.1315" y2="96.6117" gradientUnits="userSpaceOnUse">
<stop stop-color="#3F3D56"/>
<stop offset="1" stop-color="#1E1E1E"/>
</linearGradient>
<linearGradient id="paint20_linear_2029_49061" x1="18.4641" y1="90.4019" x2="18.4641" y2="110.461" gradientUnits="userSpaceOnUse">
<stop stop-color="#3F3D56"/>
<stop offset="1" stop-color="#1E1E1E"/>
</linearGradient>
<linearGradient id="paint21_linear_2029_49061" x1="17.9641" y1="89.0085" x2="17.9641" y2="91.795" gradientUnits="userSpaceOnUse">
<stop stop-color="#3F3D56"/>
<stop offset="1" stop-color="#1E1E1E"/>
</linearGradient>
<linearGradient id="paint22_linear_2029_49061" x1="15.873" y1="92.2522" x2="15.873" y2="96.0756" gradientUnits="userSpaceOnUse">
<stop stop-color="#3F3D56"/>
<stop offset="1" stop-color="#1E1E1E"/>
</linearGradient>
<linearGradient id="paint23_linear_2029_49061" x1="15.9019" y1="101.448" x2="15.9019" y2="110.078" gradientUnits="userSpaceOnUse">
<stop stop-color="#3F3D56"/>
<stop offset="1" stop-color="#1E1E1E"/>
</linearGradient>
<linearGradient id="paint24_linear_2029_49061" x1="13.7816" y1="100.055" x2="13.7816" y2="102.841" gradientUnits="userSpaceOnUse">
<stop stop-color="#3F3D56"/>
<stop offset="1" stop-color="#1E1E1E"/>
</linearGradient>
<linearGradient id="paint25_linear_2029_49061" x1="50.9588" y1="12.4246" x2="58.8225" y2="20.1103" gradientUnits="userSpaceOnUse">
<stop stop-color="#FFD666"/>
<stop offset="1" stop-color="#FFAB00"/>
</linearGradient>
<linearGradient id="paint26_linear_2029_49061" x1="51.5628" y1="13.0425" x2="58.1907" y2="19.5205" gradientUnits="userSpaceOnUse">
<stop stop-color="#22C55E"/>
<stop offset="1" stop-color="#118D57"/>
</linearGradient>
<linearGradient id="paint27_linear_2029_49061" x1="53.5" y1="14.7" x2="57.1923" y2="17.1615" gradientUnits="userSpaceOnUse">
<stop stop-color="#FFD666"/>
<stop offset="1" stop-color="#FFAB00"/>
</linearGradient>
<linearGradient id="paint28_linear_2029_49061" x1="11.7276" y1="70.8499" x2="19.5912" y2="78.5356" gradientUnits="userSpaceOnUse">
<stop stop-color="#FFD666"/>
<stop offset="1" stop-color="#FFAB00"/>
</linearGradient>
<linearGradient id="paint29_linear_2029_49061" x1="12.3317" y1="71.4678" x2="18.9596" y2="77.9458" gradientUnits="userSpaceOnUse">
<stop stop-color="#22C55E"/>
<stop offset="1" stop-color="#118D57"/>
</linearGradient>
<linearGradient id="paint30_linear_2029_49061" x1="14.4845" y1="72.8201" x2="17.8123" y2="74.6639" gradientUnits="userSpaceOnUse">
<stop stop-color="#FFD666"/>
<stop offset="1" stop-color="#FFAB00"/>
</linearGradient>
<linearGradient id="paint31_linear_2029_49061" x1="26.485" y1="26.8596" x2="82.0975" y2="81.2143" gradientUnits="userSpaceOnUse">
<stop stop-color="#FFD666"/>
<stop offset="1" stop-color="#FFAB00"/>
</linearGradient>
<linearGradient id="paint32_linear_2029_49061" x1="30.7561" y1="31.2305" x2="77.6294" y2="77.0437" gradientUnits="userSpaceOnUse">
<stop stop-color="#22C55E"/>
<stop offset="1" stop-color="#118D57"/>
</linearGradient>
<linearGradient id="paint33_linear_2029_49061" x1="44" y1="41" x2="69.8462" y2="58.2308" gradientUnits="userSpaceOnUse">
<stop stop-color="#FFD666"/>
<stop offset="1" stop-color="#FFAB00"/>
</linearGradient>
</defs>
</svg>
