<svg width="125" height="48" viewBox="0 0 125 48" fill="none" xmlns="http://www.w3.org/2000/svg">
<path opacity="0.32" d="M40.2412 30.6271C39.8628 31.5006 38.9634 32 38.0115 32H31.7539C31.7949 31.886 31.8313 31.7692 31.8628 31.6497C32.2279 30.2632 31.8433 28.852 30.9618 27.8617C31.2872 25.2121 31.4903 22.4977 31.6144 20.3535C31.6759 19.2897 30.3726 18.9344 29.9032 19.887C28.9571 21.807 27.7991 24.2611 26.7789 26.7213C25.529 27.1305 24.5024 28.1569 24.1373 29.5434C23.9152 30.3866 23.9705 31.2388 24.246 32H17.9886C17.0367 32 16.1372 31.5006 15.7589 30.6271C15.0562 29.0043 14.6667 27.2143 14.6667 25.3333C14.6667 17.9695 20.6362 12 28 12C35.3638 12 41.3334 17.9695 41.3334 25.3333C41.3334 27.2143 40.9439 29.0043 40.2412 30.6271Z" fill="#277351"/>
<path d="M31.6143 20.3535C31.6759 19.2897 30.3726 18.9343 29.9032 19.8869C28.9571 21.8069 27.7991 24.261 26.7789 26.7213C25.5289 27.1304 24.5024 28.1568 24.1373 29.5433C23.5656 31.7141 24.8317 33.9453 26.965 34.5269C29.0983 35.1086 31.2911 33.8204 31.8627 31.6497C32.2279 30.2631 31.8433 28.8519 30.9618 27.8617C31.2872 25.2121 31.4903 22.4976 31.6143 20.3535Z" fill="#277351"/>
<path d="M57.208 29.14C56.2887 29.14 55.493 28.937 54.821 28.531C54.1537 28.1203 53.638 27.53 53.274 26.76C52.9147 25.9853 52.735 25.052 52.735 23.96C52.735 22.8587 52.917 21.9207 53.281 21.146C53.6497 20.3667 54.1677 19.7717 54.835 19.361C55.507 18.9457 56.298 18.738 57.208 18.738C58.1133 18.738 58.8973 18.9457 59.56 19.361C60.2273 19.7717 60.7407 20.3667 61.1 21.146C61.464 21.9207 61.646 22.8587 61.646 23.96C61.646 25.052 61.4663 25.983 61.107 26.753C60.7477 27.523 60.2343 28.1133 59.567 28.524C58.9043 28.9347 58.118 29.14 57.208 29.14ZM57.208 27.859C57.796 27.859 58.2977 27.7237 58.713 27.453C59.133 27.1823 59.4527 26.76 59.672 26.186C59.8913 25.612 60.001 24.877 60.001 23.981C60.001 23.0617 59.889 22.3103 59.665 21.727C59.4457 21.1437 59.126 20.7143 58.706 20.439C58.2907 20.159 57.7913 20.019 57.208 20.019C56.6247 20.019 56.1207 20.159 55.696 20.439C55.276 20.719 54.9517 21.1507 54.723 21.734C54.4943 22.3173 54.38 23.0663 54.38 23.981C54.38 24.8817 54.4943 25.619 54.723 26.193C54.9517 26.7623 55.276 27.1823 55.696 27.453C56.1207 27.7237 56.6247 27.859 57.208 27.859ZM69.202 21.762L66.57 29H65.303L62.664 21.762H64.05L65.884 27.103H65.982L67.816 21.762H69.202ZM71.3756 25.731C71.3756 26.165 71.4456 26.5547 71.5856 26.9C71.7302 27.2407 71.9472 27.5113 72.2366 27.712C72.5259 27.908 72.8852 28.006 73.3146 28.006C73.7439 28.006 74.1149 27.908 74.4276 27.712C74.7449 27.516 74.9526 27.2243 75.0506 26.837H76.4366C76.3526 27.3317 76.1542 27.7517 75.8416 28.097C75.5336 28.4423 75.1602 28.7037 74.7216 28.881C74.2829 29.0537 73.8232 29.14 73.3426 29.14C72.6566 29.14 72.0522 28.993 71.5296 28.699C71.0069 28.4003 70.5986 27.9757 70.3046 27.425C70.0152 26.8743 69.8706 26.2187 69.8706 25.458C69.8706 24.7067 70.0036 24.044 70.2696 23.47C70.5356 22.8913 70.9206 22.4387 71.4246 22.112C71.9286 21.7853 72.5352 21.622 73.2446 21.622C73.9446 21.622 74.5326 21.7713 75.0086 22.07C75.4892 22.3687 75.8532 22.7887 76.1006 23.33C76.3479 23.8667 76.4716 24.5013 76.4716 25.234V25.731H71.3756ZM71.3756 24.758H75.0436C75.0436 24.38 74.9782 24.037 74.8476 23.729C74.7169 23.4163 74.5162 23.1713 74.2456 22.994C73.9796 22.812 73.6436 22.721 73.2376 22.721C72.8222 22.721 72.4769 22.8213 72.2016 23.022C71.9262 23.2227 71.7186 23.4793 71.5786 23.792C71.4432 24.1047 71.3756 24.4267 71.3756 24.758ZM78.1439 29V21.762H79.5789V23.246C79.7002 22.8913 79.8682 22.595 80.0829 22.357C80.3022 22.1143 80.5566 21.9323 80.8459 21.811C81.1352 21.685 81.4409 21.622 81.7629 21.622C81.8609 21.622 81.9542 21.629 82.0429 21.643C82.1316 21.6523 82.2016 21.671 82.2529 21.699V23.141C82.1922 23.113 82.1129 23.0943 82.0149 23.085C81.9216 23.0757 81.8399 23.0687 81.7699 23.064C81.4526 23.0407 81.1632 23.057 80.9019 23.113C80.6406 23.169 80.4142 23.2623 80.2229 23.393C80.0362 23.5237 79.8916 23.694 79.7889 23.904C79.6909 24.114 79.6419 24.3613 79.6419 24.646V29H78.1439ZM89.7781 21.762L87.1461 29H85.8791L83.2401 21.762H84.6261L86.4601 27.103H86.5581L88.3921 21.762H89.7781ZM92.6595 21.762V29H91.2175V21.762H92.6595ZM92.6875 18.885V20.362H91.1825V18.885H92.6875ZM95.9439 25.731C95.9439 26.165 96.0139 26.5547 96.1539 26.9C96.2986 27.2407 96.5156 27.5113 96.8049 27.712C97.0943 27.908 97.4536 28.006 97.8829 28.006C98.3123 28.006 98.6833 27.908 98.9959 27.712C99.3133 27.516 99.5209 27.2243 99.6189 26.837H101.005C100.921 27.3317 100.723 27.7517 100.41 28.097C100.102 28.4423 99.7286 28.7037 99.2899 28.881C98.8513 29.0537 98.3916 29.14 97.9109 29.14C97.2249 29.14 96.6206 28.993 96.0979 28.699C95.5753 28.4003 95.1669 27.9757 94.8729 27.425C94.5836 26.8743 94.4389 26.2187 94.4389 25.458C94.4389 24.7067 94.5719 24.044 94.8379 23.47C95.1039 22.8913 95.4889 22.4387 95.9929 22.112C96.4969 21.7853 97.1036 21.622 97.8129 21.622C98.5129 21.622 99.1009 21.7713 99.5769 22.07C100.058 22.3687 100.422 22.7887 100.669 23.33C100.916 23.8667 101.04 24.5013 101.04 25.234V25.731H95.9439ZM95.9439 24.758H99.6119C99.6119 24.38 99.5466 24.037 99.4159 23.729C99.2853 23.4163 99.0846 23.1713 98.8139 22.994C98.5479 22.812 98.2119 22.721 97.8059 22.721C97.3906 22.721 97.0453 22.8213 96.7699 23.022C96.4946 23.2227 96.2869 23.4793 96.1469 23.792C96.0116 24.1047 95.9439 24.4267 95.9439 24.758ZM112.106 21.762L109.859 29H108.487L106.919 23.918L105.414 29H104.063L101.795 21.762H103.16L104.742 27.033H104.84L106.387 21.762H107.5L109.096 27.019H109.194L110.72 21.762H112.106Z" fill="#1D563D"/>
</svg>
