<svg width="149" height="48" viewBox="0 0 149 48" fill="none" xmlns="http://www.w3.org/2000/svg">
<path opacity="0.32" fill-rule="evenodd" clip-rule="evenodd" d="M39.8819 18.9693C37.9622 19.4522 35.6957 19.4843 33.7381 18.8862C32.9104 18.6333 32.265 17.9886 31.9857 17.1695C31.2899 15.1291 31.118 12.6316 31.6294 10.7091C30.5705 10.6826 29.3665 10.6667 28 10.6667C23.3543 10.6667 20.5859 10.8492 19.0171 11.0185C17.8549 11.1439 16.9587 11.9311 16.7411 13.0796C16.4023 14.8675 16 18.2097 16 24.0001C16 29.7904 16.4023 33.1327 16.7411 34.9205C16.9587 36.0691 17.8549 36.8563 19.0171 36.9817C20.5859 37.1509 23.3543 37.3334 28 37.3334C32.6457 37.3334 35.4141 37.1509 36.9829 36.9817C38.1451 36.8563 39.0413 36.0691 39.2589 34.9205C39.5977 33.1327 40 29.7904 40 24.0001C40 22.0594 39.9548 20.3937 39.8819 18.9693Z" fill="#277351"/>
<path d="M39.8818 18.9693C37.9622 19.4521 35.6956 19.4842 33.738 18.8861C32.9103 18.6333 32.265 17.9885 31.9856 17.1695C31.2898 15.129 31.1178 12.6314 31.6293 10.709C31.6293 10.709 33.2614 11.3333 36.2614 14.3333C39.2614 17.3333 39.8818 18.9693 39.8818 18.9693Z" fill="#277351"/>
<path d="M29.8887 21.9502C30.0272 21.9502 30.1462 21.9977 30.2412 22.0928C30.336 22.1877 30.3838 22.306 30.3838 22.4443C30.3838 22.5829 30.3362 22.7019 30.2412 22.7969C30.1462 22.8919 30.0272 22.9385 29.8887 22.9385H28.9883C29.0688 23.0444 29.1449 23.1562 29.2109 23.2764C29.2883 23.417 29.3479 23.5677 29.3926 23.7275H29.8887C30.0272 23.7275 30.1462 23.7751 30.2412 23.8701C30.3362 23.9651 30.3838 24.0842 30.3838 24.2227C30.3837 24.3609 30.336 24.4793 30.2412 24.5742C30.1462 24.6692 30.0272 24.7168 29.8887 24.7168H29.4775C29.4091 25.3385 29.1467 25.8631 28.6895 26.2871C28.2207 26.7217 27.6565 26.9385 27 26.9385H26.7949L28.9805 29.21L29.0303 29.2686C29.0742 29.3285 29.1023 29.3932 29.1143 29.4619C29.1301 29.5536 29.1159 29.6495 29.0742 29.7471C29.0323 29.8448 28.9727 29.9218 28.8955 29.9736C28.8183 30.0253 28.7263 30.0498 28.6221 30.0498C28.5565 30.0498 28.493 30.0372 28.4316 30.0127C28.3696 29.9879 28.3136 29.9513 28.2646 29.9023L28.2637 29.9014L25.5303 27.0566V27.0557C25.4886 27.0136 25.4557 26.9624 25.4316 26.9023C25.4071 26.8409 25.3945 26.7766 25.3945 26.7109V26.4443C25.3946 26.3059 25.4421 26.1878 25.5371 26.0928C25.6321 25.9978 25.7502 25.9502 25.8887 25.9502H27C27.3806 25.9502 27.7076 25.8262 27.9834 25.5791C28.2451 25.3445 28.4073 25.0575 28.4727 24.7168H25.4443C25.3059 24.7168 25.1877 24.6691 25.0928 24.5742C24.9978 24.4793 24.9503 24.361 24.9502 24.2227C24.9502 24.0841 24.9977 23.9651 25.0928 23.8701C25.1877 23.7753 25.306 23.7276 25.4443 23.7275H28.3145C28.1941 23.5095 28.0277 23.3265 27.8105 23.1807C27.571 23.0199 27.3015 22.9385 27 22.9385H25.4443C25.306 22.9385 25.1877 22.8916 25.0928 22.7969C24.9977 22.7019 24.9502 22.5829 24.9502 22.4443C24.9502 22.3059 24.9978 22.1878 25.0928 22.0928C25.1878 21.9978 25.3059 21.9502 25.4443 21.9502H29.8887Z" fill="#1D563D" stroke="#1D563D" stroke-width="0.1"/>
<path d="M52.308 20.243V18.878H60.085V20.243H57.026V29H55.514V20.243H52.308ZM61.013 29V21.762H62.448V23.246C62.5694 22.8913 62.7374 22.595 62.952 22.357C63.1714 22.1143 63.4257 21.9323 63.715 21.811C64.0044 21.685 64.31 21.622 64.632 21.622C64.73 21.622 64.8234 21.629 64.912 21.643C65.0007 21.6523 65.0707 21.671 65.122 21.699V23.141C65.0614 23.113 64.982 23.0943 64.884 23.085C64.7907 23.0757 64.709 23.0687 64.639 23.064C64.3217 23.0407 64.0324 23.057 63.771 23.113C63.5097 23.169 63.2834 23.2623 63.092 23.393C62.9054 23.5237 62.7607 23.694 62.658 23.904C62.56 24.114 62.511 24.3613 62.511 24.646V29H61.013ZM68.3888 29.14C67.9221 29.14 67.5068 29.056 67.1427 28.888C66.7834 28.72 66.5011 28.4773 66.2958 28.16C66.0904 27.8427 65.9878 27.46 65.9878 27.012C65.9878 26.2093 66.2724 25.6097 66.8418 25.213C67.4111 24.8163 68.3188 24.6063 69.5648 24.583L70.7548 24.548V24.023C70.7548 23.6077 70.6311 23.281 70.3838 23.043C70.1364 22.805 69.7561 22.6883 69.2428 22.693C68.8554 22.693 68.5101 22.7817 68.2068 22.959C67.9081 23.1363 67.7121 23.428 67.6188 23.834H66.3168C66.3448 23.3533 66.4824 22.9497 66.7298 22.623C66.9818 22.2917 67.3271 22.042 67.7658 21.874C68.2044 21.706 68.7201 21.622 69.3128 21.622C69.9708 21.622 70.5121 21.713 70.9368 21.895C71.3614 22.0723 71.6764 22.3337 71.8818 22.679C72.0918 23.0243 72.1968 23.4443 72.1968 23.939V29H70.9298L70.8108 27.67C70.5401 28.2253 70.1971 28.6103 69.7818 28.825C69.3711 29.035 68.9068 29.14 68.3888 29.14ZM68.8578 28.097C69.0864 28.097 69.3128 28.0573 69.5368 27.978C69.7608 27.894 69.9638 27.782 70.1458 27.642C70.3278 27.4973 70.4724 27.3363 70.5798 27.159C70.6918 26.9817 70.7501 26.7997 70.7548 26.613V25.416L69.7748 25.437C69.2754 25.4417 68.8508 25.493 68.5008 25.591C68.1554 25.689 67.8894 25.8407 67.7028 26.046C67.5208 26.2513 67.4298 26.5243 67.4298 26.865C67.4298 27.2523 67.5651 27.5557 67.8358 27.775C68.1064 27.9897 68.4471 28.097 68.8578 28.097ZM74.3021 29V21.762H75.7651V22.805C75.8818 22.609 76.0381 22.4247 76.2341 22.252C76.4348 22.0793 76.6798 21.9393 76.9691 21.832C77.2631 21.7247 77.6014 21.671 77.9841 21.671C78.4368 21.671 78.8544 21.762 79.2371 21.944C79.6244 22.1213 79.9348 22.4013 80.1681 22.784C80.4014 23.162 80.5181 23.652 80.5181 24.254V29H79.0201V24.415C79.0201 23.897 78.8801 23.512 78.6001 23.26C78.3248 23.008 77.9678 22.882 77.5291 22.882C77.2351 22.882 76.9551 22.931 76.6891 23.029C76.4231 23.127 76.2084 23.2763 76.0451 23.477C75.8818 23.673 75.8001 23.9203 75.8001 24.219V29H74.3021ZM84.9805 29.14C84.4765 29.14 84.0028 29.0607 83.5595 28.902C83.1208 28.7433 82.7522 28.4937 82.4535 28.153C82.1595 27.8123 81.9752 27.376 81.9005 26.844H83.2375C83.2982 27.1193 83.4125 27.348 83.5805 27.53C83.7532 27.7073 83.9585 27.8403 84.1965 27.929C84.4392 28.013 84.6982 28.055 84.9735 28.055C85.4308 28.055 85.7995 27.9733 86.0795 27.81C86.3642 27.642 86.5065 27.3853 86.5065 27.04C86.5065 26.7927 86.4295 26.5943 86.2755 26.445C86.1262 26.2957 85.8882 26.186 85.5615 26.116L84.1195 25.773C83.5222 25.633 83.0438 25.4113 82.6845 25.108C82.3252 24.8 82.1432 24.3707 82.1385 23.82C82.1385 23.3953 82.2435 23.0173 82.4535 22.686C82.6682 22.3547 82.9855 22.0957 83.4055 21.909C83.8255 21.7177 84.3482 21.622 84.9735 21.622C85.7902 21.622 86.4458 21.804 86.9405 22.168C87.4352 22.532 87.6918 23.0593 87.7105 23.75H86.4155C86.3688 23.4187 86.2172 23.1597 85.9605 22.973C85.7085 22.7817 85.3748 22.686 84.9595 22.686C84.5302 22.686 84.1778 22.7723 83.9025 22.945C83.6272 23.113 83.4895 23.372 83.4895 23.722C83.4895 23.96 83.5898 24.149 83.7905 24.289C83.9912 24.4243 84.2922 24.5363 84.6935 24.625L86.0655 24.968C86.4202 25.0613 86.7118 25.185 86.9405 25.339C87.1692 25.4883 87.3488 25.654 87.4795 25.836C87.6102 26.018 87.7012 26.207 87.7525 26.403C87.8085 26.599 87.8365 26.7833 87.8365 26.956C87.8365 27.4133 87.7198 27.8053 87.4865 28.132C87.2578 28.454 86.9288 28.7037 86.4995 28.881C86.0748 29.0537 85.5685 29.14 84.9805 29.14ZM91.5899 29.14C91.1233 29.14 90.7079 29.056 90.3439 28.888C89.9846 28.72 89.7023 28.4773 89.4969 28.16C89.2916 27.8427 89.1889 27.46 89.1889 27.012C89.1889 26.2093 89.4736 25.6097 90.0429 25.213C90.6123 24.8163 91.5199 24.6063 92.7659 24.583L93.9559 24.548V24.023C93.9559 23.6077 93.8323 23.281 93.5849 23.043C93.3376 22.805 92.9573 22.6883 92.4439 22.693C92.0566 22.693 91.7113 22.7817 91.4079 22.959C91.1093 23.1363 90.9133 23.428 90.8199 23.834H89.5179C89.5459 23.3533 89.6836 22.9497 89.9309 22.623C90.1829 22.2917 90.5283 22.042 90.9669 21.874C91.4056 21.706 91.9213 21.622 92.5139 21.622C93.1719 21.622 93.7133 21.713 94.1379 21.895C94.5626 22.0723 94.8776 22.3337 95.0829 22.679C95.2929 23.0243 95.3979 23.4443 95.3979 23.939V29H94.1309L94.0119 27.67C93.7413 28.2253 93.3983 28.6103 92.9829 28.825C92.5723 29.035 92.1079 29.14 91.5899 29.14ZM92.0589 28.097C92.2876 28.097 92.5139 28.0573 92.7379 27.978C92.9619 27.894 93.1649 27.782 93.3469 27.642C93.5289 27.4973 93.6736 27.3363 93.7809 27.159C93.8929 26.9817 93.9513 26.7997 93.9559 26.613V25.416L92.9759 25.437C92.4766 25.4417 92.0519 25.493 91.7019 25.591C91.3566 25.689 91.0906 25.8407 90.9039 26.046C90.7219 26.2513 90.6309 26.5243 90.6309 26.865C90.6309 27.2523 90.7663 27.5557 91.0369 27.775C91.3076 27.9897 91.6483 28.097 92.0589 28.097ZM100.45 21.622C100.992 21.622 101.472 21.7293 101.892 21.944C102.317 22.154 102.66 22.448 102.921 22.826C103.183 23.204 103.341 23.645 103.397 24.149H102.102C102.06 23.911 101.969 23.6893 101.829 23.484C101.694 23.2787 101.51 23.1153 101.276 22.994C101.048 22.868 100.775 22.805 100.457 22.805C99.8786 22.805 99.4073 23.0173 99.0433 23.442C98.6793 23.8667 98.4973 24.5177 98.4973 25.395C98.4973 26.1977 98.6653 26.837 99.0013 27.313C99.3419 27.789 99.8366 28.027 100.485 28.027C100.798 28.027 101.069 27.9617 101.297 27.831C101.531 27.7003 101.715 27.5323 101.85 27.327C101.986 27.1217 102.072 26.9093 102.109 26.69H103.383C103.332 27.1753 103.173 27.6023 102.907 27.971C102.646 28.3397 102.303 28.6267 101.878 28.832C101.458 29.0373 100.982 29.14 100.45 29.14C99.7923 29.14 99.2089 28.9977 98.7003 28.713C98.1916 28.4237 97.7926 28.0013 97.5033 27.446C97.2186 26.886 97.0763 26.207 97.0763 25.409C97.0763 24.6577 97.2093 23.9973 97.4753 23.428C97.7413 22.8587 98.1263 22.4153 98.6303 22.098C99.1389 21.7807 99.7456 21.622 100.45 21.622ZM108.697 22.84H107.073L107.08 27.159C107.08 27.397 107.104 27.572 107.15 27.684C107.202 27.7913 107.286 27.8613 107.402 27.894C107.524 27.922 107.687 27.936 107.892 27.936H108.739V28.909C108.646 28.9463 108.506 28.979 108.319 29.007C108.137 29.035 107.902 29.049 107.612 29.049C107.076 29.049 106.658 28.9767 106.359 28.832C106.065 28.6873 105.86 28.4797 105.743 28.209C105.631 27.9337 105.575 27.6023 105.575 27.215V22.84H104.399V21.762H105.617L105.988 19.634H107.073V21.755H108.697V22.84ZM112.046 21.762V29H110.604V21.762H112.046ZM112.074 18.885V20.362H110.569V18.885H112.074ZM117.137 29.14C116.46 29.14 115.867 28.9953 115.359 28.706C114.855 28.412 114.463 27.9873 114.183 27.432C113.907 26.8767 113.77 26.2047 113.77 25.416C113.77 24.6553 113.9 23.9903 114.162 23.421C114.428 22.8517 114.813 22.4107 115.317 22.098C115.821 21.7807 116.43 21.622 117.144 21.622C117.825 21.622 118.415 21.7713 118.915 22.07C119.414 22.364 119.801 22.7957 120.077 23.365C120.352 23.9297 120.49 24.6133 120.49 25.416C120.49 26.1487 120.359 26.795 120.098 27.355C119.841 27.915 119.463 28.3537 118.964 28.671C118.469 28.9837 117.86 29.14 117.137 29.14ZM117.144 27.985C117.554 27.985 117.897 27.8777 118.173 27.663C118.453 27.4437 118.663 27.138 118.803 26.746C118.943 26.3493 119.013 25.892 119.013 25.374C119.013 24.8933 118.95 24.457 118.824 24.065C118.702 23.6683 118.504 23.3533 118.229 23.12C117.953 22.8867 117.592 22.77 117.144 22.77C116.724 22.77 116.374 22.8773 116.094 23.092C115.814 23.302 115.601 23.603 115.457 23.995C115.317 24.3823 115.247 24.842 115.247 25.374C115.247 25.8453 115.31 26.2793 115.436 26.676C115.562 27.0727 115.765 27.39 116.045 27.628C116.325 27.866 116.691 27.985 117.144 27.985ZM122.099 29V21.762H123.562V22.805C123.679 22.609 123.835 22.4247 124.031 22.252C124.232 22.0793 124.477 21.9393 124.766 21.832C125.06 21.7247 125.398 21.671 125.781 21.671C126.234 21.671 126.651 21.762 127.034 21.944C127.421 22.1213 127.732 22.4013 127.965 22.784C128.198 23.162 128.315 23.652 128.315 24.254V29H126.817V24.415C126.817 23.897 126.677 23.512 126.397 23.26C126.122 23.008 125.765 22.882 125.326 22.882C125.032 22.882 124.752 22.931 124.486 23.029C124.22 23.127 124.005 23.2763 123.842 23.477C123.679 23.673 123.597 23.9203 123.597 24.219V29H122.099ZM132.777 29.14C132.273 29.14 131.8 29.0607 131.356 28.902C130.918 28.7433 130.549 28.4937 130.25 28.153C129.956 27.8123 129.772 27.376 129.697 26.844H131.034C131.095 27.1193 131.209 27.348 131.377 27.53C131.55 27.7073 131.755 27.8403 131.993 27.929C132.236 28.013 132.495 28.055 132.77 28.055C133.228 28.055 133.596 27.9733 133.876 27.81C134.161 27.642 134.303 27.3853 134.303 27.04C134.303 26.7927 134.226 26.5943 134.072 26.445C133.923 26.2957 133.685 26.186 133.358 26.116L131.916 25.773C131.319 25.633 130.841 25.4113 130.481 25.108C130.122 24.8 129.94 24.3707 129.935 23.82C129.935 23.3953 130.04 23.0173 130.25 22.686C130.465 22.3547 130.782 22.0957 131.202 21.909C131.622 21.7177 132.145 21.622 132.77 21.622C133.587 21.622 134.243 21.804 134.737 22.168C135.232 22.532 135.489 23.0593 135.507 23.75H134.212C134.166 23.4187 134.014 23.1597 133.757 22.973C133.505 22.7817 133.172 22.686 132.756 22.686C132.327 22.686 131.975 22.7723 131.699 22.945C131.424 23.113 131.286 23.372 131.286 23.722C131.286 23.96 131.387 24.149 131.587 24.289C131.788 24.4243 132.089 24.5363 132.49 24.625L133.862 24.968C134.217 25.0613 134.509 25.185 134.737 25.339C134.966 25.4883 135.146 25.654 135.276 25.836C135.407 26.018 135.498 26.207 135.549 26.403C135.605 26.599 135.633 26.7833 135.633 26.956C135.633 27.4133 135.517 27.8053 135.283 28.132C135.055 28.454 134.726 28.7037 134.296 28.881C133.872 29.0537 133.365 29.14 132.777 29.14Z" fill="#1D563D"/>
</svg>
