<svg width="17" height="17" viewBox="0 0 17 17" fill="none" xmlns="http://www.w3.org/2000/svg">
<path d="M4.79167 0.625C4.79167 0.45924 4.72582 0.300269 4.60861 0.183058C4.4914 0.065848 4.33243 0 4.16667 0C4.00091 0 3.84194 0.065848 3.72473 0.183058C3.60751 0.300269 3.54167 0.45924 3.54167 0.625V1.94167C2.34167 2.0375 1.555 2.2725 0.976667 2.85167C0.3975 3.43 0.1625 4.2175 0.0658333 5.41667H16.6008C16.5042 4.21667 16.2692 3.43 15.69 2.85167C15.1117 2.2725 14.3242 2.0375 13.125 1.94083V0.625C13.125 0.45924 13.0592 0.300269 12.9419 0.183058C12.8247 0.065848 12.6658 0 12.5 0C12.3342 0 12.1753 0.065848 12.0581 0.183058C11.9408 0.300269 11.875 0.45924 11.875 0.625V1.88583C11.3208 1.875 10.6992 1.875 10 1.875H6.66667C5.9675 1.875 5.34583 1.875 4.79167 1.88583V0.625Z" fill="url(#paint0_linear_5282_2259)"/>
<path fill-rule="evenodd" clip-rule="evenodd" d="M16.6667 8.54167C16.6667 7.8425 16.6667 7.22083 16.6558 6.66667H0.0108333C9.31323e-09 7.22083 0 7.8425 0 8.54167V10.2083C0 13.3508 -9.93411e-08 14.9225 0.976667 15.8983C1.9525 16.875 3.52417 16.875 6.66667 16.875H10C13.1425 16.875 14.7142 16.875 15.69 15.8983C16.6667 14.9225 16.6667 13.3508 16.6667 10.2083V8.54167ZM10 8.75C9.61323 8.75 9.24229 8.90364 8.9688 9.17714C8.69531 9.45063 8.54167 9.82156 8.54167 10.2083V11.875C8.54167 12.2618 8.69531 12.6327 8.9688 12.9062C9.24229 13.1797 9.61323 13.3333 10 13.3333C10.3868 13.3333 10.7577 13.1797 11.0312 12.9062C11.3047 12.6327 11.4583 12.2618 11.4583 11.875V10.2083C11.4583 9.82156 11.3047 9.45063 11.0312 9.17714C10.7577 8.90364 10.3868 8.75 10 8.75ZM10 10C9.94475 10 9.89176 10.0219 9.85269 10.061C9.81362 10.1001 9.79167 10.1531 9.79167 10.2083V11.875C9.79167 11.9303 9.81362 11.9832 9.85269 12.0223C9.89176 12.0614 9.94475 12.0833 10 12.0833C10.0553 12.0833 10.1082 12.0614 10.1473 12.0223C10.1864 11.9832 10.2083 11.9303 10.2083 11.875V10.2083C10.2083 10.1531 10.1864 10.1001 10.1473 10.061C10.1082 10.0219 10.0553 10 10 10ZM7.3225 8.7975C7.43672 8.84481 7.53434 8.92493 7.60302 9.02772C7.6717 9.13052 7.70835 9.25137 7.70833 9.375V12.7083C7.70833 12.8741 7.64249 13.0331 7.52528 13.1503C7.40806 13.2675 7.24909 13.3333 7.08333 13.3333C6.91757 13.3333 6.7586 13.2675 6.64139 13.1503C6.52418 13.0331 6.45833 12.8741 6.45833 12.7083V10.8833L6.275 11.0667C6.15652 11.1771 5.99982 11.2372 5.8379 11.2343C5.67598 11.2315 5.52149 11.1659 5.40698 11.0514C5.29247 10.9368 5.22688 10.7824 5.22402 10.6204C5.22116 10.4585 5.28127 10.3018 5.39167 10.1833L6.64167 8.93333C6.72901 8.84592 6.84031 8.78637 6.96149 8.76219C7.08267 8.73801 7.2083 8.7503 7.3225 8.7975Z" fill="url(#paint1_linear_5282_2259)"/>
<defs>
<linearGradient id="paint0_linear_5282_2259" x1="8.33333" y1="0" x2="8.33333" y2="16.875" gradientUnits="userSpaceOnUse">
<stop stop-color="#212B36"/>
<stop offset="1" stop-color="#123424"/>
</linearGradient>
<linearGradient id="paint1_linear_5282_2259" x1="8.33333" y1="0" x2="8.33333" y2="16.875" gradientUnits="userSpaceOnUse">
<stop stop-color="#212B36"/>
<stop offset="1" stop-color="#123424"/>
</linearGradient>
</defs>
</svg>
