<svg width="331" height="480" viewBox="0 0 331 480" fill="none" xmlns="http://www.w3.org/2000/svg">
<path d="M475.51 388.124C473.99 408.344 472.048 428.476 468.698 448.545C465.394 469.356 459.604 489.691 451.452 509.111C440.643 534.977 424.195 558.082 403.318 576.725C387.03 591.252 368.915 603.574 349.438 613.376C333.1 621.478 316.386 628.367 297.62 629.471C297.4 629.491 297.203 629.491 296.981 629.491C288.844 628.651 280.789 627.583 272.816 626.288C273.542 626.068 274.249 625.848 274.975 625.606C315.528 612.098 343.264 584.746 359.437 545.658C370.867 519.178 371.808 489.319 362.07 462.167C359.244 454.152 356.708 445.856 350.881 438.041C350.881 441.46 351.057 443.732 350.861 445.97L349.429 487.889C346.841 505.326 340.406 521.962 330.595 536.584C327.569 541.78 323.519 546.302 318.691 549.871C321.953 535.459 324.356 521.991 322.791 507.585C320.319 484.781 312.316 464.314 301.446 444.649C287.53 419.44 269.87 396.592 254.855 372.088C241.357 350.064 230.576 326.987 225.84 301.247C224.179 291.905 224.486 282.317 226.742 273.101C227.156 272.012 227.267 270.83 227.061 269.682C226.856 268.535 226.341 267.466 225.575 266.59C160.572 325.296 144.254 394.925 174.77 476.421C155.214 461.587 144.851 441.499 141.628 416.711C122.338 440.002 111.022 465.653 108.997 494.368C106.577 523.212 115.091 551.91 132.835 574.725C92.1611 550.195 56.188 518.555 26.617 481.301C15.5707 460.241 7.79383 437.61 3.5556 414.192C-0.340246 391.036 -1.0386 367.453 1.48025 344.106C2.72902 330.441 5.60139 316.974 10.0361 303.994C12.6402 296.402 14.3821 288.319 17.1375 280.615C23.9101 260.784 33.1411 241.887 44.6129 224.37C49.198 217.573 52.8771 210.18 58.1247 203.846C59.34 202.408 60.4194 199.868 62.9313 200.842C65.1822 201.701 63.991 204.064 64.1226 205.742C66.595 235.435 75.7498 262.452 96.2489 285.784C95.8321 278.369 94.224 271.909 93.6053 265.28C92.787 256.514 93.7128 247.863 93.6492 239.166C93.3319 227.336 94.6678 215.519 97.6178 204.062C103.66 182.037 110.934 160.575 122.358 140.443C136.68 115.62 155.019 93.365 176.624 74.5906C194.584 58.7894 214.119 44.8899 234.92 33.1125C254.719 22.1516 275.159 12.3999 296.128 3.91074C297.884 3.35761 302.522 2.1638 306.093 0C304.795 2.60779 306.093 0.000122484 303.958 3.62222C289.726 22.0493 281.434 44.3977 280.19 67.6816C278.845 91.7033 281.445 114.967 290.156 137.419C298.065 157.576 307.57 177.065 318.579 195.699C328.741 213.116 339.438 230.277 349.185 247.925C355.953 260.221 362.767 272.515 368.873 285.165C371.944 291.48 373.945 298.6 377.167 304.659C383.185 315.982 383.646 328.665 388.169 340.263C390.46 346.117 387.511 353.09 389.848 359.915C395.203 355.323 397.21 348.701 399.966 343.049C404.046 334.706 408.456 326.448 412.405 318.017C419.934 301.398 425.548 283.972 429.139 266.075C431.113 256.869 433 247.068 430.591 238.17C429.071 232.587 431.96 227.024 428.874 221.967C428.721 221.759 428.62 221.518 428.579 221.263C428.538 221.008 428.558 220.747 428.638 220.501C428.717 220.255 428.854 220.032 429.037 219.85C429.219 219.668 429.442 219.532 429.688 219.454C430.855 219.075 431.629 219.961 432.224 220.776C437.132 226.919 441.71 233.322 445.937 239.957C451.518 249.605 457.36 259.406 460.842 269.89C464.311 279.748 467.204 289.802 469.508 299.999C472.851 316.887 474.967 333.997 475.839 351.194C476.575 363.497 476.463 375.836 475.505 388.124" fill="#FF7E1D"/>
</svg>
