<svg width="392" height="200" viewBox="0 0 392 200" fill="none" xmlns="http://www.w3.org/2000/svg">
<g filter="url(#filter0_dd_2029_48976)">
<g clip-path="url(#clip0_2029_48976)">
<path d="M12 18C12 9.16345 19.1634 2 28 2H364C372.837 2 380 9.16344 380 18V160C380 168.837 372.837 176 364 176H28C19.1634 176 12 168.837 12 160V18Z" fill="url(#paint0_linear_2029_48976)"/>
<path d="M37.225 31.878H38.926V42H37.225V31.878ZM41.1223 42V34.762H42.7883V35.798C42.9003 35.6113 43.0519 35.4317 43.2433 35.259C43.4393 35.0863 43.6796 34.9463 43.9643 34.839C44.2489 34.7317 44.5826 34.678 44.9653 34.678C45.4133 34.678 45.8286 34.7667 46.2113 34.944C46.5986 35.1213 46.9089 35.399 47.1423 35.777C47.3803 36.155 47.4993 36.6427 47.4993 37.24V42H45.7913V37.443C45.7913 36.967 45.6606 36.6147 45.3993 36.386C45.1379 36.1527 44.8089 36.036 44.4123 36.036C44.1416 36.036 43.8849 36.0827 43.6423 36.176C43.3996 36.2647 43.2013 36.4023 43.0473 36.589C42.8979 36.771 42.8233 36.9997 42.8233 37.275V42H41.1223ZM53.0722 35.966H51.4552L51.4622 40.117C51.4622 40.3317 51.4856 40.4903 51.5322 40.593C51.5836 40.691 51.6629 40.7563 51.7702 40.789C51.8822 40.817 52.0316 40.831 52.2182 40.831H53.1072V41.909C53.0139 41.9463 52.8716 41.979 52.6802 42.007C52.4936 42.0397 52.2416 42.056 51.9242 42.056C51.3502 42.056 50.9046 41.9813 50.5872 41.832C50.2746 41.678 50.0576 41.461 49.9362 41.181C49.8149 40.901 49.7542 40.5673 49.7542 40.18V35.966H48.5782V34.762H49.8032L50.2302 32.613H51.4552V34.755H53.0722V35.966ZM55.8714 38.773C55.8667 39.1837 55.932 39.5477 56.0674 39.865C56.2027 40.1823 56.4034 40.432 56.6694 40.614C56.9354 40.7913 57.2644 40.88 57.6564 40.88C58.0577 40.88 58.4054 40.7913 58.6994 40.614C58.998 40.432 59.1964 40.1567 59.2944 39.788H60.8554C60.7714 40.292 60.5707 40.719 60.2534 41.069C59.936 41.419 59.551 41.685 59.0984 41.867C58.6504 42.049 58.1837 42.14 57.6984 42.14C56.9984 42.14 56.3824 41.993 55.8504 41.699C55.323 41.4003 54.91 40.9757 54.6114 40.425C54.3174 39.8743 54.1704 39.2187 54.1704 38.458C54.1704 37.716 54.3057 37.058 54.5764 36.484C54.847 35.9053 55.2367 35.4503 55.7454 35.119C56.2587 34.7877 56.8747 34.622 57.5934 34.622C58.3074 34.622 58.907 34.7737 59.3924 35.077C59.8824 35.3803 60.251 35.805 60.4984 36.351C60.7504 36.8923 60.8764 37.527 60.8764 38.255V38.773H55.8714ZM55.8714 37.716H59.2664C59.2664 37.366 59.2057 37.051 59.0844 36.771C58.963 36.4863 58.7764 36.2623 58.5244 36.099C58.277 35.931 57.9644 35.847 57.5864 35.847C57.213 35.847 56.898 35.938 56.6414 36.12C56.3847 36.302 56.191 36.5377 56.0604 36.827C55.9297 37.1117 55.8667 37.408 55.8714 37.716ZM62.464 42V34.762H64.095V36.33C64.2117 35.9707 64.3774 35.665 64.592 35.413C64.8114 35.1563 65.068 34.9603 65.362 34.825C65.656 34.6897 65.9757 34.622 66.321 34.622C66.405 34.622 66.4867 34.6267 66.566 34.636C66.6454 34.6453 66.7037 34.6617 66.741 34.685V36.316C66.6897 36.2927 66.622 36.2763 66.538 36.267C66.4587 36.2577 66.3887 36.253 66.328 36.253C65.978 36.225 65.6677 36.239 65.397 36.295C65.131 36.351 64.9047 36.4467 64.718 36.582C64.536 36.7127 64.3984 36.8807 64.305 37.086C64.2117 37.2867 64.165 37.5223 64.165 37.793V42H62.464ZM69.2971 38.773C69.2925 39.1837 69.3578 39.5477 69.4931 39.865C69.6285 40.1823 69.8291 40.432 70.0951 40.614C70.3611 40.7913 70.6901 40.88 71.0821 40.88C71.4835 40.88 71.8311 40.7913 72.1251 40.614C72.4238 40.432 72.6221 40.1567 72.7201 39.788H74.2811C74.1971 40.292 73.9965 40.719 73.6791 41.069C73.3618 41.419 72.9768 41.685 72.5241 41.867C72.0761 42.049 71.6095 42.14 71.1241 42.14C70.4241 42.14 69.8081 41.993 69.2761 41.699C68.7488 41.4003 68.3358 40.9757 68.0371 40.425C67.7431 39.8743 67.5961 39.2187 67.5961 38.458C67.5961 37.716 67.7315 37.058 68.0021 36.484C68.2728 35.9053 68.6625 35.4503 69.1711 35.119C69.6845 34.7877 70.3005 34.622 71.0191 34.622C71.7331 34.622 72.3328 34.7737 72.8181 35.077C73.3081 35.3803 73.6768 35.805 73.9241 36.351C74.1761 36.8923 74.3021 37.527 74.3021 38.255V38.773H69.2971ZM69.2971 37.716H72.6921C72.6921 37.366 72.6315 37.051 72.5101 36.771C72.3888 36.4863 72.2021 36.2623 71.9501 36.099C71.7028 35.931 71.3901 35.847 71.0121 35.847C70.6388 35.847 70.3238 35.938 70.0671 36.12C69.8105 36.302 69.6168 36.5377 69.4861 36.827C69.3555 37.1117 69.2925 37.408 69.2971 37.716ZM78.5855 42.14C78.0815 42.14 77.6032 42.0607 77.1505 41.902C76.7025 41.7387 76.3245 41.4843 76.0165 41.139C75.7132 40.7937 75.5218 40.348 75.4425 39.802H76.9405C77.0058 40.068 77.1202 40.285 77.2835 40.453C77.4515 40.621 77.6498 40.7447 77.8785 40.824C78.1072 40.8987 78.3405 40.936 78.5785 40.936C79.0125 40.936 79.3625 40.8613 79.6285 40.712C79.8992 40.5627 80.0345 40.3317 80.0345 40.019C80.0345 39.7903 79.9598 39.6083 79.8105 39.473C79.6612 39.3377 79.4232 39.235 79.0965 39.165L77.7175 38.85C77.1062 38.7147 76.6138 38.4907 76.2405 38.178C75.8718 37.8653 75.6852 37.4243 75.6805 36.855C75.6758 36.4257 75.7832 36.043 76.0025 35.707C76.2218 35.371 76.5485 35.1073 76.9825 34.916C77.4165 34.72 77.9532 34.622 78.5925 34.622C79.4372 34.622 80.1138 34.811 80.6225 35.189C81.1312 35.5623 81.3925 36.0967 81.4065 36.792H79.9575C79.9062 36.4793 79.7592 36.2367 79.5165 36.064C79.2738 35.8867 78.9588 35.798 78.5715 35.798C78.1702 35.798 77.8412 35.875 77.5845 36.029C77.3278 36.183 77.1995 36.4187 77.1995 36.736C77.1995 36.9553 77.2975 37.128 77.4935 37.254C77.6895 37.38 77.9835 37.4873 78.3755 37.576L79.6775 37.891C80.0508 37.9843 80.3565 38.1103 80.5945 38.269C80.8325 38.4277 81.0192 38.6027 81.1545 38.794C81.2898 38.9807 81.3832 39.1743 81.4345 39.375C81.4905 39.571 81.5185 39.753 81.5185 39.921C81.5185 40.3877 81.3972 40.7867 81.1545 41.118C80.9165 41.4447 80.5782 41.6967 80.1395 41.874C79.7008 42.0513 79.1828 42.14 78.5855 42.14ZM87.0742 35.966H85.4572L85.4642 40.117C85.4642 40.3317 85.4875 40.4903 85.5342 40.593C85.5855 40.691 85.6649 40.7563 85.7722 40.789C85.8842 40.817 86.0335 40.831 86.2202 40.831H87.1092V41.909C87.0159 41.9463 86.8735 41.979 86.6822 42.007C86.4955 42.0397 86.2435 42.056 85.9262 42.056C85.3522 42.056 84.9065 41.9813 84.5892 41.832C84.2765 41.678 84.0595 41.461 83.9382 41.181C83.8169 40.901 83.7562 40.5673 83.7562 40.18V35.966H82.5802V34.762H83.8052L84.2322 32.613H85.4572V34.755H87.0742V35.966Z" fill="#1D563D"/>
<path d="M36.492 68.86H41.568C42.664 68.86 43.464 68.644 43.968 68.212C44.48 67.772 44.736 67.084 44.736 66.148C44.736 65.236 44.476 64.568 43.956 64.144C43.444 63.72 42.704 63.508 41.736 63.508H36.492V61.648H42.3C44.372 61.648 45.984 62.048 47.136 62.848C48.288 63.648 48.864 64.784 48.864 66.256C48.864 67.04 48.716 67.732 48.42 68.332C48.124 68.924 47.732 69.42 47.244 69.82C46.756 70.22 46.224 70.528 45.648 70.744C45.52 70.784 45.492 70.9 45.564 71.092L48.792 79H44.472L41.772 71.392H36.492V68.86ZM50.82 61.636V63.364L36.516 63.376V61.648L50.82 61.636ZM50.82 65.236V66.964L36.516 66.976V65.248L50.82 65.236ZM55.5499 79V66.004H52.4539V64.024C53.4459 64.024 54.2459 63.932 54.8539 63.748C55.4699 63.556 55.9299 63.284 56.2339 62.932C56.5379 62.572 56.7179 62.144 56.7739 61.648H59.1019V79H55.5499ZM62.8155 82.36L64.2075 79.096L62.9835 78.988V75.592H66.5235V78.58L64.1115 82.36H62.8155ZM71.2118 61.648H82.3598L82.2278 64.516H73.9838L73.6478 68.704C74.2878 68.344 74.8958 68.084 75.4718 67.924C76.0558 67.764 76.6958 67.684 77.3918 67.684C78.5518 67.684 79.5878 67.904 80.4998 68.344C81.4198 68.776 82.1478 69.412 82.6838 70.252C83.2198 71.092 83.4878 72.116 83.4878 73.324C83.4878 74.548 83.2118 75.604 82.6598 76.492C82.1078 77.38 81.3238 78.064 80.3078 78.544C79.2998 79.024 78.1038 79.264 76.7198 79.264C75.5838 79.264 74.5278 79.088 73.5518 78.736C72.5758 78.384 71.7318 77.904 71.0198 77.296C70.3078 76.68 69.7678 75.976 69.3998 75.184L72.1358 73.564C72.4478 74.108 72.7998 74.6 73.1918 75.04C73.5838 75.472 74.0358 75.816 74.5478 76.072C75.0678 76.32 75.6718 76.444 76.3598 76.444C77.3998 76.444 78.2358 76.168 78.8678 75.616C79.4998 75.064 79.8158 74.344 79.8158 73.456C79.8158 72.896 79.6718 72.396 79.3838 71.956C79.1038 71.508 78.7158 71.156 78.2198 70.9C77.7238 70.644 77.1438 70.516 76.4798 70.516C76.1278 70.516 75.7918 70.548 75.4718 70.612C75.1598 70.668 74.8398 70.78 74.5117 70.948C74.1918 71.108 73.8358 71.34 73.4438 71.644C73.3318 71.692 73.2518 71.716 73.2038 71.716C73.1638 71.716 73.0838 71.688 72.9638 71.632L70.4198 70.456L71.2118 61.648ZM92.2911 61.408C94.3551 61.408 95.9831 62.18 97.1751 63.724C98.3671 65.26 98.9631 67.472 98.9631 70.36C98.9631 73.232 98.3751 75.436 97.1991 76.972C96.0231 78.5 94.3871 79.264 92.2911 79.264C90.1871 79.264 88.5431 78.5 87.3591 76.972C86.1831 75.444 85.5951 73.244 85.5951 70.372C85.5951 68.452 85.8671 66.824 86.4111 65.488C86.9551 64.152 87.7271 63.14 88.7271 62.452C89.7271 61.756 90.9151 61.408 92.2911 61.408ZM92.2911 76.396C93.3231 76.396 94.0791 75.936 94.5591 75.016C95.0391 74.088 95.2791 72.54 95.2791 70.372C95.2791 68.156 95.0351 66.568 94.5471 65.608C94.0591 64.648 93.3031 64.168 92.2791 64.168C91.2551 64.168 90.4911 64.652 89.9871 65.62C89.4911 66.588 89.2431 68.172 89.2431 70.372C89.2431 72.532 89.4911 74.076 89.9871 75.004C90.4831 75.932 91.2511 76.396 92.2911 76.396ZM101.136 82.36L102.528 79.096L101.304 78.988V75.592H104.844V78.58L102.432 82.36H101.136ZM114.416 61.408C116.48 61.408 118.108 62.18 119.3 63.724C120.492 65.26 121.088 67.472 121.088 70.36C121.088 73.232 120.5 75.436 119.324 76.972C118.148 78.5 116.512 79.264 114.416 79.264C112.312 79.264 110.668 78.5 109.484 76.972C108.308 75.444 107.72 73.244 107.72 70.372C107.72 68.452 107.992 66.824 108.536 65.488C109.08 64.152 109.852 63.14 110.852 62.452C111.852 61.756 113.04 61.408 114.416 61.408ZM114.416 76.396C115.448 76.396 116.204 75.936 116.684 75.016C117.164 74.088 117.404 72.54 117.404 70.372C117.404 68.156 117.16 66.568 116.672 65.608C116.184 64.648 115.428 64.168 114.404 64.168C113.38 64.168 112.616 64.652 112.112 65.62C111.616 66.588 111.368 68.172 111.368 70.372C111.368 72.532 111.616 74.076 112.112 75.004C112.608 75.932 113.376 76.396 114.416 76.396ZM129.815 61.408C131.879 61.408 133.507 62.18 134.699 63.724C135.891 65.26 136.487 67.472 136.487 70.36C136.487 73.232 135.899 75.436 134.723 76.972C133.547 78.5 131.911 79.264 129.815 79.264C127.711 79.264 126.067 78.5 124.883 76.972C123.707 75.444 123.119 73.244 123.119 70.372C123.119 68.452 123.391 66.824 123.935 65.488C124.479 64.152 125.251 63.14 126.251 62.452C127.251 61.756 128.439 61.408 129.815 61.408ZM129.815 76.396C130.847 76.396 131.603 75.936 132.083 75.016C132.563 74.088 132.803 72.54 132.803 70.372C132.803 68.156 132.559 66.568 132.071 65.608C131.583 64.648 130.827 64.168 129.803 64.168C128.779 64.168 128.015 64.652 127.511 65.62C127.015 66.588 126.767 68.172 126.767 70.372C126.767 72.532 127.015 74.076 127.511 75.004C128.007 75.932 128.775 76.396 129.815 76.396ZM145.213 61.408C147.277 61.408 148.905 62.18 150.097 63.724C151.289 65.26 151.885 67.472 151.885 70.36C151.885 73.232 151.297 75.436 150.121 76.972C148.945 78.5 147.309 79.264 145.213 79.264C143.109 79.264 141.465 78.5 140.281 76.972C139.105 75.444 138.517 73.244 138.517 70.372C138.517 68.452 138.789 66.824 139.333 65.488C139.877 64.152 140.649 63.14 141.649 62.452C142.649 61.756 143.837 61.408 145.213 61.408ZM145.213 76.396C146.245 76.396 147.001 75.936 147.481 75.016C147.961 74.088 148.201 72.54 148.201 70.372C148.201 68.156 147.957 66.568 147.469 65.608C146.981 64.648 146.225 64.168 145.201 64.168C144.177 64.168 143.413 64.652 142.909 65.62C142.413 66.588 142.165 68.172 142.165 70.372C142.165 72.532 142.413 74.076 142.909 75.004C143.405 75.932 144.173 76.396 145.213 76.396Z" fill="#1D563D"/>
<rect x="36" y="104" width="20" height="20" rx="6" fill="url(#paint1_linear_2029_48976)"/>
<path d="M43.2993 109.66C43.6882 109.66 44.0382 109.765 44.3493 109.975C44.6604 110.181 44.9054 110.465 45.0843 110.827C45.2632 111.188 45.3526 111.604 45.3526 112.075C45.3526 112.542 45.2632 112.954 45.0843 113.312C44.9093 113.669 44.6662 113.951 44.3551 114.157C44.044 114.36 43.692 114.461 43.2993 114.461C42.9026 114.461 42.5468 114.36 42.2318 114.157C41.9207 113.951 41.6737 113.669 41.4909 113.312C41.312 112.954 41.2226 112.542 41.2226 112.075C41.2226 111.604 41.314 111.188 41.4968 110.827C41.6795 110.465 41.9265 110.181 42.2376 109.975C42.5526 109.765 42.9065 109.66 43.2993 109.66ZM43.2876 113.708C43.622 113.708 43.8729 113.562 44.0401 113.271C44.2073 112.975 44.2909 112.577 44.2909 112.075C44.2909 111.562 44.2054 111.155 44.0343 110.856C43.867 110.552 43.6182 110.401 43.2876 110.401C43.0698 110.401 42.8851 110.471 42.7334 110.611C42.5857 110.747 42.4729 110.941 42.3951 111.194C42.3173 111.443 42.2784 111.737 42.2784 112.075C42.2784 112.573 42.364 112.969 42.5351 113.265C42.7062 113.56 42.957 113.708 43.2876 113.708ZM48.7184 113.527C49.1112 113.527 49.4632 113.632 49.7743 113.842C50.0854 114.052 50.3304 114.34 50.5093 114.706C50.6882 115.067 50.7776 115.48 50.7776 115.942C50.7776 116.413 50.6882 116.829 50.5093 117.191C50.3343 117.549 50.0912 117.83 49.7801 118.037C49.469 118.239 49.1151 118.34 48.7184 118.34C48.3218 118.34 47.9659 118.239 47.6509 118.037C47.3359 117.83 47.089 117.549 46.9101 117.191C46.7312 116.829 46.6418 116.413 46.6418 115.942C46.6418 115.48 46.7312 115.067 46.9101 114.706C47.0929 114.34 47.3418 114.052 47.6568 113.842C47.9718 113.632 48.3257 113.527 48.7184 113.527ZM48.7068 117.582C48.9245 117.582 49.1073 117.514 49.2551 117.377C49.4068 117.241 49.5195 117.053 49.5934 116.812C49.6712 116.567 49.7101 116.281 49.7101 115.954C49.7101 115.62 49.6712 115.328 49.5934 115.079C49.5157 114.826 49.4009 114.63 49.2493 114.49C49.1015 114.35 48.9207 114.28 48.7068 114.28C48.4929 114.28 48.312 114.352 48.1643 114.496C48.0165 114.636 47.9018 114.832 47.8201 115.085C47.7423 115.334 47.7034 115.624 47.7034 115.954C47.7034 116.281 47.7423 116.567 47.8201 116.812C47.8979 117.053 48.0107 117.241 48.1584 117.377C48.3062 117.514 48.489 117.582 48.7068 117.582ZM49.2026 109.695L43.5326 118.27L42.6518 118.258L48.3451 109.695H49.2026Z" fill="white"/>
<path d="M67.968 109.324L64.938 118H63.246L60.252 109.324H61.662L64.092 116.314L66.558 109.324H67.968ZM70.2149 118.12C69.8189 118.12 69.4629 118.048 69.1469 117.904C68.8349 117.756 68.5889 117.546 68.4089 117.274C68.2329 116.998 68.1449 116.664 68.1449 116.272C68.1449 115.588 68.3909 115.072 68.8829 114.724C69.3789 114.376 70.1689 114.194 71.2529 114.178L72.1769 114.154V113.734C72.1769 113.406 72.0789 113.15 71.8829 112.966C71.6909 112.778 71.3909 112.686 70.9829 112.69C70.6829 112.694 70.4069 112.766 70.1549 112.906C69.9069 113.042 69.7429 113.272 69.6629 113.596H68.4209C68.4449 113.172 68.5669 112.818 68.7869 112.534C69.0109 112.246 69.3169 112.032 69.7049 111.892C70.0929 111.748 70.5409 111.676 71.0489 111.676C71.6409 111.676 72.1229 111.754 72.4949 111.91C72.8669 112.066 73.1409 112.292 73.3169 112.588C73.4929 112.88 73.5809 113.234 73.5809 113.65V118H72.3509L72.2369 116.884C72.0129 117.352 71.7289 117.676 71.3849 117.856C71.0449 118.032 70.6549 118.12 70.2149 118.12ZM70.6889 117.13C70.8689 117.13 71.0469 117.098 71.2229 117.034C71.3989 116.966 71.5589 116.876 71.7029 116.764C71.8469 116.648 71.9609 116.52 72.0449 116.38C72.1329 116.24 72.1769 116.094 72.1769 115.942V114.964L71.4149 114.976C71.0389 114.98 70.7109 115.02 70.4309 115.096C70.1509 115.172 69.9309 115.294 69.7709 115.462C69.6149 115.626 69.5369 115.846 69.5369 116.122C69.5369 116.438 69.6469 116.686 69.8669 116.866C70.0869 117.042 70.3609 117.13 70.6889 117.13ZM75.2889 118V111.796H76.6869V113.14C76.7869 112.832 76.9289 112.57 77.1129 112.354C77.3009 112.134 77.5209 111.966 77.7729 111.85C78.0249 111.734 78.2989 111.676 78.5949 111.676C78.6669 111.676 78.7369 111.68 78.8049 111.688C78.8729 111.696 78.9229 111.71 78.9549 111.73V113.128C78.9109 113.108 78.8529 113.094 78.7809 113.086C78.7129 113.078 78.6529 113.074 78.6009 113.074C78.3009 113.05 78.0349 113.062 77.8029 113.11C77.5749 113.158 77.3809 113.24 77.2209 113.356C77.0649 113.468 76.9469 113.612 76.8669 113.788C76.7869 113.96 76.7469 114.162 76.7469 114.394V118H75.2889ZM81.5762 111.796V118H80.1722V111.796H81.5762ZM81.5942 109.33V110.71H80.1482V109.33H81.5942ZM84.4857 115.234C84.4817 115.586 84.5377 115.898 84.6537 116.17C84.7697 116.442 84.9417 116.656 85.1697 116.812C85.3977 116.964 85.6797 117.04 86.0157 117.04C86.3597 117.04 86.6577 116.964 86.9097 116.812C87.1657 116.656 87.3357 116.42 87.4197 116.104H88.7577C88.6857 116.536 88.5137 116.902 88.2417 117.202C87.9697 117.502 87.6397 117.73 87.2517 117.886C86.8677 118.042 86.4677 118.12 86.0517 118.12C85.4517 118.12 84.9237 117.994 84.4677 117.742C84.0157 117.486 83.6617 117.122 83.4057 116.65C83.1537 116.178 83.0277 115.616 83.0277 114.964C83.0277 114.328 83.1437 113.764 83.3757 113.272C83.6077 112.776 83.9417 112.386 84.3777 112.102C84.8177 111.818 85.3457 111.676 85.9617 111.676C86.5737 111.676 87.0877 111.806 87.5037 112.066C87.9237 112.326 88.2397 112.69 88.4517 113.158C88.6677 113.622 88.7757 114.166 88.7757 114.79V115.234H84.4857ZM84.4857 114.328H87.3957C87.3957 114.028 87.3437 113.758 87.2397 113.518C87.1357 113.274 86.9757 113.082 86.7597 112.942C86.5477 112.798 86.2797 112.726 85.9557 112.726C85.6357 112.726 85.3657 112.804 85.1457 112.96C84.9257 113.116 84.7597 113.318 84.6477 113.566C84.5357 113.81 84.4817 114.064 84.4857 114.328ZM92.4106 118.12C91.5906 118.12 90.9466 117.838 90.4786 117.274C90.0106 116.71 89.7766 115.908 89.7766 114.868C89.7766 114.22 89.8706 113.658 90.0586 113.182C90.2506 112.702 90.5306 112.332 90.8986 112.072C91.2706 111.808 91.7306 111.676 92.2786 111.676C92.5346 111.676 92.7666 111.708 92.9746 111.772C93.1866 111.832 93.3746 111.912 93.5386 112.012C93.7026 112.112 93.8406 112.222 93.9526 112.342C94.0686 112.462 94.1586 112.582 94.2226 112.702V109.084H95.6866V118H94.6066L94.4446 116.728C94.3966 116.876 94.3246 117.032 94.2286 117.196C94.1366 117.356 94.0106 117.506 93.8506 117.646C93.6946 117.786 93.4986 117.9 93.2626 117.988C93.0266 118.076 92.7426 118.12 92.4106 118.12ZM92.7106 117.046C93.2346 117.046 93.6166 116.876 93.8566 116.536C94.1006 116.192 94.2226 115.624 94.2226 114.832C94.2186 114.38 94.1626 114 94.0546 113.692C93.9506 113.384 93.7886 113.152 93.5686 112.996C93.3526 112.84 93.0726 112.762 92.7286 112.762C92.2886 112.762 91.9266 112.924 91.6426 113.248C91.3586 113.572 91.2166 114.1 91.2166 114.832C91.2166 115.56 91.3466 116.112 91.6066 116.488C91.8666 116.86 92.2346 117.046 92.7106 117.046ZM100.214 109.324H101.672V118H100.214V109.324ZM103.555 118V111.796H104.983V112.684C105.079 112.524 105.209 112.37 105.373 112.222C105.541 112.074 105.747 111.954 105.991 111.862C106.235 111.77 106.521 111.724 106.849 111.724C107.233 111.724 107.589 111.8 107.917 111.952C108.249 112.104 108.515 112.342 108.715 112.666C108.919 112.99 109.021 113.408 109.021 113.92V118H107.557V114.094C107.557 113.686 107.445 113.384 107.221 113.188C106.997 112.988 106.715 112.888 106.375 112.888C106.143 112.888 105.923 112.928 105.715 113.008C105.507 113.084 105.337 113.202 105.205 113.362C105.077 113.518 105.013 113.714 105.013 113.95V118H103.555ZM113.797 112.828H112.411L112.417 116.386C112.417 116.57 112.437 116.706 112.477 116.794C112.521 116.878 112.589 116.934 112.681 116.962C112.777 116.986 112.905 116.998 113.065 116.998H113.827V117.922C113.747 117.954 113.625 117.982 113.461 118.006C113.301 118.034 113.085 118.048 112.813 118.048C112.321 118.048 111.939 117.984 111.667 117.856C111.399 117.724 111.213 117.538 111.109 117.298C111.005 117.058 110.953 116.772 110.953 116.44V112.828H109.945V111.796H110.995L111.361 109.954H112.411V111.79H113.797V112.828ZM116.197 115.234C116.193 115.586 116.249 115.898 116.365 116.17C116.481 116.442 116.653 116.656 116.881 116.812C117.109 116.964 117.391 117.04 117.727 117.04C118.071 117.04 118.369 116.964 118.621 116.812C118.877 116.656 119.047 116.42 119.131 116.104H120.469C120.397 116.536 120.225 116.902 119.953 117.202C119.681 117.502 119.351 117.73 118.963 117.886C118.579 118.042 118.179 118.12 117.763 118.12C117.163 118.12 116.635 117.994 116.179 117.742C115.727 117.486 115.373 117.122 115.117 116.65C114.865 116.178 114.739 115.616 114.739 114.964C114.739 114.328 114.855 113.764 115.087 113.272C115.319 112.776 115.653 112.386 116.089 112.102C116.529 111.818 117.057 111.676 117.673 111.676C118.285 111.676 118.799 111.806 119.215 112.066C119.635 112.326 119.951 112.69 120.163 113.158C120.379 113.622 120.487 114.166 120.487 114.79V115.234H116.197ZM116.197 114.328H119.107C119.107 114.028 119.055 113.758 118.951 113.518C118.847 113.274 118.687 113.082 118.471 112.942C118.259 112.798 117.991 112.726 117.667 112.726C117.347 112.726 117.077 112.804 116.857 112.96C116.637 113.116 116.471 113.318 116.359 113.566C116.247 113.81 116.193 114.064 116.197 114.328ZM121.848 118V111.796H123.246V113.14C123.346 112.832 123.488 112.57 123.672 112.354C123.86 112.134 124.08 111.966 124.332 111.85C124.584 111.734 124.858 111.676 125.154 111.676C125.226 111.676 125.296 111.68 125.364 111.688C125.432 111.696 125.482 111.71 125.514 111.73V113.128C125.47 113.108 125.412 113.094 125.34 113.086C125.272 113.078 125.212 113.074 125.16 113.074C124.86 113.05 124.594 113.062 124.362 113.11C124.134 113.158 123.94 113.24 123.78 113.356C123.624 113.468 123.506 113.612 123.426 113.788C123.346 113.96 123.306 114.162 123.306 114.394V118H121.848ZM127.704 115.234C127.7 115.586 127.756 115.898 127.872 116.17C127.988 116.442 128.16 116.656 128.388 116.812C128.616 116.964 128.898 117.04 129.234 117.04C129.578 117.04 129.876 116.964 130.128 116.812C130.384 116.656 130.554 116.42 130.638 116.104H131.976C131.904 116.536 131.732 116.902 131.46 117.202C131.188 117.502 130.858 117.73 130.47 117.886C130.086 118.042 129.686 118.12 129.27 118.12C128.67 118.12 128.142 117.994 127.686 117.742C127.234 117.486 126.88 117.122 126.624 116.65C126.372 116.178 126.246 115.616 126.246 114.964C126.246 114.328 126.362 113.764 126.594 113.272C126.826 112.776 127.16 112.386 127.596 112.102C128.036 111.818 128.564 111.676 129.18 111.676C129.792 111.676 130.306 111.806 130.722 112.066C131.142 112.326 131.458 112.69 131.67 113.158C131.886 113.622 131.994 114.166 131.994 114.79V115.234H127.704ZM127.704 114.328H130.614C130.614 114.028 130.562 113.758 130.458 113.518C130.354 113.274 130.194 113.082 129.978 112.942C129.766 112.798 129.498 112.726 129.174 112.726C128.854 112.726 128.584 112.804 128.364 112.96C128.144 113.116 127.978 113.318 127.866 113.566C127.754 113.81 127.7 114.064 127.704 114.328ZM135.666 118.12C135.234 118.12 134.824 118.052 134.436 117.916C134.052 117.776 133.728 117.558 133.464 117.262C133.204 116.966 133.04 116.584 132.972 116.116H134.256C134.312 116.344 134.41 116.53 134.55 116.674C134.694 116.818 134.864 116.924 135.06 116.992C135.256 117.056 135.456 117.088 135.66 117.088C136.032 117.088 136.332 117.024 136.56 116.896C136.792 116.768 136.908 116.57 136.908 116.302C136.908 116.106 136.844 115.95 136.716 115.834C136.588 115.718 136.384 115.63 136.104 115.57L134.922 115.3C134.398 115.184 133.976 114.992 133.656 114.724C133.34 114.456 133.18 114.078 133.176 113.59C133.172 113.222 133.264 112.894 133.452 112.606C133.64 112.318 133.92 112.092 134.292 111.928C134.664 111.76 135.124 111.676 135.672 111.676C136.396 111.676 136.976 111.838 137.412 112.162C137.848 112.482 138.072 112.94 138.084 113.536H136.842C136.798 113.268 136.672 113.06 136.464 112.912C136.256 112.76 135.986 112.684 135.654 112.684C135.31 112.684 135.028 112.75 134.808 112.882C134.588 113.014 134.478 113.216 134.478 113.488C134.478 113.676 134.562 113.824 134.73 113.932C134.898 114.04 135.15 114.132 135.486 114.208L136.602 114.478C136.922 114.558 137.184 114.666 137.388 114.802C137.592 114.938 137.752 115.088 137.868 115.252C137.984 115.412 138.064 115.578 138.108 115.75C138.156 115.918 138.18 116.074 138.18 116.218C138.18 116.618 138.076 116.96 137.868 117.244C137.664 117.524 137.374 117.74 136.998 117.892C136.622 118.044 136.178 118.12 135.666 118.12ZM142.942 112.828H141.556L141.562 116.386C141.562 116.57 141.582 116.706 141.622 116.794C141.666 116.878 141.734 116.934 141.826 116.962C141.922 116.986 142.05 116.998 142.21 116.998H142.972V117.922C142.892 117.954 142.77 117.982 142.606 118.006C142.446 118.034 142.23 118.048 141.958 118.048C141.466 118.048 141.084 117.984 140.812 117.856C140.544 117.724 140.358 117.538 140.254 117.298C140.15 117.058 140.098 116.772 140.098 116.44V112.828H139.09V111.796H140.14L140.506 109.954H141.556V111.79H142.942V112.828Z" fill="#1D563D"/>
<path d="M152 109C151.011 109 150.044 109.293 149.222 109.843C148.4 110.392 147.759 111.173 147.381 112.087C147.002 113 146.903 114.006 147.096 114.975C147.289 115.945 147.765 116.836 148.464 117.536C149.164 118.235 150.055 118.711 151.025 118.904C151.994 119.097 153 118.998 153.913 118.619C154.827 118.241 155.608 117.6 156.157 116.778C156.707 115.956 157 114.989 157 114C157 113.343 156.871 112.693 156.619 112.087C156.368 111.48 156 110.929 155.536 110.464C155.071 110 154.52 109.632 153.913 109.381C153.307 109.129 152.657 109 152 109ZM152 118C151.209 118 150.436 117.765 149.778 117.326C149.12 116.886 148.607 116.262 148.304 115.531C148.002 114.8 147.923 113.996 148.077 113.22C148.231 112.444 148.612 111.731 149.172 111.172C149.731 110.612 150.444 110.231 151.22 110.077C151.996 109.923 152.8 110.002 153.531 110.304C154.262 110.607 154.886 111.12 155.326 111.778C155.765 112.436 156 113.209 156 114C156 115.061 155.579 116.078 154.828 116.828C154.078 117.579 153.061 118 152 118Z" fill="#1D563D"/>
<path d="M152 112.5C152.276 112.5 152.5 112.276 152.5 112C152.5 111.724 152.276 111.5 152 111.5C151.724 111.5 151.5 111.724 151.5 112C151.5 112.276 151.724 112.5 152 112.5Z" fill="#1D563D"/>
<path d="M152 113C151.867 113 151.74 113.053 151.646 113.146C151.553 113.24 151.5 113.367 151.5 113.5V116C151.5 116.133 151.553 116.26 151.646 116.354C151.74 116.447 151.867 116.5 152 116.5C152.133 116.5 152.26 116.447 152.354 116.354C152.447 116.26 152.5 116.133 152.5 116V113.5C152.5 113.367 152.447 113.24 152.354 113.146C152.26 113.053 152.133 113 152 113Z" fill="#1D563D"/>
<path d="M61.416 135.324H66.702L66.66 136.41H62.478L62.274 139.02C62.57 138.78 62.882 138.608 63.21 138.504C63.538 138.396 63.894 138.342 64.278 138.342C64.818 138.342 65.31 138.45 65.754 138.666C66.202 138.882 66.56 139.2 66.828 139.62C67.096 140.036 67.23 140.55 67.23 141.162C67.23 141.766 67.098 142.29 66.834 142.734C66.57 143.178 66.196 143.522 65.712 143.766C65.232 144.01 64.666 144.132 64.014 144.132C63.47 144.132 62.966 144.04 62.502 143.856C62.038 143.668 61.638 143.412 61.302 143.088C60.97 142.76 60.724 142.382 60.564 141.954L61.638 141.444C61.782 141.756 61.96 142.036 62.172 142.284C62.384 142.528 62.634 142.72 62.922 142.86C63.21 142.996 63.54 143.064 63.912 143.064C64.5 143.064 64.974 142.898 65.334 142.566C65.694 142.23 65.874 141.776 65.874 141.204C65.874 140.848 65.79 140.536 65.622 140.268C65.454 140 65.228 139.792 64.944 139.644C64.66 139.492 64.342 139.416 63.99 139.416C63.77 139.416 63.564 139.436 63.372 139.476C63.18 139.512 62.988 139.586 62.796 139.698C62.608 139.806 62.408 139.968 62.196 140.184C62.164 140.2 62.14 140.208 62.124 140.208C62.112 140.208 62.086 140.198 62.046 140.178L61.02 139.806L61.416 135.324ZM68.3387 145.554L69.0167 144.03L68.4707 143.994V142.566H69.9587V143.814L68.8907 145.554H68.3387ZM71.7768 144V143.274V142.89C71.7768 142.45 71.8588 142.068 72.0228 141.744C72.1908 141.42 72.4108 141.138 72.6828 140.898C72.9548 140.654 73.2528 140.438 73.5768 140.25C73.9048 140.062 74.2308 139.882 74.5548 139.71C74.8788 139.538 75.1768 139.36 75.4488 139.176C75.7208 138.988 75.9388 138.778 76.1028 138.546C76.2708 138.31 76.3548 138.034 76.3548 137.718C76.3548 137.302 76.2088 136.964 75.9168 136.704C75.6248 136.444 75.2288 136.314 74.7288 136.314C74.1968 136.314 73.7648 136.464 73.4328 136.764C73.1008 137.064 72.9088 137.478 72.8568 138.006H71.5968C71.6088 137.49 71.7348 137.02 71.9748 136.596C72.2148 136.172 72.5688 135.834 73.0368 135.582C73.5048 135.33 74.0848 135.204 74.7768 135.204C75.3768 135.204 75.8948 135.31 76.3308 135.522C76.7708 135.73 77.1108 136.022 77.3508 136.398C77.5908 136.774 77.7108 137.212 77.7108 137.712C77.7108 138.156 77.6288 138.538 77.4648 138.858C77.3008 139.178 77.0848 139.454 76.8168 139.686C76.5528 139.918 76.2608 140.124 75.9408 140.304C75.6208 140.48 75.3008 140.65 74.9808 140.814C74.6608 140.974 74.3668 141.144 74.0988 141.324C73.8308 141.5 73.6148 141.7 73.4508 141.924C73.2868 142.148 73.2048 142.418 73.2048 142.734V142.884H77.7408V144H71.7768ZM82.0601 135.204C83.0241 135.204 83.7901 135.584 84.3581 136.344C84.9301 137.1 85.2161 138.212 85.2161 139.68C85.2161 141.14 84.9321 142.248 84.3641 143.004C83.8001 143.756 83.0301 144.132 82.0541 144.132C81.0741 144.132 80.3021 143.758 79.7381 143.01C79.1741 142.258 78.8921 141.152 78.8921 139.692C78.8921 138.712 79.0221 137.89 79.2821 137.226C79.5421 136.558 79.9081 136.054 80.3801 135.714C80.8561 135.374 81.4161 135.204 82.0601 135.204ZM82.0601 143.04C82.6521 143.04 83.0961 142.78 83.3921 142.26C83.6881 141.736 83.8361 140.878 83.8361 139.686C83.8361 138.47 83.6861 137.596 83.3861 137.064C83.0861 136.528 82.6421 136.26 82.0541 136.26C81.4701 136.26 81.0241 136.53 80.7161 137.07C80.4081 137.606 80.2541 138.478 80.2541 139.686C80.2541 140.874 80.4061 141.73 80.7101 142.254C81.0181 142.778 81.4681 143.04 82.0601 143.04ZM89.4429 135.204C90.4069 135.204 91.1729 135.584 91.7409 136.344C92.3129 137.1 92.5989 138.212 92.5989 139.68C92.5989 141.14 92.3149 142.248 91.7469 143.004C91.1829 143.756 90.4129 144.132 89.4369 144.132C88.4569 144.132 87.6849 143.758 87.1209 143.01C86.5569 142.258 86.2749 141.152 86.2749 139.692C86.2749 138.712 86.4049 137.89 86.6649 137.226C86.9249 136.558 87.2909 136.054 87.7629 135.714C88.2389 135.374 88.7989 135.204 89.4429 135.204ZM89.4429 143.04C90.0349 143.04 90.4789 142.78 90.7749 142.26C91.0709 141.736 91.2189 140.878 91.2189 139.686C91.2189 138.47 91.0689 137.596 90.7689 137.064C90.4689 136.528 90.0249 136.26 89.4369 136.26C88.8529 136.26 88.4069 136.53 88.0989 137.07C87.7909 137.606 87.6369 138.478 87.6369 139.686C87.6369 140.874 87.7889 141.73 88.0929 142.254C88.4009 142.778 88.8509 143.04 89.4429 143.04ZM103.602 144.414C103.27 144.678 102.862 144.894 102.378 145.062C101.898 145.234 101.368 145.32 100.788 145.32C100.076 145.32 99.4382 145.206 98.8742 144.978C98.3142 144.75 97.8382 144.436 97.4462 144.036C97.0542 143.636 96.7562 143.172 96.5522 142.644C96.3482 142.116 96.2462 141.55 96.2462 140.946C96.2462 140.314 96.3562 139.718 96.5762 139.158C96.8002 138.594 97.1202 138.096 97.5362 137.664C97.9562 137.232 98.4562 136.892 99.0362 136.644C99.6202 136.396 100.27 136.272 100.986 136.272C101.502 136.272 102.006 136.346 102.498 136.494C102.994 136.638 103.442 136.862 103.842 137.166C104.242 137.466 104.56 137.854 104.796 138.33C105.032 138.802 105.15 139.368 105.15 140.028C105.15 140.624 105.052 141.15 104.856 141.606C104.66 142.058 104.39 142.412 104.046 142.668C103.702 142.924 103.31 143.052 102.87 143.052C102.55 143.052 102.306 142.998 102.138 142.89C101.97 142.778 101.854 142.632 101.79 142.452C101.766 142.404 101.746 142.38 101.73 142.38C101.714 142.38 101.686 142.402 101.646 142.446C101.474 142.666 101.256 142.85 100.992 142.998C100.728 143.146 100.414 143.22 100.05 143.22C99.7422 143.22 99.4582 143.136 99.1982 142.968C98.9382 142.796 98.7302 142.556 98.5742 142.248C98.4222 141.936 98.3482 141.57 98.3522 141.15C98.3522 140.662 98.4482 140.212 98.6402 139.8C98.8322 139.388 99.1002 139.06 99.4442 138.816C99.7922 138.568 100.194 138.444 100.65 138.444C100.974 138.444 101.242 138.508 101.454 138.636C101.666 138.764 101.838 138.93 101.97 139.134C101.986 139.15 102.002 139.156 102.018 139.152C102.038 139.144 102.05 139.124 102.054 139.092L102.144 138.744H102.972L102.528 141.384C102.472 141.708 102.484 141.932 102.564 142.056C102.644 142.176 102.772 142.236 102.948 142.236C103.18 142.236 103.394 142.154 103.59 141.99C103.79 141.822 103.952 141.58 104.076 141.264C104.204 140.944 104.268 140.556 104.268 140.1C104.268 139.54 104.172 139.068 103.98 138.684C103.792 138.296 103.54 137.984 103.224 137.748C102.908 137.508 102.554 137.334 102.162 137.226C101.774 137.118 101.38 137.064 100.98 137.064C100.348 137.064 99.7922 137.168 99.3122 137.376C98.8362 137.58 98.4362 137.862 98.1122 138.222C97.7922 138.578 97.5502 138.99 97.3862 139.458C97.2222 139.926 97.1402 140.422 97.1402 140.946C97.1402 141.47 97.2242 141.954 97.3922 142.398C97.5602 142.838 97.8062 143.22 98.1302 143.544C98.4582 143.868 98.8582 144.118 99.3302 144.294C99.8062 144.47 100.35 144.558 100.962 144.558C101.322 144.558 101.626 144.524 101.874 144.456C102.126 144.388 102.35 144.298 102.546 144.186C102.746 144.074 102.946 143.95 103.146 143.814L103.602 144.414ZM99.3542 141.072C99.3542 141.448 99.4322 141.756 99.5882 141.996C99.7442 142.236 99.9702 142.356 100.266 142.356C100.51 142.356 100.734 142.284 100.938 142.14C101.146 141.996 101.318 141.806 101.454 141.57C101.59 141.334 101.672 141.078 101.7 140.802C101.74 140.482 101.718 140.212 101.634 139.992C101.55 139.768 101.426 139.598 101.262 139.482C101.098 139.362 100.916 139.302 100.716 139.302C100.452 139.302 100.216 139.382 100.008 139.542C99.8042 139.702 99.6442 139.916 99.5282 140.184C99.4122 140.448 99.3542 140.744 99.3542 141.072ZM110.483 144V137.208H108.839V136.41C109.351 136.41 109.753 136.37 110.045 136.29C110.341 136.206 110.553 136.084 110.681 135.924C110.813 135.76 110.887 135.56 110.903 135.324H111.797V144H110.483ZM117.156 135.204C117.724 135.204 118.232 135.298 118.68 135.486C119.128 135.67 119.482 135.94 119.742 136.296C120.002 136.648 120.132 137.08 120.132 137.592C120.132 138.056 120.006 138.448 119.754 138.768C119.506 139.084 119.186 139.326 118.794 139.494C119.082 139.55 119.356 139.684 119.616 139.896C119.88 140.108 120.096 140.368 120.264 140.676C120.436 140.98 120.522 141.3 120.522 141.636C120.522 142.14 120.382 142.58 120.102 142.956C119.826 143.328 119.436 143.618 118.932 143.826C118.428 144.03 117.836 144.132 117.156 144.132C116.484 144.132 115.896 144.03 115.392 143.826C114.888 143.618 114.496 143.328 114.216 142.956C113.94 142.58 113.802 142.14 113.802 141.636C113.802 141.3 113.886 140.98 114.054 140.676C114.222 140.368 114.438 140.108 114.702 139.896C114.966 139.684 115.24 139.55 115.524 139.494C115.14 139.326 114.82 139.084 114.564 138.768C114.308 138.448 114.18 138.056 114.18 137.592C114.18 137.08 114.31 136.648 114.57 136.296C114.834 135.94 115.19 135.67 115.638 135.486C116.09 135.298 116.596 135.204 117.156 135.204ZM117.156 138.966C117.652 138.966 118.054 138.842 118.362 138.594C118.674 138.346 118.83 138.002 118.83 137.562C118.83 137.118 118.674 136.768 118.362 136.512C118.05 136.256 117.648 136.128 117.156 136.128C116.668 136.128 116.268 136.258 115.956 136.518C115.644 136.774 115.488 137.122 115.488 137.562C115.488 138.002 115.644 138.346 115.956 138.594C116.268 138.842 116.668 138.966 117.156 138.966ZM117.156 143.118C117.764 143.118 118.246 142.982 118.602 142.71C118.962 142.434 119.142 142.07 119.142 141.618C119.142 141.318 119.06 141.052 118.896 140.82C118.736 140.584 118.508 140.4 118.212 140.268C117.916 140.132 117.564 140.064 117.156 140.064C116.756 140.064 116.408 140.132 116.112 140.268C115.816 140.4 115.586 140.584 115.422 140.82C115.262 141.052 115.182 141.318 115.182 141.618C115.182 142.07 115.36 142.434 115.716 142.71C116.076 142.982 116.556 143.118 117.156 143.118ZM123.802 135.192C124.198 135.192 124.552 135.296 124.864 135.504C125.18 135.712 125.428 136.004 125.608 136.38C125.788 136.752 125.878 137.184 125.878 137.676C125.878 138.168 125.788 138.598 125.608 138.966C125.432 139.334 125.186 139.622 124.87 139.83C124.558 140.034 124.202 140.136 123.802 140.136C123.402 140.136 123.044 140.034 122.728 139.83C122.412 139.622 122.162 139.334 121.978 138.966C121.798 138.598 121.708 138.168 121.708 137.676C121.708 137.184 121.8 136.752 121.984 136.38C122.168 136.004 122.418 135.712 122.734 135.504C123.05 135.296 123.406 135.192 123.802 135.192ZM123.79 139.44C124.158 139.44 124.436 139.28 124.624 138.96C124.812 138.64 124.906 138.212 124.906 137.676C124.906 137.132 124.81 136.698 124.618 136.374C124.426 136.046 124.15 135.882 123.79 135.882C123.55 135.882 123.348 135.958 123.184 136.11C123.02 136.258 122.894 136.468 122.806 136.74C122.718 137.008 122.674 137.32 122.674 137.676C122.674 138.208 122.77 138.636 122.962 138.96C123.154 139.28 123.43 139.44 123.79 139.44ZM129.304 139.164C129.704 139.164 130.06 139.27 130.372 139.482C130.688 139.694 130.936 139.986 131.116 140.358C131.296 140.73 131.386 141.16 131.386 141.648C131.386 142.144 131.296 142.578 131.116 142.95C130.94 143.318 130.694 143.606 130.378 143.814C130.066 144.018 129.708 144.12 129.304 144.12C128.904 144.12 128.544 144.018 128.224 143.814C127.908 143.606 127.66 143.318 127.48 142.95C127.3 142.578 127.21 142.144 127.21 141.648C127.21 141.16 127.3 140.73 127.48 140.358C127.664 139.986 127.914 139.694 128.23 139.482C128.55 139.27 128.908 139.164 129.304 139.164ZM129.292 143.412C129.528 143.412 129.73 143.338 129.898 143.19C130.066 143.042 130.194 142.838 130.282 142.578C130.37 142.314 130.414 142.008 130.414 141.66C130.414 141.304 130.368 140.992 130.276 140.724C130.188 140.456 130.06 140.246 129.892 140.094C129.728 139.942 129.528 139.866 129.292 139.866C129.06 139.866 128.86 139.942 128.692 140.094C128.528 140.246 128.402 140.458 128.314 140.73C128.226 140.998 128.182 141.308 128.182 141.66C128.182 142.008 128.226 142.314 128.314 142.578C128.402 142.838 128.528 143.042 128.692 143.19C128.86 143.338 129.06 143.412 129.292 143.412ZM129.802 135.228L123.97 144.048L123.142 144.036L128.998 135.228H129.802ZM139.537 145.932H138.565L138.559 134.088H139.537V145.932Z" fill="#1D563D"/>
<path d="M149.256 139.336H152.496C153.317 139.336 153.92 139.181 154.304 138.872C154.693 138.563 154.888 138.064 154.888 137.376C154.888 136.747 154.704 136.283 154.336 135.984C153.968 135.68 153.427 135.528 152.712 135.528H149.256V134.432H153.008C154.331 134.432 155.36 134.691 156.096 135.208C156.832 135.725 157.2 136.467 157.2 137.432C157.2 137.981 157.093 138.453 156.88 138.848C156.672 139.243 156.4 139.571 156.064 139.832C155.733 140.088 155.379 140.283 155 140.416C154.92 140.443 154.901 140.512 154.944 140.624L157.08 146H154.672L152.808 140.792H149.256V139.336ZM158.496 134.424V135.448L149.272 135.456V134.432L158.496 134.424ZM158.496 136.84V137.872L149.272 137.88V136.848L158.496 136.84ZM161.715 146V137.088H159.571V135.928C160.249 135.928 160.785 135.872 161.179 135.76C161.579 135.643 161.87 135.472 162.051 135.248C162.238 135.024 162.345 134.752 162.371 134.432H163.699V146H161.715ZM170.611 134.272C171.933 134.272 172.979 134.781 173.747 135.8C174.52 136.813 174.907 138.293 174.907 140.24C174.907 142.176 174.523 143.651 173.755 144.664C172.992 145.672 171.941 146.176 170.603 146.176C169.264 146.176 168.211 145.672 167.443 144.664C166.68 143.656 166.299 142.187 166.299 140.256C166.299 138.955 166.475 137.861 166.827 136.976C167.179 136.085 167.677 135.413 168.323 134.96C168.968 134.501 169.731 134.272 170.611 134.272ZM170.611 144.552C171.363 144.552 171.923 144.219 172.291 143.552C172.659 142.885 172.843 141.784 172.843 140.248C172.843 138.68 172.656 137.555 172.283 136.872C171.909 136.189 171.349 135.848 170.603 135.848C169.856 135.848 169.291 136.192 168.907 136.88C168.528 137.568 168.339 138.691 168.339 140.248C168.339 141.779 168.528 142.88 168.907 143.552C169.291 144.219 169.859 144.552 170.611 144.552ZM176.369 148.136L177.281 146.048L176.521 145.992V143.952H178.649V145.736L177.153 148.136H176.369ZM184.861 134.272C186.183 134.272 187.229 134.781 187.997 135.8C188.77 136.813 189.157 138.293 189.157 140.24C189.157 142.176 188.773 143.651 188.005 144.664C187.242 145.672 186.191 146.176 184.853 146.176C183.514 146.176 182.461 145.672 181.693 144.664C180.93 143.656 180.549 142.187 180.549 140.256C180.549 138.955 180.725 137.861 181.077 136.976C181.429 136.085 181.927 135.413 182.573 134.96C183.218 134.501 183.981 134.272 184.861 134.272ZM184.861 144.552C185.613 144.552 186.173 144.219 186.541 143.552C186.909 142.885 187.093 141.784 187.093 140.248C187.093 138.68 186.906 137.555 186.533 136.872C186.159 136.189 185.599 135.848 184.853 135.848C184.106 135.848 183.541 136.192 183.157 136.88C182.778 137.568 182.589 138.691 182.589 140.248C182.589 141.779 182.778 142.88 183.157 143.552C183.541 144.219 184.109 144.552 184.861 144.552ZM194.861 134.272C196.183 134.272 197.229 134.781 197.997 135.8C198.77 136.813 199.157 138.293 199.157 140.24C199.157 142.176 198.773 143.651 198.005 144.664C197.242 145.672 196.191 146.176 194.853 146.176C193.514 146.176 192.461 145.672 191.693 144.664C190.93 143.656 190.549 142.187 190.549 140.256C190.549 138.955 190.725 137.861 191.077 136.976C191.429 136.085 191.927 135.413 192.573 134.96C193.218 134.501 193.981 134.272 194.861 134.272ZM194.861 144.552C195.613 144.552 196.173 144.219 196.541 143.552C196.909 142.885 197.093 141.784 197.093 140.248C197.093 138.68 196.906 137.555 196.533 136.872C196.159 136.189 195.599 135.848 194.853 135.848C194.106 135.848 193.541 136.192 193.157 136.88C192.778 137.568 192.589 138.691 192.589 140.248C192.589 141.779 192.778 142.88 193.157 143.552C193.541 144.219 194.109 144.552 194.861 144.552ZM204.861 134.272C206.183 134.272 207.229 134.781 207.997 135.8C208.77 136.813 209.157 138.293 209.157 140.24C209.157 142.176 208.773 143.651 208.005 144.664C207.242 145.672 206.191 146.176 204.853 146.176C203.514 146.176 202.461 145.672 201.693 144.664C200.93 143.656 200.549 142.187 200.549 140.256C200.549 138.955 200.725 137.861 201.077 136.976C201.429 136.085 201.927 135.413 202.573 134.96C203.218 134.501 203.981 134.272 204.861 134.272ZM204.861 144.552C205.613 144.552 206.173 144.219 206.541 143.552C206.909 142.885 207.093 141.784 207.093 140.248C207.093 138.68 206.906 137.555 206.533 136.872C206.159 136.189 205.599 135.848 204.853 135.848C204.106 135.848 203.541 136.192 203.157 136.88C202.778 137.568 202.589 138.691 202.589 140.248C202.589 141.779 202.778 142.88 203.157 143.552C203.541 144.219 204.109 144.552 204.861 144.552Z" fill="#1D563D"/>
<g clip-path="url(#clip1_2029_48976)">
<g opacity="0.1">
<path d="M344.535 132.866C345.629 132.866 346.515 131.679 346.515 130.214C346.515 128.75 345.629 127.563 344.535 127.563C343.441 127.563 342.555 128.75 342.555 130.214C342.555 131.679 343.441 132.866 344.535 132.866Z" fill="black"/>
<path d="M346.11 118.871C346.387 118.378 346.53 117.818 346.524 117.25C346.524 115.785 345.64 114.598 344.542 114.598C343.445 114.598 342.562 115.785 342.562 117.25C342.556 117.818 342.699 118.378 342.975 118.871C342.704 119.366 342.562 119.924 342.562 120.491C342.562 121.059 342.704 121.616 342.975 122.112C342.704 122.607 342.562 123.165 342.562 123.732C342.562 124.299 342.704 124.857 342.975 125.353C342.699 125.845 342.556 126.404 342.562 126.972C342.562 128.438 343.446 129.625 344.542 129.625C345.639 129.625 346.524 128.438 346.524 126.972C346.53 126.404 346.387 125.845 346.11 125.353C346.382 124.858 346.524 124.3 346.524 123.732C346.524 123.165 346.382 122.607 346.11 122.112C346.382 121.617 346.524 121.059 346.524 120.491C346.524 119.924 346.382 119.366 346.11 118.871Z" fill="black"/>
<path d="M344.535 116.661C345.629 116.661 346.515 115.473 346.515 114.009C346.515 112.544 345.629 111.357 344.535 111.357C343.441 111.357 342.555 112.544 342.555 114.009C342.555 115.473 343.441 116.661 344.535 116.661Z" fill="black"/>
<path d="M344.535 113.421C345.629 113.421 346.515 112.233 346.515 110.769C346.515 109.304 345.629 108.117 344.535 108.117C343.441 108.117 342.555 109.304 342.555 110.769C342.555 112.233 343.441 113.421 344.535 113.421Z" fill="black"/>
<path d="M337.122 88.5879C336.851 88.2357 336.605 87.8647 336.385 87.4775L341.591 86.6037L335.961 86.6474C335.422 85.4463 335.127 84.1456 335.096 82.8245C335.065 81.5035 335.298 80.1897 335.779 78.9635L343.328 82.9727L336.363 77.7296C337.016 76.5781 337.894 75.5764 338.942 74.7867C339.99 73.9971 341.186 73.4365 342.456 73.1397C343.725 72.8429 345.04 72.8164 346.32 73.0617C347.599 73.307 348.816 73.8189 349.894 74.5656C350.972 75.3123 351.888 76.2778 352.585 77.4021C353.282 78.5263 353.746 79.7852 353.947 81.1005C354.148 82.4157 354.082 83.7592 353.753 85.0473C353.424 86.3354 352.84 87.5406 352.036 88.5879C352.458 89.1356 352.821 89.7281 353.118 90.3552L346.361 93.947L353.566 91.4746C354.072 93.0038 354.197 94.6378 353.93 96.2288C353.663 97.8199 353.012 99.3177 352.036 100.587C353.137 102.018 353.822 103.737 354.012 105.547C354.203 107.358 353.891 109.187 353.113 110.824C352.335 112.462 351.122 113.843 349.613 114.809C348.103 115.775 346.358 116.288 344.578 116.288C342.797 116.288 341.052 115.775 339.543 114.809C338.033 113.843 336.82 112.462 336.042 110.824C335.264 109.187 334.952 107.358 335.143 105.547C335.333 103.737 336.018 102.018 337.119 100.587C335.803 98.8763 335.088 96.7634 335.088 94.5874C335.088 92.4113 335.803 90.2984 337.119 88.5879H337.122Z" fill="black"/>
<path opacity="0.1" d="M354.067 94.5872C354.07 96.7637 353.355 98.8776 352.036 100.587C353.137 102.018 353.822 103.737 354.013 105.547C354.203 107.358 353.891 109.186 353.113 110.824C352.335 112.462 351.122 113.843 349.613 114.809C348.103 115.775 346.358 116.288 344.578 116.288C342.797 116.288 341.052 115.775 339.543 114.809C338.033 113.843 336.82 112.462 336.042 110.824C335.264 109.186 334.952 107.358 335.143 105.547C335.333 103.737 336.018 102.018 337.119 100.587C335.847 98.9429 354.067 93.4979 354.067 94.5872Z" fill="black"/>
</g>
<g opacity="0.1">
<path d="M382.792 116.445C383.162 115.785 383.352 115.036 383.345 114.275C383.345 112.317 382.166 110.727 380.692 110.727C379.219 110.727 378.04 112.317 378.04 114.275C378.032 115.036 378.224 115.785 378.594 116.445C378.231 117.108 378.04 117.854 378.04 118.614C378.04 119.373 378.231 120.12 378.594 120.783C378.231 121.445 378.04 122.191 378.04 122.951C378.04 123.71 378.231 124.456 378.594 125.119C378.224 125.778 378.032 126.527 378.04 127.288C378.04 129.247 379.228 130.836 380.692 130.836C382.157 130.836 383.345 129.247 383.345 127.288C383.352 126.528 383.162 125.779 382.792 125.119C383.155 124.456 383.345 123.71 383.345 122.951C383.345 122.192 383.155 121.445 382.792 120.783C383.155 120.12 383.345 119.373 383.345 118.614C383.345 117.854 383.155 117.108 382.792 116.445Z" fill="black"/>
<path d="M369.927 75.9212C369.565 75.45 369.235 74.9536 368.94 74.4356L375.905 73.2665L368.373 73.3237C367.65 71.7158 367.256 69.974 367.214 68.2049C367.172 66.4359 367.484 64.6766 368.13 63.0349L378.238 68.3955L368.915 61.3897C369.786 59.842 370.96 58.4946 372.363 57.4317C373.766 56.3688 375.369 55.6133 377.071 55.2123C378.772 54.8113 380.537 54.7735 382.253 55.1012C383.97 55.4289 385.602 56.115 387.048 57.1168C388.493 58.1186 389.722 59.4145 390.655 60.9235C391.589 62.4325 392.208 64.1221 392.474 65.8869C392.741 67.6517 392.648 69.4536 392.202 71.1801C391.757 72.9066 390.968 74.5206 389.884 75.9212C390.448 76.6553 390.934 77.4493 391.331 78.2896L382.29 83.0928L391.931 79.7782C392.608 81.8243 392.776 84.0109 392.418 86.1399C392.061 88.2689 391.19 90.2732 389.884 91.9714C391.358 93.8866 392.274 96.1871 392.529 98.6097C392.783 101.032 392.366 103.479 391.325 105.671C390.284 107.863 388.661 109.711 386.641 111.004C384.621 112.297 382.286 112.982 379.903 112.982C377.52 112.982 375.185 112.297 373.165 111.004C371.145 109.711 369.522 107.863 368.48 105.671C367.439 103.479 367.022 101.032 367.277 98.6097C367.532 96.1871 368.448 93.8866 369.921 91.9714C368.161 89.6824 367.204 86.8551 367.204 83.9433C367.204 81.0315 368.161 78.2041 369.921 75.9151L369.927 75.9212Z" fill="black"/>
<path opacity="0.1" d="M393.451 83.9504C393.455 86.8627 392.498 89.6912 390.734 91.9777C392.207 93.893 393.123 96.1934 393.378 98.6161C393.633 101.039 393.216 103.486 392.175 105.678C391.133 107.869 389.51 109.717 387.49 111.01C385.47 112.303 383.135 112.989 380.752 112.989C378.369 112.989 376.034 112.303 374.014 111.01C371.994 109.717 370.371 107.869 369.33 105.678C368.289 103.486 367.872 101.039 368.126 98.6161C368.381 96.1934 369.298 93.893 370.771 91.9777C369.069 89.769 393.451 82.4919 393.451 83.9504Z" fill="black"/>
</g>
<path d="M328.288 102.322C324.197 102.322 320.974 100.729 318.617 97.543C316.26 94.3569 315.082 90.4972 315.082 85.9639C315.082 81.4 316.221 77.5482 318.501 74.4084C320.78 71.2686 323.995 69.7002 328.146 69.7034C332.548 69.7034 335.865 71.3576 338.096 74.666C340.327 77.9744 341.443 81.8035 341.444 86.1533C341.444 90.4717 340.289 94.2467 337.98 97.4783C335.67 100.71 332.439 102.324 328.288 102.322ZM328.407 98.738C331.098 98.738 333.11 97.5873 334.441 95.2857C335.772 92.9842 336.438 90.0828 336.438 86.5814C336.438 82.6841 335.757 79.4929 334.394 77.0079C333.032 74.5229 330.942 73.28 328.125 73.2792C322.77 73.2792 320.093 77.4525 320.093 85.7992C320.093 94.4259 322.864 98.7388 328.405 98.738H328.407ZM329.755 133.06H323.839L362.569 70.3421H368.374L329.755 133.06ZM364.019 133.703C359.867 133.703 356.63 132.096 354.308 128.881C351.987 125.666 350.821 121.806 350.812 117.3C350.812 112.767 351.943 108.931 354.207 105.791C356.47 102.651 359.693 101.083 363.876 101.086C368.247 101.086 371.54 102.74 373.756 106.048C375.973 109.357 377.081 113.186 377.082 117.535C377.082 121.825 375.935 125.593 373.64 128.838C371.346 132.084 368.138 133.706 364.016 133.703H364.019ZM364.088 130.028C366.766 130.028 368.767 128.896 370.089 126.634C371.412 124.372 372.073 121.482 372.073 117.965C372.073 114.201 371.404 111.044 370.065 108.495C368.727 105.946 366.64 104.669 363.806 104.665C358.421 104.665 355.728 108.839 355.728 117.185C355.728 125.748 358.514 130.028 364.086 130.028H364.088Z" fill="url(#paint2_linear_2029_48976)"/>
<path d="M480.42 134.855C480.42 135.89 473.02 136.836 460.786 137.567C458.561 137.698 456.177 137.823 453.648 137.941C451.463 138.041 449.174 138.136 446.779 138.225C444.458 138.31 442.049 138.388 439.551 138.46C431.662 138.691 422.94 138.857 413.675 138.94C411.426 138.961 409.148 138.977 406.839 138.988C404.435 138.999 402.002 139.004 399.543 139.003C354.875 139.003 318.667 137.148 318.667 134.86C318.667 132.571 354.875 130.716 399.543 130.716C418.773 130.716 436.433 131.061 450.314 131.634L451.831 131.697H451.84C469.325 132.455 480.42 133.595 480.42 134.855Z" fill="url(#paint3_linear_2029_48976)"/>
<path opacity="0.15" d="M480.42 134.855C480.42 135.89 473.02 136.836 460.786 137.567C458.561 137.698 456.177 137.823 453.648 137.941C451.463 138.041 449.174 138.136 446.779 138.225C444.458 138.31 442.049 138.388 439.551 138.46C431.662 138.691 422.94 138.857 413.675 138.94C411.426 138.961 409.148 138.977 406.839 138.988C404.435 138.999 402.002 139.004 399.543 139.003C354.875 139.003 318.667 137.148 318.667 134.86C318.667 132.571 354.875 130.716 399.543 130.716C418.773 130.716 436.433 131.061 450.314 131.634L451.831 131.697H451.84C469.325 132.455 480.42 133.595 480.42 134.855Z" fill="black"/>
<path d="M473.753 134.126C473.753 134.99 466.353 135.783 454.119 136.386C451.895 136.495 449.51 136.599 446.983 136.697C444.797 136.782 442.507 136.861 440.113 136.935C437.793 137.006 435.384 137.072 432.886 137.133C424.995 137.326 416.273 137.464 407.008 137.534C404.761 137.551 402.483 137.564 400.173 137.573C397.768 137.582 395.336 137.586 392.877 137.586C348.21 137.586 312 136.036 312 134.121C312 132.206 348.21 130.656 392.877 130.656C412.106 130.656 429.766 130.944 443.647 131.423L445.164 131.475H445.175C462.665 132.119 473.753 133.066 473.753 134.126Z" fill="url(#paint4_linear_2029_48976)"/>
<path d="M328.198 132.158C327.591 131.007 328.281 129.597 329.073 128.57C329.866 127.542 330.833 126.475 330.812 125.166C330.783 123.287 328.832 122.177 327.276 121.18C326.118 120.44 325.051 119.563 324.096 118.567C323.696 118.183 323.365 117.73 323.119 117.229C322.796 116.494 322.807 115.658 322.824 114.853C322.892 112.169 323.022 109.49 323.213 106.814" stroke="url(#paint5_linear_2029_48976)" stroke-width="0.604236" stroke-miterlimit="10"/>
<path d="M320.248 106.666C320.27 106.175 320.413 105.698 320.663 105.278C320.913 104.859 321.262 104.51 321.678 104.265L322.321 105.564L322.302 103.991C322.608 103.899 322.927 103.86 323.246 103.875C323.813 103.902 324.359 104.1 324.815 104.444C325.271 104.789 325.617 105.264 325.81 105.809C326.002 106.355 326.032 106.946 325.895 107.509C325.759 108.072 325.462 108.581 325.043 108.971C324.623 109.362 324.1 109.616 323.539 109.702C322.979 109.789 322.405 109.703 321.892 109.457C321.379 109.21 320.949 108.813 320.656 108.317C320.363 107.82 320.221 107.246 320.248 106.666Z" fill="url(#paint6_linear_2029_48976)"/>
<path d="M325.361 126.515C325.662 127.112 326.155 127.586 326.757 127.856C327.359 128.127 328.033 128.177 328.667 128C329.302 127.822 329.857 127.427 330.239 126.88C330.622 126.334 330.81 125.669 330.77 124.998C330.731 124.327 330.467 123.69 330.023 123.194C329.579 122.699 328.982 122.374 328.332 122.275C327.681 122.176 327.017 122.309 326.451 122.651C325.885 122.993 325.452 123.523 325.223 124.154L327.015 125.644L325.04 125.174C325.041 125.64 325.151 126.1 325.361 126.515Z" fill="url(#paint7_linear_2029_48976)"/>
<path d="M326.777 120.818C327.154 120.836 327.53 120.778 327.884 120.647C328.238 120.517 328.564 120.316 328.842 120.057C329.121 119.798 329.346 119.485 329.507 119.136C329.667 118.788 329.758 118.411 329.776 118.026C329.798 117.567 329.713 117.109 329.528 116.689C329.357 116.298 329.104 115.949 328.787 115.668C328.47 115.388 328.096 115.181 327.692 115.064L327.709 116.269L327.059 114.955C326.299 114.919 325.556 115.193 324.994 115.716C324.432 116.24 324.096 116.97 324.06 117.747C324.025 118.524 324.292 119.283 324.804 119.858C325.316 120.433 326.031 120.777 326.791 120.813L326.777 120.818Z" fill="url(#paint8_linear_2029_48976)"/>
<path d="M319.816 116.082C320.197 116.108 320.579 116.056 320.94 115.929C321.3 115.802 321.633 115.603 321.917 115.344C322.202 115.084 322.433 114.769 322.597 114.416C322.761 114.064 322.855 113.682 322.872 113.293C322.89 112.903 322.832 112.514 322.701 112.147C322.57 111.781 322.368 111.445 322.109 111.159C321.849 110.873 321.537 110.643 321.189 110.483C320.841 110.322 320.466 110.234 320.085 110.223C319.551 110.198 319.022 110.327 318.557 110.595L319.064 112.014L318.013 110.996C317.454 111.517 317.12 112.243 317.083 113.015C317.07 113.286 317.095 113.558 317.157 113.822C317.299 114.444 317.636 115 318.116 115.408C318.596 115.816 319.193 116.053 319.816 116.082Z" fill="url(#paint9_linear_2029_48976)"/>
<path opacity="0.1" d="M320.635 107.448C321.296 107.522 321.939 107.732 322.603 107.775C323.268 107.817 323.997 107.654 324.417 107.125C324.644 106.842 324.756 106.482 324.948 106.172C325.128 105.883 325.377 105.644 325.67 105.477C325.854 105.849 325.958 106.256 325.976 106.672C325.994 107.088 325.925 107.504 325.774 107.891C325.623 108.277 325.392 108.627 325.099 108.915C324.805 109.204 324.454 109.425 324.07 109.565C323.687 109.704 323.278 109.758 322.872 109.723C322.466 109.689 322.072 109.566 321.716 109.363C321.36 109.16 321.051 108.882 320.808 108.548C320.565 108.213 320.395 107.829 320.309 107.422C320.418 107.428 320.526 107.436 320.635 107.448Z" fill="black"/>
<path opacity="0.1" d="M319.817 116.082C320.311 116.105 320.802 115.997 321.244 115.769C321.685 115.54 322.061 115.199 322.336 114.778C322.61 114.358 322.773 113.871 322.81 113.367C322.846 112.863 322.755 112.357 322.544 111.9C322.317 112.057 322.121 112.258 321.968 112.49C321.763 112.805 321.639 113.17 321.399 113.459C320.957 113.997 320.189 114.172 319.498 114.14C318.807 114.108 318.138 113.906 317.449 113.839C317.353 113.83 317.256 113.824 317.154 113.821C317.297 114.443 317.634 115 318.114 115.408C318.595 115.816 319.193 116.053 319.817 116.082Z" fill="black"/>
<path opacity="0.1" d="M326.777 120.818C327.154 120.836 327.529 120.778 327.884 120.647C328.238 120.517 328.564 120.316 328.842 120.057C329.121 119.798 329.346 119.485 329.507 119.137C329.667 118.788 329.758 118.411 329.776 118.026C329.798 117.567 329.713 117.109 329.528 116.69C329.292 116.851 329.087 117.055 328.923 117.292C328.7 117.613 328.56 117.984 328.299 118.281C327.816 118.831 327.003 119.025 326.27 119.007C325.56 118.992 324.877 118.814 324.171 118.758C324.346 119.334 324.69 119.84 325.156 120.209C325.622 120.577 326.189 120.79 326.777 120.818Z" fill="black"/>
<path opacity="0.1" d="M325.362 126.515C325.695 127.185 326.268 127.699 326.962 127.949C327.656 128.2 328.417 128.168 329.089 127.861C329.76 127.554 330.291 126.994 330.57 126.298C330.849 125.602 330.856 124.823 330.59 124.122C330.354 124.281 330.142 124.474 329.96 124.696C329.688 125.037 329.508 125.422 329.193 125.739C328.603 126.326 327.66 126.569 326.818 126.591C326.331 126.596 325.845 126.57 325.362 126.515Z" fill="black"/>
<path d="M358.238 127.773L360.201 126.593C359.936 126.13 359.596 125.715 359.197 125.365L355.496 126.542L358.396 124.799C357.678 124.397 356.87 124.193 356.051 124.207C355.232 124.221 354.432 124.453 353.727 124.88C353.023 125.307 352.439 125.913 352.034 126.641C351.629 127.368 351.416 128.191 351.416 129.028C351.416 131.69 353.527 131.782 356.131 131.782C358.735 131.782 360.846 131.69 360.846 129.028C360.848 128.353 360.71 127.686 360.441 127.069L358.238 127.773Z" fill="url(#paint10_linear_2029_48976)"/>
<path opacity="0.1" d="M358.738 130.361C358.529 130.147 358.295 129.959 358.042 129.802C357.687 129.56 357.317 129.313 356.897 129.231C356.529 129.159 356.149 129.221 355.773 129.198C355.12 129.157 354.506 128.87 354.05 128.391C353.782 128.107 353.572 127.759 353.249 127.542C352.888 127.323 352.463 127.244 352.049 127.318C351.93 127.335 351.811 127.36 351.694 127.392C351.51 127.917 351.415 128.47 351.416 129.028C351.416 131.69 353.527 131.782 356.131 131.782C357.395 131.782 358.542 131.761 359.389 131.434L359.242 131.164C359.108 130.876 358.938 130.606 358.738 130.361Z" fill="black"/>
</g>
</g>
</g>
<defs>
<filter id="filter0_dd_2029_48976" x="0" y="0" width="392" height="200" filterUnits="userSpaceOnUse" color-interpolation-filters="sRGB">
<feFlood flood-opacity="0" result="BackgroundImageFix"/>
<feColorMatrix in="SourceAlpha" type="matrix" values="0 0 0 0 0 0 0 0 0 0 0 0 0 0 0 0 0 0 127 0" result="hardAlpha"/>
<feMorphology radius="4" operator="erode" in="SourceAlpha" result="effect1_dropShadow_2029_48976"/>
<feOffset dy="12"/>
<feGaussianBlur stdDeviation="8"/>
<feComposite in2="hardAlpha" operator="out"/>
<feColorMatrix type="matrix" values="0 0 0 0 0.568627 0 0 0 0 0.619608 0 0 0 0 0.670588 0 0 0 0.12 0"/>
<feBlend mode="normal" in2="BackgroundImageFix" result="effect1_dropShadow_2029_48976"/>
<feColorMatrix in="SourceAlpha" type="matrix" values="0 0 0 0 0 0 0 0 0 0 0 0 0 0 0 0 0 0 127 0" result="hardAlpha"/>
<feOffset/>
<feGaussianBlur stdDeviation="1"/>
<feComposite in2="hardAlpha" operator="out"/>
<feColorMatrix type="matrix" values="0 0 0 0 0.568627 0 0 0 0 0.619608 0 0 0 0 0.670588 0 0 0 0.2 0"/>
<feBlend mode="normal" in2="effect1_dropShadow_2029_48976" result="effect2_dropShadow_2029_48976"/>
<feBlend mode="normal" in="SourceGraphic" in2="effect2_dropShadow_2029_48976" result="shape"/>
</filter>
<linearGradient id="paint0_linear_2029_48976" x1="196" y1="2" x2="196" y2="176" gradientUnits="userSpaceOnUse">
<stop stop-color="#FFD45A"/>
<stop offset="1" stop-color="#FFAB00"/>
</linearGradient>
<linearGradient id="paint1_linear_2029_48976" x1="36" y1="104" x2="56" y2="124" gradientUnits="userSpaceOnUse">
<stop stop-color="#22C55E"/>
<stop offset="1" stop-color="#118D57"/>
</linearGradient>
<linearGradient id="paint2_linear_2029_48976" x1="315.082" y1="69.7034" x2="379.05" y2="131.672" gradientUnits="userSpaceOnUse">
<stop stop-color="#1D563D"/>
<stop offset="1" stop-color="#11A861"/>
</linearGradient>
<linearGradient id="paint3_linear_2029_48976" x1="318.667" y1="130.716" x2="319.514" y2="147.246" gradientUnits="userSpaceOnUse">
<stop stop-color="#1D563D"/>
<stop offset="1" stop-color="#11A861"/>
</linearGradient>
<linearGradient id="paint4_linear_2029_48976" x1="312" y1="130.656" x2="312.593" y2="144.491" gradientUnits="userSpaceOnUse">
<stop stop-color="#1D563D"/>
<stop offset="1" stop-color="#11A861"/>
</linearGradient>
<linearGradient id="paint5_linear_2029_48976" x1="322.817" y1="106.814" x2="337.36" y2="111.402" gradientUnits="userSpaceOnUse">
<stop stop-color="#1D563D"/>
<stop offset="1" stop-color="#11A861"/>
</linearGradient>
<linearGradient id="paint6_linear_2029_48976" x1="320.245" y1="103.872" x2="326.107" y2="109.605" gradientUnits="userSpaceOnUse">
<stop stop-color="#FF5630"/>
<stop offset="1" stop-color="#B71D18"/>
</linearGradient>
<linearGradient id="paint7_linear_2029_48976" x1="325.04" y1="122.243" x2="330.9" y2="127.977" gradientUnits="userSpaceOnUse">
<stop stop-color="#FF5630"/>
<stop offset="1" stop-color="#B71D18"/>
</linearGradient>
<linearGradient id="paint8_linear_2029_48976" x1="324.057" y1="114.952" x2="329.924" y2="120.673" gradientUnits="userSpaceOnUse">
<stop stop-color="#FF5630"/>
<stop offset="1" stop-color="#B71D18"/>
</linearGradient>
<linearGradient id="paint9_linear_2029_48976" x1="317.08" y1="110.22" x2="322.948" y2="116.015" gradientUnits="userSpaceOnUse">
<stop stop-color="#FF5630"/>
<stop offset="1" stop-color="#B71D18"/>
</linearGradient>
<linearGradient id="paint10_linear_2029_48976" x1="351.416" y1="124.206" x2="358.814" y2="133.415" gradientUnits="userSpaceOnUse">
<stop stop-color="#FF5630"/>
<stop offset="1" stop-color="#B71D18"/>
</linearGradient>
<clipPath id="clip0_2029_48976">
<path d="M12 18C12 9.16345 19.1634 2 28 2H364C372.837 2 380 9.16344 380 18V160C380 168.837 372.837 176 364 176H28C19.1634 176 12 168.837 12 160V18Z" fill="white"/>
</clipPath>
<clipPath id="clip1_2029_48976">
<rect width="168.421" height="100" fill="white" transform="translate(312 39)"/>
</clipPath>
</defs>
</svg>
