<svg width="392" height="200" viewBox="0 0 392 200" fill="none" xmlns="http://www.w3.org/2000/svg">
<g filter="url(#filter0_dd_2046_95793)">
<g clip-path="url(#clip0_2046_95793)">
<path d="M12 18C12 9.16345 19.1634 2 28 2H364C372.837 2 380 9.16344 380 18V160C380 168.837 372.837 176 364 176H28C19.1634 176 12 168.837 12 160V18Z" fill="url(#paint0_linear_2046_95793)"/>
<path d="M41.166 31.738C41.908 31.738 42.566 31.8897 43.14 32.193C43.714 32.4917 44.176 32.8977 44.526 33.411C44.8807 33.9243 45.0907 34.496 45.156 35.126H43.357C43.287 34.7527 43.1563 34.419 42.965 34.125C42.7783 33.831 42.531 33.5977 42.223 33.425C41.915 33.2523 41.5463 33.166 41.117 33.166C40.5803 33.166 40.123 33.2943 39.745 33.551C39.3717 33.803 39.0847 34.2043 38.884 34.755C38.688 35.3057 38.59 36.0197 38.59 36.897C38.59 38.227 38.8093 39.1953 39.248 39.802C39.6867 40.4087 40.3097 40.712 41.117 40.712C41.5463 40.712 41.915 40.6187 42.223 40.432C42.531 40.2407 42.7783 39.9887 42.965 39.676C43.1563 39.3587 43.287 39.0133 43.357 38.64H45.156C45.1 39.0973 44.9833 39.536 44.806 39.956C44.6333 40.376 44.3883 40.7517 44.071 41.083C43.7537 41.4097 43.3547 41.6687 42.874 41.86C42.398 42.0467 41.8287 42.14 41.166 42.14C40.2373 42.14 39.4393 41.9277 38.772 41.503C38.1093 41.0737 37.5983 40.467 37.239 39.683C36.8843 38.8943 36.707 37.9587 36.707 36.876C36.707 35.798 36.8843 34.8763 37.239 34.111C37.5937 33.3457 38.1023 32.76 38.765 32.354C39.4323 31.9433 40.2327 31.738 41.166 31.738ZM49.4834 42.14C49.1288 42.14 48.7858 42.0887 48.4544 41.986C48.1278 41.8787 47.8338 41.7247 47.5724 41.524C47.3111 41.3187 47.1034 41.0667 46.9494 40.768C46.7954 40.4693 46.7184 40.1217 46.7184 39.725V34.762H48.4264V39.529C48.4264 39.921 48.5501 40.243 48.7974 40.495C49.0494 40.747 49.4274 40.873 49.9314 40.873C50.3888 40.873 50.7551 40.754 51.0304 40.516C51.3058 40.2733 51.4434 39.9257 51.4434 39.473V34.762H53.1374V42H51.8284L51.6394 40.586C51.5508 40.9827 51.3944 41.2953 51.1704 41.524C50.9511 41.748 50.6921 41.9067 50.3934 42C50.0994 42.0933 49.7961 42.14 49.4834 42.14ZM55.0265 42V34.762H56.6575V36.33C56.7742 35.9707 56.9399 35.665 57.1545 35.413C57.3739 35.1563 57.6305 34.9603 57.9245 34.825C58.2185 34.6897 58.5382 34.622 58.8835 34.622C58.9675 34.622 59.0492 34.6267 59.1285 34.636C59.2079 34.6453 59.2662 34.6617 59.3035 34.685V36.316C59.2522 36.2927 59.1845 36.2763 59.1005 36.267C59.0212 36.2577 58.9512 36.253 58.8905 36.253C58.5405 36.225 58.2302 36.239 57.9595 36.295C57.6935 36.351 57.4672 36.4467 57.2805 36.582C57.0985 36.7127 56.9609 36.8807 56.8675 37.086C56.7742 37.2867 56.7275 37.5223 56.7275 37.793V42H55.0265ZM60.6047 42V34.762H62.2357V36.33C62.3523 35.9707 62.518 35.665 62.7327 35.413C62.952 35.1563 63.2087 34.9603 63.5027 34.825C63.7967 34.6897 64.1163 34.622 64.4617 34.622C64.5457 34.622 64.6273 34.6267 64.7067 34.636C64.786 34.6453 64.8443 34.6617 64.8817 34.685V36.316C64.8303 36.2927 64.7627 36.2763 64.6787 36.267C64.5993 36.2577 64.5293 36.253 64.4687 36.253C64.1187 36.225 63.8083 36.239 63.5377 36.295C63.2717 36.351 63.0453 36.4467 62.8587 36.582C62.6767 36.7127 62.539 36.8807 62.4457 37.086C62.3523 37.2867 62.3057 37.5223 62.3057 37.793V42H60.6047ZM67.4378 38.773C67.4331 39.1837 67.4984 39.5477 67.6338 39.865C67.7691 40.1823 67.9698 40.432 68.2358 40.614C68.5018 40.7913 68.8308 40.88 69.2228 40.88C69.6241 40.88 69.9718 40.7913 70.2658 40.614C70.5644 40.432 70.7628 40.1567 70.8608 39.788H72.4218C72.3378 40.292 72.1371 40.719 71.8198 41.069C71.5024 41.419 71.1174 41.685 70.6648 41.867C70.2168 42.049 69.7501 42.14 69.2648 42.14C68.5648 42.14 67.9488 41.993 67.4168 41.699C66.8894 41.4003 66.4764 40.9757 66.1778 40.425C65.8838 39.8743 65.7368 39.2187 65.7368 38.458C65.7368 37.716 65.8721 37.058 66.1428 36.484C66.4134 35.9053 66.8031 35.4503 67.3118 35.119C67.8251 34.7877 68.4411 34.622 69.1598 34.622C69.8738 34.622 70.4734 34.7737 70.9588 35.077C71.4488 35.3803 71.8174 35.805 72.0648 36.351C72.3168 36.8923 72.4428 37.527 72.4428 38.255V38.773H67.4378ZM67.4378 37.716H70.8328C70.8328 37.366 70.7721 37.051 70.6508 36.771C70.5294 36.4863 70.3428 36.2623 70.0908 36.099C69.8434 35.931 69.5308 35.847 69.1528 35.847C68.7794 35.847 68.4644 35.938 68.2078 36.12C67.9511 36.302 67.7574 36.5377 67.6268 36.827C67.4961 37.1117 67.4331 37.408 67.4378 37.716ZM74.0305 42V34.762H75.6965V35.798C75.8085 35.6113 75.9601 35.4317 76.1515 35.259C76.3475 35.0863 76.5878 34.9463 76.8725 34.839C77.1571 34.7317 77.4908 34.678 77.8735 34.678C78.3215 34.678 78.7368 34.7667 79.1195 34.944C79.5068 35.1213 79.8171 35.399 80.0505 35.777C80.2885 36.155 80.4075 36.6427 80.4075 37.24V42H78.6995V37.443C78.6995 36.967 78.5688 36.6147 78.3075 36.386C78.0461 36.1527 77.7171 36.036 77.3205 36.036C77.0498 36.036 76.7931 36.0827 76.5505 36.176C76.3078 36.2647 76.1095 36.4023 75.9555 36.589C75.8061 36.771 75.7315 36.9997 75.7315 37.275V42H74.0305ZM85.9804 35.966H84.3634L84.3704 40.117C84.3704 40.3317 84.3938 40.4903 84.4404 40.593C84.4918 40.691 84.5711 40.7563 84.6784 40.789C84.7904 40.817 84.9398 40.831 85.1264 40.831H86.0154V41.909C85.9221 41.9463 85.7798 41.979 85.5884 42.007C85.4018 42.0397 85.1498 42.056 84.8324 42.056C84.2584 42.056 83.8128 41.9813 83.4954 41.832C83.1828 41.678 82.9658 41.461 82.8444 41.181C82.7231 40.901 82.6624 40.5673 82.6624 40.18V35.966H81.4864V34.762H82.7114L83.1384 32.613H84.3634V34.755H85.9804V35.966ZM90.9965 31.878H92.6975V42H90.9965V31.878ZM94.8937 42V34.762H96.5597V35.798C96.6717 35.6113 96.8234 35.4317 97.0147 35.259C97.2107 35.0863 97.4511 34.9463 97.7357 34.839C98.0204 34.7317 98.3541 34.678 98.7367 34.678C99.1847 34.678 99.6001 34.7667 99.9827 34.944C100.37 35.1213 100.68 35.399 100.914 35.777C101.152 36.155 101.271 36.6427 101.271 37.24V42H99.5627V37.443C99.5627 36.967 99.4321 36.6147 99.1707 36.386C98.9094 36.1527 98.5804 36.036 98.1837 36.036C97.9131 36.036 97.6564 36.0827 97.4137 36.176C97.1711 36.2647 96.9727 36.4023 96.8187 36.589C96.6694 36.771 96.5947 36.9997 96.5947 37.275V42H94.8937ZM108.815 34.762L106.148 42H104.804L102.13 34.762H103.691L105.427 39.83H105.518L107.247 34.762H108.815ZM111.092 38.773C111.087 39.1837 111.153 39.5477 111.288 39.865C111.423 40.1823 111.624 40.432 111.89 40.614C112.156 40.7913 112.485 40.88 112.877 40.88C113.278 40.88 113.626 40.7913 113.92 40.614C114.219 40.432 114.417 40.1567 114.515 39.788H116.076C115.992 40.292 115.791 40.719 115.474 41.069C115.157 41.419 114.772 41.685 114.319 41.867C113.871 42.049 113.404 42.14 112.919 42.14C112.219 42.14 111.603 41.993 111.071 41.699C110.544 41.4003 110.131 40.9757 109.832 40.425C109.538 39.8743 109.391 39.2187 109.391 38.458C109.391 37.716 109.526 37.058 109.797 36.484C110.068 35.9053 110.457 35.4503 110.966 35.119C111.479 34.7877 112.095 34.622 112.814 34.622C113.528 34.622 114.128 34.7737 114.613 35.077C115.103 35.3803 115.472 35.805 115.719 36.351C115.971 36.8923 116.097 37.527 116.097 38.255V38.773H111.092ZM111.092 37.716H114.487C114.487 37.366 114.426 37.051 114.305 36.771C114.184 36.4863 113.997 36.2623 113.745 36.099C113.498 35.931 113.185 35.847 112.807 35.847C112.434 35.847 112.119 35.938 111.862 36.12C111.605 36.302 111.412 36.5377 111.281 36.827C111.15 37.1117 111.087 37.408 111.092 37.716ZM120.38 42.14C119.876 42.14 119.398 42.0607 118.945 41.902C118.497 41.7387 118.119 41.4843 117.811 41.139C117.508 40.7937 117.317 40.348 117.237 39.802H118.735C118.801 40.068 118.915 40.285 119.078 40.453C119.246 40.621 119.445 40.7447 119.673 40.824C119.902 40.8987 120.135 40.936 120.373 40.936C120.807 40.936 121.157 40.8613 121.423 40.712C121.694 40.5627 121.829 40.3317 121.829 40.019C121.829 39.7903 121.755 39.6083 121.605 39.473C121.456 39.3377 121.218 39.235 120.891 39.165L119.512 38.85C118.901 38.7147 118.409 38.4907 118.035 38.178C117.667 37.8653 117.48 37.4243 117.475 36.855C117.471 36.4257 117.578 36.043 117.797 35.707C118.017 35.371 118.343 35.1073 118.777 34.916C119.211 34.72 119.748 34.622 120.387 34.622C121.232 34.622 121.909 34.811 122.417 35.189C122.926 35.5623 123.187 36.0967 123.201 36.792H121.752C121.701 36.4793 121.554 36.2367 121.311 36.064C121.069 35.8867 120.754 35.798 120.366 35.798C119.965 35.798 119.636 35.875 119.379 36.029C119.123 36.183 118.994 36.4187 118.994 36.736C118.994 36.9553 119.092 37.128 119.288 37.254C119.484 37.38 119.778 37.4873 120.17 37.576L121.472 37.891C121.846 37.9843 122.151 38.1103 122.389 38.269C122.627 38.4277 122.814 38.6027 122.949 38.794C123.085 38.9807 123.178 39.1743 123.229 39.375C123.285 39.571 123.313 39.753 123.313 39.921C123.313 40.3877 123.192 40.7867 122.949 41.118C122.711 41.4447 122.373 41.6967 121.934 41.874C121.496 42.0513 120.978 42.14 120.38 42.14ZM128.869 35.966H127.252L127.259 40.117C127.259 40.3317 127.282 40.4903 127.329 40.593C127.38 40.691 127.46 40.7563 127.567 40.789C127.679 40.817 127.828 40.831 128.015 40.831H128.904V41.909C128.811 41.9463 128.668 41.979 128.477 42.007C128.29 42.0397 128.038 42.056 127.721 42.056C127.147 42.056 126.701 41.9813 126.384 41.832C126.071 41.678 125.854 41.461 125.733 41.181C125.612 40.901 125.551 40.5673 125.551 40.18V35.966H124.375V34.762H125.6L126.027 32.613H127.252V34.755H128.869V35.966ZM130.536 42V34.762H132.195V35.798C132.405 35.4807 132.69 35.2053 133.049 34.972C133.413 34.7387 133.875 34.622 134.435 34.622C134.692 34.622 134.951 34.6663 135.212 34.755C135.478 34.8437 135.723 34.9743 135.947 35.147C136.176 35.3197 136.358 35.5343 136.493 35.791C136.722 35.4503 137.025 35.1703 137.403 34.951C137.786 34.7317 138.215 34.622 138.691 34.622C138.953 34.622 139.221 34.664 139.496 34.748C139.776 34.832 140.033 34.972 140.266 35.168C140.5 35.364 140.689 35.6323 140.833 35.973C140.978 36.309 141.05 36.7313 141.05 37.24V42H139.349V37.443C139.349 37.0837 139.286 36.8013 139.16 36.596C139.034 36.3907 138.871 36.246 138.67 36.162C138.474 36.0733 138.264 36.029 138.04 36.029C137.84 36.029 137.63 36.0687 137.41 36.148C137.196 36.2273 137.011 36.358 136.857 36.54C136.708 36.722 136.633 36.967 136.633 37.275V42H134.932V37.17C134.932 36.918 134.867 36.708 134.736 36.54C134.606 36.372 134.44 36.246 134.239 36.162C134.043 36.0733 133.843 36.029 133.637 36.029C133.427 36.029 133.213 36.0733 132.993 36.162C132.779 36.2507 132.599 36.386 132.454 36.568C132.31 36.75 132.237 36.9857 132.237 37.275V42H130.536ZM144.219 38.773C144.214 39.1837 144.28 39.5477 144.415 39.865C144.55 40.1823 144.751 40.432 145.017 40.614C145.283 40.7913 145.612 40.88 146.004 40.88C146.405 40.88 146.753 40.7913 147.047 40.614C147.346 40.432 147.544 40.1567 147.642 39.788H149.203C149.119 40.292 148.918 40.719 148.601 41.069C148.284 41.419 147.899 41.685 147.446 41.867C146.998 42.049 146.531 42.14 146.046 42.14C145.346 42.14 144.73 41.993 144.198 41.699C143.671 41.4003 143.258 40.9757 142.959 40.425C142.665 39.8743 142.518 39.2187 142.518 38.458C142.518 37.716 142.653 37.058 142.924 36.484C143.195 35.9053 143.584 35.4503 144.093 35.119C144.606 34.7877 145.222 34.622 145.941 34.622C146.655 34.622 147.255 34.7737 147.74 35.077C148.23 35.3803 148.599 35.805 148.846 36.351C149.098 36.8923 149.224 37.527 149.224 38.255V38.773H144.219ZM144.219 37.716H147.614C147.614 37.366 147.553 37.051 147.432 36.771C147.311 36.4863 147.124 36.2623 146.872 36.099C146.625 35.931 146.312 35.847 145.934 35.847C145.561 35.847 145.246 35.938 144.989 36.12C144.732 36.302 144.539 36.5377 144.408 36.827C144.277 37.1117 144.214 37.408 144.219 37.716ZM150.812 42V34.762H152.478V35.798C152.59 35.6113 152.741 35.4317 152.933 35.259C153.129 35.0863 153.369 34.9463 153.654 34.839C153.938 34.7317 154.272 34.678 154.655 34.678C155.103 34.678 155.518 34.7667 155.901 34.944C156.288 35.1213 156.598 35.399 156.832 35.777C157.07 36.155 157.189 36.6427 157.189 37.24V42H155.481V37.443C155.481 36.967 155.35 36.6147 155.089 36.386C154.827 36.1527 154.498 36.036 154.102 36.036C153.831 36.036 153.574 36.0827 153.332 36.176C153.089 36.2647 152.891 36.4023 152.737 36.589C152.587 36.771 152.513 36.9997 152.513 37.275V42H150.812ZM162.762 35.966H161.145L161.152 40.117C161.152 40.3317 161.175 40.4903 161.222 40.593C161.273 40.691 161.352 40.7563 161.46 40.789C161.572 40.817 161.721 40.831 161.908 40.831H162.797V41.909C162.703 41.9463 162.561 41.979 162.37 42.007C162.183 42.0397 161.931 42.056 161.614 42.056C161.04 42.056 160.594 41.9813 160.277 41.832C159.964 41.678 159.747 41.461 159.626 41.181C159.504 40.901 159.444 40.5673 159.444 40.18V35.966H158.268V34.762H159.493L159.92 32.613H161.145V34.755H162.762V35.966Z" fill="white"/>
<path d="M36.492 68.86H41.568C42.664 68.86 43.464 68.644 43.968 68.212C44.48 67.772 44.736 67.084 44.736 66.148C44.736 65.236 44.476 64.568 43.956 64.144C43.444 63.72 42.704 63.508 41.736 63.508H36.492V61.648H42.3C44.372 61.648 45.984 62.048 47.136 62.848C48.288 63.648 48.864 64.784 48.864 66.256C48.864 67.04 48.716 67.732 48.42 68.332C48.124 68.924 47.732 69.42 47.244 69.82C46.756 70.22 46.224 70.528 45.648 70.744C45.52 70.784 45.492 70.9 45.564 71.092L48.792 79H44.472L41.772 71.392H36.492V68.86ZM50.82 61.636V63.364L36.516 63.376V61.648L50.82 61.636ZM50.82 65.236V66.964L36.516 66.976V65.248L50.82 65.236ZM55.5499 79V66.004H52.4539V64.024C53.4459 64.024 54.2459 63.932 54.8539 63.748C55.4699 63.556 55.9299 63.284 56.2339 62.932C56.5379 62.572 56.7179 62.144 56.7739 61.648H59.1019V79H55.5499ZM62.8155 82.36L64.2075 79.096L62.9835 78.988V75.592H66.5235V78.58L64.1115 82.36H62.8155ZM76.0958 61.408C78.1598 61.408 79.7878 62.18 80.9798 63.724C82.1718 65.26 82.7678 67.472 82.7678 70.36C82.7678 73.232 82.1798 75.436 81.0038 76.972C79.8278 78.5 78.1918 79.264 76.0958 79.264C73.9918 79.264 72.3478 78.5 71.1638 76.972C69.9878 75.444 69.3998 73.244 69.3998 70.372C69.3998 68.452 69.6718 66.824 70.2158 65.488C70.7598 64.152 71.5318 63.14 72.5318 62.452C73.5318 61.756 74.7198 61.408 76.0958 61.408ZM76.0958 76.396C77.1278 76.396 77.8838 75.936 78.3638 75.016C78.8438 74.088 79.0838 72.54 79.0838 70.372C79.0838 68.156 78.8398 66.568 78.3518 65.608C77.8638 64.648 77.1078 64.168 76.0838 64.168C75.0598 64.168 74.2958 64.652 73.7918 65.62C73.2958 66.588 73.0478 68.172 73.0478 70.372C73.0478 72.532 73.2958 74.076 73.7918 75.004C74.2878 75.932 75.0558 76.396 76.0958 76.396ZM91.4942 61.408C93.5582 61.408 95.1862 62.18 96.3782 63.724C97.5702 65.26 98.1662 67.472 98.1662 70.36C98.1662 73.232 97.5782 75.436 96.4022 76.972C95.2262 78.5 93.5902 79.264 91.4942 79.264C89.3902 79.264 87.7462 78.5 86.5622 76.972C85.3862 75.444 84.7982 73.244 84.7982 70.372C84.7982 68.452 85.0702 66.824 85.6142 65.488C86.1582 64.152 86.9302 63.14 87.9302 62.452C88.9302 61.756 90.1182 61.408 91.4942 61.408ZM91.4942 76.396C92.5262 76.396 93.2822 75.936 93.7622 75.016C94.2422 74.088 94.4822 72.54 94.4822 70.372C94.4822 68.156 94.2382 66.568 93.7502 65.608C93.2622 64.648 92.5062 64.168 91.4822 64.168C90.4582 64.168 89.6942 64.652 89.1902 65.62C88.6942 66.588 88.4462 68.172 88.4462 70.372C88.4462 72.532 88.6942 74.076 89.1902 75.004C89.6862 75.932 90.4542 76.396 91.4942 76.396ZM100.339 82.36L101.731 79.096L100.507 78.988V75.592H104.047V78.58L101.635 82.36H100.339ZM113.619 61.408C115.683 61.408 117.311 62.18 118.503 63.724C119.695 65.26 120.291 67.472 120.291 70.36C120.291 73.232 119.703 75.436 118.527 76.972C117.351 78.5 115.715 79.264 113.619 79.264C111.515 79.264 109.871 78.5 108.687 76.972C107.511 75.444 106.923 73.244 106.923 70.372C106.923 68.452 107.195 66.824 107.739 65.488C108.283 64.152 109.055 63.14 110.055 62.452C111.055 61.756 112.243 61.408 113.619 61.408ZM113.619 76.396C114.651 76.396 115.407 75.936 115.887 75.016C116.367 74.088 116.607 72.54 116.607 70.372C116.607 68.156 116.363 66.568 115.875 65.608C115.387 64.648 114.631 64.168 113.607 64.168C112.583 64.168 111.819 64.652 111.315 65.62C110.819 66.588 110.571 68.172 110.571 70.372C110.571 72.532 110.819 74.076 111.315 75.004C111.811 75.932 112.579 76.396 113.619 76.396ZM129.018 61.408C131.082 61.408 132.71 62.18 133.902 63.724C135.094 65.26 135.69 67.472 135.69 70.36C135.69 73.232 135.102 75.436 133.926 76.972C132.75 78.5 131.114 79.264 129.018 79.264C126.914 79.264 125.27 78.5 124.086 76.972C122.91 75.444 122.322 73.244 122.322 70.372C122.322 68.452 122.594 66.824 123.138 65.488C123.682 64.152 124.454 63.14 125.454 62.452C126.454 61.756 127.642 61.408 129.018 61.408ZM129.018 76.396C130.05 76.396 130.806 75.936 131.286 75.016C131.766 74.088 132.006 72.54 132.006 70.372C132.006 68.156 131.762 66.568 131.274 65.608C130.786 64.648 130.03 64.168 129.006 64.168C127.982 64.168 127.218 64.652 126.714 65.62C126.218 66.588 125.97 68.172 125.97 70.372C125.97 72.532 126.218 74.076 126.714 75.004C127.21 75.932 127.978 76.396 129.018 76.396ZM144.416 61.408C146.48 61.408 148.108 62.18 149.3 63.724C150.492 65.26 151.088 67.472 151.088 70.36C151.088 73.232 150.5 75.436 149.324 76.972C148.148 78.5 146.512 79.264 144.416 79.264C142.312 79.264 140.668 78.5 139.484 76.972C138.308 75.444 137.72 73.244 137.72 70.372C137.72 68.452 137.992 66.824 138.536 65.488C139.08 64.152 139.852 63.14 140.852 62.452C141.852 61.756 143.04 61.408 144.416 61.408ZM144.416 76.396C145.448 76.396 146.204 75.936 146.684 75.016C147.164 74.088 147.404 72.54 147.404 70.372C147.404 68.156 147.16 66.568 146.672 65.608C146.184 64.648 145.428 64.168 144.404 64.168C143.38 64.168 142.616 64.652 142.112 65.62C141.616 66.588 141.368 68.172 141.368 70.372C141.368 72.532 141.616 74.076 142.112 75.004C142.608 75.932 143.376 76.396 144.416 76.396Z" fill="white"/>
<path d="M42.4583 106.083C42.4583 105.918 42.3924 105.759 42.2752 105.642C42.158 105.524 41.9991 105.458 41.8333 105.458C41.6675 105.458 41.5086 105.524 41.3914 105.642C41.2741 105.759 41.2083 105.918 41.2083 106.083V107.4C40.0083 107.496 39.2216 107.731 38.6433 108.31C38.0641 108.888 37.8291 109.676 37.7325 110.875H54.2675C54.1708 109.675 53.9358 108.888 53.3566 108.31C52.7783 107.731 51.9908 107.496 50.7916 107.399V106.083C50.7916 105.918 50.7258 105.759 50.6086 105.642C50.4914 105.524 50.3324 105.458 50.1666 105.458C50.0009 105.458 49.8419 105.524 49.7247 105.642C49.6075 105.759 49.5416 105.918 49.5416 106.083V107.344C48.9875 107.333 48.3658 107.333 47.6666 107.333H44.3333C43.6341 107.333 43.0125 107.333 42.4583 107.344V106.083Z" fill="url(#paint1_linear_2046_95793)"/>
<path fill-rule="evenodd" clip-rule="evenodd" d="M54.3333 114C54.3333 113.301 54.3333 112.679 54.3225 112.125H37.6775C37.6666 112.679 37.6666 113.301 37.6666 114V115.667C37.6666 118.809 37.6666 120.381 38.6433 121.357C39.6191 122.333 41.1908 122.333 44.3333 122.333H47.6666C50.8091 122.333 52.3808 122.333 53.3566 121.357C54.3333 120.381 54.3333 118.809 54.3333 115.667V114ZM47.6666 114.208C47.2799 114.208 46.9089 114.362 46.6354 114.636C46.3619 114.909 46.2083 115.28 46.2083 115.667V117.333C46.2083 117.72 46.3619 118.091 46.6354 118.365C46.9089 118.638 47.2799 118.792 47.6666 118.792C48.0534 118.792 48.4243 118.638 48.6978 118.365C48.9713 118.091 49.125 117.72 49.125 117.333V115.667C49.125 115.28 48.9713 114.909 48.6978 114.636C48.4243 114.362 48.0534 114.208 47.6666 114.208ZM47.6666 115.458C47.6114 115.458 47.5584 115.48 47.5193 115.52C47.4802 115.559 47.4583 115.612 47.4583 115.667V117.333C47.4583 117.389 47.4802 117.442 47.5193 117.481C47.5584 117.52 47.6114 117.542 47.6666 117.542C47.7219 117.542 47.7749 117.52 47.8139 117.481C47.853 117.442 47.875 117.389 47.875 117.333V115.667C47.875 115.612 47.853 115.559 47.8139 115.52C47.7749 115.48 47.7219 115.458 47.6666 115.458ZM44.9891 114.256C45.1033 114.303 45.201 114.383 45.2696 114.486C45.3383 114.589 45.375 114.71 45.375 114.833V118.167C45.375 118.333 45.3091 118.492 45.1919 118.609C45.0747 118.726 44.9157 118.792 44.75 118.792C44.5842 118.792 44.4252 118.726 44.308 118.609C44.1908 118.492 44.125 118.333 44.125 118.167V116.342L43.9416 116.525C43.8231 116.636 43.6664 116.696 43.5045 116.693C43.3426 116.69 43.1881 116.624 43.0736 116.51C42.9591 116.395 42.8935 116.241 42.8906 116.079C42.8878 115.917 42.9479 115.76 43.0583 115.642L44.3083 114.392C44.3956 114.304 44.5069 114.245 44.6281 114.221C44.7493 114.197 44.8749 114.209 44.9891 114.256Z" fill="url(#paint2_linear_2046_95793)"/>
<path d="M61.056 109.324H62.532V116.74H66.45V118H61.05L61.056 109.324ZM69.6758 118.12C69.2798 118.12 68.9238 118.048 68.6078 117.904C68.2958 117.756 68.0498 117.546 67.8698 117.274C67.6938 116.998 67.6058 116.664 67.6058 116.272C67.6058 115.588 67.8518 115.072 68.3438 114.724C68.8398 114.376 69.6298 114.194 70.7138 114.178L71.6378 114.154V113.734C71.6378 113.406 71.5398 113.15 71.3438 112.966C71.1518 112.778 70.8518 112.686 70.4438 112.69C70.1438 112.694 69.8678 112.766 69.6158 112.906C69.3678 113.042 69.2038 113.272 69.1238 113.596H67.8818C67.9058 113.172 68.0278 112.818 68.2478 112.534C68.4718 112.246 68.7778 112.032 69.1658 111.892C69.5538 111.748 70.0018 111.676 70.5098 111.676C71.1018 111.676 71.5838 111.754 71.9558 111.91C72.3278 112.066 72.6018 112.292 72.7778 112.588C72.9538 112.88 73.0418 113.234 73.0418 113.65V118H71.8118L71.6978 116.884C71.4738 117.352 71.1898 117.676 70.8458 117.856C70.5058 118.032 70.1158 118.12 69.6758 118.12ZM70.1498 117.13C70.3298 117.13 70.5078 117.098 70.6838 117.034C70.8598 116.966 71.0198 116.876 71.1638 116.764C71.3078 116.648 71.4218 116.52 71.5058 116.38C71.5938 116.24 71.6378 116.094 71.6378 115.942V114.964L70.8758 114.976C70.4998 114.98 70.1718 115.02 69.8918 115.096C69.6118 115.172 69.3918 115.294 69.2318 115.462C69.0758 115.626 68.9978 115.846 68.9978 116.122C68.9978 116.438 69.1078 116.686 69.3278 116.866C69.5478 117.042 69.8218 117.13 70.1498 117.13ZM77.0018 118.12C76.5698 118.12 76.1598 118.052 75.7718 117.916C75.3878 117.776 75.0638 117.558 74.7998 117.262C74.5398 116.966 74.3758 116.584 74.3078 116.116H75.5918C75.6478 116.344 75.7458 116.53 75.8858 116.674C76.0298 116.818 76.1998 116.924 76.3958 116.992C76.5918 117.056 76.7918 117.088 76.9958 117.088C77.3678 117.088 77.6678 117.024 77.8958 116.896C78.1278 116.768 78.2438 116.57 78.2438 116.302C78.2438 116.106 78.1798 115.95 78.0518 115.834C77.9238 115.718 77.7198 115.63 77.4398 115.57L76.2578 115.3C75.7338 115.184 75.3118 114.992 74.9918 114.724C74.6758 114.456 74.5158 114.078 74.5118 113.59C74.5078 113.222 74.5998 112.894 74.7878 112.606C74.9758 112.318 75.2558 112.092 75.6278 111.928C75.9998 111.76 76.4598 111.676 77.0078 111.676C77.7318 111.676 78.3118 111.838 78.7478 112.162C79.1838 112.482 79.4078 112.94 79.4198 113.536H78.1778C78.1338 113.268 78.0078 113.06 77.7998 112.912C77.5918 112.76 77.3218 112.684 76.9898 112.684C76.6458 112.684 76.3638 112.75 76.1438 112.882C75.9238 113.014 75.8138 113.216 75.8138 113.488C75.8138 113.676 75.8978 113.824 76.0658 113.932C76.2338 114.04 76.4858 114.132 76.8218 114.208L77.9378 114.478C78.2578 114.558 78.5198 114.666 78.7238 114.802C78.9278 114.938 79.0878 115.088 79.2038 115.252C79.3198 115.412 79.3998 115.578 79.4438 115.75C79.4918 115.918 79.5158 116.074 79.5158 116.218C79.5158 116.618 79.4118 116.96 79.2038 117.244C78.9998 117.524 78.7098 117.74 78.3338 117.892C77.9578 118.044 77.5138 118.12 77.0018 118.12ZM84.2779 112.828H82.8919L82.8979 116.386C82.8979 116.57 82.9179 116.706 82.9579 116.794C83.0019 116.878 83.0699 116.934 83.1619 116.962C83.2579 116.986 83.3859 116.998 83.5459 116.998H84.3079V117.922C84.2279 117.954 84.1059 117.982 83.9419 118.006C83.7819 118.034 83.5659 118.048 83.2939 118.048C82.8019 118.048 82.4199 117.984 82.1479 117.856C81.8799 117.724 81.6939 117.538 81.5899 117.298C81.4859 117.058 81.4339 116.772 81.4339 116.44V112.828H80.4259V111.796H81.4759L81.8419 109.954H82.8919V111.79H84.2779V112.828ZM88.5773 109.324C88.6133 109.324 88.7193 109.324 88.8953 109.324C89.0713 109.324 89.2793 109.324 89.5193 109.324C89.7633 109.324 90.0093 109.326 90.2573 109.33C90.5093 109.33 90.7273 109.332 90.9113 109.336C91.9673 109.356 92.8253 109.538 93.4853 109.882C94.1493 110.222 94.6353 110.708 94.9433 111.34C95.2553 111.968 95.4113 112.726 95.4113 113.614C95.4113 114.542 95.2453 115.332 94.9133 115.984C94.5853 116.636 94.0813 117.136 93.4013 117.484C92.7253 117.828 91.8653 118 90.8213 118H88.5773V109.324ZM90.0593 110.53V116.794H90.8453C91.4413 116.794 91.9673 116.692 92.4233 116.488C92.8793 116.28 93.2353 115.944 93.4913 115.48C93.7513 115.016 93.8813 114.396 93.8813 113.62C93.8813 112.868 93.7613 112.266 93.5213 111.814C93.2813 111.362 92.9373 111.036 92.4893 110.836C92.0413 110.632 91.5053 110.53 90.8813 110.53H90.0593ZM97.9974 115.234C97.9934 115.586 98.0494 115.898 98.1654 116.17C98.2814 116.442 98.4534 116.656 98.6814 116.812C98.9094 116.964 99.1914 117.04 99.5274 117.04C99.8714 117.04 100.169 116.964 100.421 116.812C100.677 116.656 100.847 116.42 100.931 116.104H102.269C102.197 116.536 102.025 116.902 101.753 117.202C101.481 117.502 101.151 117.73 100.763 117.886C100.379 118.042 99.9794 118.12 99.5634 118.12C98.9634 118.12 98.4354 117.994 97.9794 117.742C97.5274 117.486 97.1734 117.122 96.9174 116.65C96.6654 116.178 96.5394 115.616 96.5394 114.964C96.5394 114.328 96.6554 113.764 96.8874 113.272C97.1194 112.776 97.4534 112.386 97.8894 112.102C98.3294 111.818 98.8574 111.676 99.4734 111.676C100.085 111.676 100.599 111.806 101.015 112.066C101.435 112.326 101.751 112.69 101.963 113.158C102.179 113.622 102.287 114.166 102.287 114.79V115.234H97.9974ZM97.9974 114.328H100.907C100.907 114.028 100.855 113.758 100.751 113.518C100.647 113.274 100.487 113.082 100.271 112.942C100.059 112.798 99.7914 112.726 99.4674 112.726C99.1474 112.726 98.8774 112.804 98.6574 112.96C98.4374 113.116 98.2714 113.318 98.1594 113.566C98.0474 113.81 97.9934 114.064 97.9974 114.328ZM103.648 119.932V111.796H105.106L105.118 112.774C105.198 112.638 105.3 112.504 105.424 112.372C105.552 112.24 105.698 112.122 105.862 112.018C106.03 111.914 106.216 111.832 106.42 111.772C106.624 111.708 106.848 111.676 107.092 111.676C107.568 111.676 107.99 111.79 108.358 112.018C108.726 112.242 109.014 112.588 109.222 113.056C109.434 113.524 109.54 114.116 109.54 114.832C109.54 115.564 109.432 116.174 109.216 116.662C109 117.15 108.698 117.516 108.31 117.76C107.922 118 107.472 118.12 106.96 118.12C106.724 118.12 106.508 118.088 106.312 118.024C106.12 117.96 105.948 117.872 105.796 117.76C105.644 117.648 105.51 117.526 105.394 117.394C105.282 117.262 105.188 117.124 105.112 116.98V119.932H103.648ZM106.636 117.028C107.076 117.028 107.44 116.854 107.728 116.506C108.016 116.154 108.16 115.604 108.16 114.856C108.16 114.208 108.024 113.698 107.752 113.326C107.484 112.95 107.112 112.762 106.636 112.762C106.124 112.762 105.74 112.96 105.484 113.356C105.228 113.748 105.1 114.248 105.1 114.856C105.1 115.248 105.156 115.61 105.268 115.942C105.384 116.27 105.554 116.534 105.778 116.734C106.006 116.93 106.292 117.028 106.636 117.028ZM113.406 118.12C112.814 118.12 112.298 117.994 111.858 117.742C111.418 117.486 111.076 117.12 110.832 116.644C110.592 116.168 110.472 115.596 110.472 114.928C110.472 114.28 110.588 113.712 110.82 113.224C111.056 112.736 111.394 112.356 111.834 112.084C112.274 111.812 112.8 111.676 113.412 111.676C114.004 111.676 114.518 111.806 114.954 112.066C115.39 112.326 115.726 112.698 115.962 113.182C116.202 113.666 116.322 114.248 116.322 114.928C116.322 115.556 116.208 116.11 115.98 116.59C115.756 117.066 115.426 117.44 114.99 117.712C114.558 117.984 114.03 118.12 113.406 118.12ZM113.412 117.01C113.748 117.01 114.024 116.918 114.24 116.734C114.46 116.55 114.622 116.298 114.726 115.978C114.834 115.658 114.888 115.294 114.888 114.886C114.888 114.506 114.84 114.156 114.744 113.836C114.652 113.516 114.496 113.26 114.276 113.068C114.06 112.872 113.772 112.774 113.412 112.774C113.072 112.774 112.79 112.864 112.566 113.044C112.346 113.22 112.18 113.468 112.068 113.788C111.96 114.104 111.906 114.47 111.906 114.886C111.906 115.262 111.954 115.612 112.05 115.936C112.15 116.256 112.31 116.516 112.53 116.716C112.75 116.912 113.044 117.01 113.412 117.01ZM119.928 118.12C119.496 118.12 119.086 118.052 118.698 117.916C118.314 117.776 117.99 117.558 117.726 117.262C117.466 116.966 117.302 116.584 117.234 116.116H118.518C118.574 116.344 118.672 116.53 118.812 116.674C118.956 116.818 119.126 116.924 119.322 116.992C119.518 117.056 119.718 117.088 119.922 117.088C120.294 117.088 120.594 117.024 120.822 116.896C121.054 116.768 121.17 116.57 121.17 116.302C121.17 116.106 121.106 115.95 120.978 115.834C120.85 115.718 120.646 115.63 120.366 115.57L119.184 115.3C118.66 115.184 118.238 114.992 117.918 114.724C117.602 114.456 117.442 114.078 117.438 113.59C117.434 113.222 117.526 112.894 117.714 112.606C117.902 112.318 118.182 112.092 118.554 111.928C118.926 111.76 119.386 111.676 119.934 111.676C120.658 111.676 121.238 111.838 121.674 112.162C122.11 112.482 122.334 112.94 122.346 113.536H121.104C121.06 113.268 120.934 113.06 120.726 112.912C120.518 112.76 120.248 112.684 119.916 112.684C119.572 112.684 119.29 112.75 119.07 112.882C118.85 113.014 118.74 113.216 118.74 113.488C118.74 113.676 118.824 113.824 118.992 113.932C119.16 114.04 119.412 114.132 119.748 114.208L120.864 114.478C121.184 114.558 121.446 114.666 121.65 114.802C121.854 114.938 122.014 115.088 122.13 115.252C122.246 115.412 122.326 115.578 122.37 115.75C122.418 115.918 122.442 116.074 122.442 116.218C122.442 116.618 122.338 116.96 122.13 117.244C121.926 117.524 121.636 117.74 121.26 117.892C120.884 118.044 120.44 118.12 119.928 118.12ZM125.322 111.796V118H123.918V111.796H125.322ZM125.34 109.33V110.71H123.894V109.33H125.34ZM130.614 112.828H129.228L129.234 116.386C129.234 116.57 129.254 116.706 129.294 116.794C129.338 116.878 129.406 116.934 129.498 116.962C129.594 116.986 129.722 116.998 129.882 116.998H130.644V117.922C130.564 117.954 130.442 117.982 130.278 118.006C130.118 118.034 129.902 118.048 129.63 118.048C129.138 118.048 128.756 117.984 128.484 117.856C128.216 117.724 128.03 117.538 127.926 117.298C127.822 117.058 127.77 116.772 127.77 116.44V112.828H126.762V111.796H127.812L128.178 109.954H129.228V111.79H130.614V112.828Z" fill="white"/>
<mask id="path-6-inside-1_2046_95793" fill="white">
<path d="M60 128H244V152H60V128Z"/>
</mask>
<path d="M60 152.5H61V151.5H60V152.5ZM63 152.5H65V151.5H63V152.5ZM67 152.5H69V151.5H67V152.5ZM71 152.5H73V151.5H71V152.5ZM75 152.5H77V151.5H75V152.5ZM79 152.5H81V151.5H79V152.5ZM83 152.5H85V151.5H83V152.5ZM87 152.5H89V151.5H87V152.5ZM91 152.5H93V151.5H91V152.5ZM95 152.5H97V151.5H95V152.5ZM99 152.5H101V151.5H99V152.5ZM103 152.5H105V151.5H103V152.5ZM107 152.5H109V151.5H107V152.5ZM111 152.5H113V151.5H111V152.5ZM115 152.5H117V151.5H115V152.5ZM119 152.5H121V151.5H119V152.5ZM123 152.5H125V151.5H123V152.5ZM127 152.5H129V151.5H127V152.5ZM131 152.5H133V151.5H131V152.5ZM135 152.5H137V151.5H135V152.5ZM139 152.5H141V151.5H139V152.5ZM143 152.5H145V151.5H143V152.5ZM147 152.5H149V151.5H147V152.5ZM151 152.5H153V151.5H151V152.5ZM155 152.5H157V151.5H155V152.5ZM159 152.5H161V151.5H159V152.5ZM163 152.5H165V151.5H163V152.5ZM167 152.5H169V151.5H167V152.5ZM171 152.5H173V151.5H171V152.5ZM175 152.5H177V151.5H175V152.5ZM179 152.5H181V151.5H179V152.5ZM183 152.5H185V151.5H183V152.5ZM187 152.5H189V151.5H187V152.5ZM191 152.5H193V151.5H191V152.5ZM195 152.5H197V151.5H195V152.5ZM199 152.5H201V151.5H199V152.5ZM203 152.5H205V151.5H203V152.5ZM207 152.5H209V151.5H207V152.5ZM211 152.5H213V151.5H211V152.5ZM215 152.5H217V151.5H215V152.5ZM219 152.5H221V151.5H219V152.5ZM223 152.5H225V151.5H223V152.5ZM227 152.5H229V151.5H227V152.5ZM231 152.5H233V151.5H231V152.5ZM235 152.5H237V151.5H235V152.5ZM239 152.5H241V151.5H239V152.5ZM243 152.5H244V151.5H243V152.5ZM60 153H61V151H60V153ZM63 153H65V151H63V153ZM67 153H69V151H67V153ZM71 153H73V151H71V153ZM75 153H77V151H75V153ZM79 153H81V151H79V153ZM83 153H85V151H83V153ZM87 153H89V151H87V153ZM91 153H93V151H91V153ZM95 153H97V151H95V153ZM99 153H101V151H99V153ZM103 153H105V151H103V153ZM107 153H109V151H107V153ZM111 153H113V151H111V153ZM115 153H117V151H115V153ZM119 153H121V151H119V153ZM123 153H125V151H123V153ZM127 153H129V151H127V153ZM131 153H133V151H131V153ZM135 153H137V151H135V153ZM139 153H141V151H139V153ZM143 153H145V151H143V153ZM147 153H149V151H147V153ZM151 153H153V151H151V153ZM155 153H157V151H155V153ZM159 153H161V151H159V153ZM163 153H165V151H163V153ZM167 153H169V151H167V153ZM171 153H173V151H171V153ZM175 153H177V151H175V153ZM179 153H181V151H179V153ZM183 153H185V151H183V153ZM187 153H189V151H187V153ZM191 153H193V151H191V153ZM195 153H197V151H195V153ZM199 153H201V151H199V153ZM203 153H205V151H203V153ZM207 153H209V151H207V153ZM211 153H213V151H211V153ZM215 153H217V151H215V153ZM219 153H221V151H219V153ZM223 153H225V151H223V153ZM227 153H229V151H227V153ZM231 153H233V151H231V153ZM235 153H237V151H235V153ZM239 153H241V151H239V153ZM243 153H244V151H243V153Z" fill="white" mask="url(#path-6-inside-1_2046_95793)"/>
<path d="M63.828 141.852C63.828 142.34 63.772 142.754 63.66 143.094C63.552 143.43 63.358 143.686 63.078 143.862C62.798 144.034 62.398 144.12 61.878 144.12C61.582 144.12 61.296 144.088 61.02 144.024C60.744 143.96 60.554 143.91 60.45 143.874L60.516 142.662C60.64 142.702 60.78 142.752 60.936 142.812C61.096 142.868 61.29 142.896 61.518 142.896C61.91 142.896 62.178 142.788 62.322 142.572C62.466 142.356 62.538 141.998 62.538 141.498V135.324H63.828V141.852ZM67.3092 144.12C66.9092 144.12 66.5532 144.048 66.2412 143.904C65.9332 143.76 65.6912 143.552 65.5152 143.28C65.3392 143.008 65.2512 142.68 65.2512 142.296C65.2512 141.608 65.4952 141.094 65.9832 140.754C66.4712 140.414 67.2492 140.234 68.3172 140.214L69.3372 140.184V139.734C69.3372 139.378 69.2312 139.098 69.0192 138.894C68.8072 138.69 68.4812 138.59 68.0412 138.594C67.7092 138.594 67.4132 138.67 67.1532 138.822C66.8972 138.974 66.7292 139.224 66.6492 139.572H65.5332C65.5572 139.16 65.6752 138.814 65.8872 138.534C66.1032 138.25 66.3992 138.036 66.7752 137.892C67.1512 137.748 67.5932 137.676 68.1012 137.676C68.6652 137.676 69.1292 137.754 69.4932 137.91C69.8572 138.062 70.1272 138.286 70.3032 138.582C70.4832 138.878 70.5732 139.238 70.5732 139.662V144H69.4872L69.3852 142.86C69.1532 143.336 68.8592 143.666 68.5032 143.85C68.1512 144.03 67.7532 144.12 67.3092 144.12ZM67.7112 143.226C67.9072 143.226 68.1012 143.192 68.2932 143.124C68.4852 143.052 68.6592 142.956 68.8152 142.836C68.9712 142.712 69.0952 142.574 69.1872 142.422C69.2832 142.27 69.3332 142.114 69.3372 141.954V140.928L68.4972 140.946C68.0692 140.95 67.7052 140.994 67.4052 141.078C67.1092 141.162 66.8812 141.292 66.7212 141.468C66.5652 141.644 66.4872 141.878 66.4872 142.17C66.4872 142.502 66.6032 142.762 66.8352 142.95C67.0672 143.134 67.3592 143.226 67.7112 143.226ZM72.3778 144V137.796H73.6318V138.69C73.7318 138.522 73.8658 138.364 74.0338 138.216C74.2058 138.068 74.4158 137.948 74.6638 137.856C74.9158 137.764 75.2058 137.718 75.5338 137.718C75.9218 137.718 76.2798 137.796 76.6078 137.952C76.9398 138.104 77.2058 138.344 77.4058 138.672C77.6058 138.996 77.7058 139.416 77.7058 139.932V144H76.4218V140.07C76.4218 139.626 76.3018 139.296 76.0618 139.08C75.8258 138.864 75.5198 138.756 75.1438 138.756C74.8918 138.756 74.6518 138.798 74.4238 138.882C74.1958 138.966 74.0118 139.094 73.8718 139.266C73.7318 139.434 73.6618 139.646 73.6618 139.902V144H72.3778ZM81.9135 144V143.274V142.89C81.9135 142.45 81.9955 142.068 82.1595 141.744C82.3275 141.42 82.5475 141.138 82.8195 140.898C83.0915 140.654 83.3895 140.438 83.7135 140.25C84.0415 140.062 84.3675 139.882 84.6915 139.71C85.0155 139.538 85.3135 139.36 85.5855 139.176C85.8575 138.988 86.0755 138.778 86.2395 138.546C86.4075 138.31 86.4915 138.034 86.4915 137.718C86.4915 137.302 86.3455 136.964 86.0535 136.704C85.7615 136.444 85.3655 136.314 84.8655 136.314C84.3335 136.314 83.9015 136.464 83.5695 136.764C83.2375 137.064 83.0455 137.478 82.9935 138.006H81.7335C81.7455 137.49 81.8715 137.02 82.1115 136.596C82.3515 136.172 82.7055 135.834 83.1735 135.582C83.6415 135.33 84.2215 135.204 84.9135 135.204C85.5135 135.204 86.0315 135.31 86.4675 135.522C86.9075 135.73 87.2475 136.022 87.4875 136.398C87.7275 136.774 87.8475 137.212 87.8475 137.712C87.8475 138.156 87.7655 138.538 87.6015 138.858C87.4375 139.178 87.2215 139.454 86.9535 139.686C86.6895 139.918 86.3975 140.124 86.0775 140.304C85.7575 140.48 85.4375 140.65 85.1175 140.814C84.7975 140.974 84.5035 141.144 84.2355 141.324C83.9675 141.5 83.7515 141.7 83.5875 141.924C83.4235 142.148 83.3415 142.418 83.3415 142.734V142.884H87.8775V144H81.9135ZM93.0308 135.324H94.3208V140.754H95.7308V141.864H94.3208V144H93.0728V141.864H89.0108V140.736L93.0308 135.324ZM90.2228 140.754H93.0548V136.956L90.2228 140.754ZM96.6278 145.554L97.3058 144.03L96.7598 143.994V142.566H98.2478V143.814L97.1798 145.554H96.6278ZM102.468 144V143.274V142.89C102.468 142.45 102.55 142.068 102.714 141.744C102.882 141.42 103.102 141.138 103.374 140.898C103.646 140.654 103.944 140.438 104.268 140.25C104.596 140.062 104.922 139.882 105.246 139.71C105.57 139.538 105.868 139.36 106.14 139.176C106.412 138.988 106.63 138.778 106.794 138.546C106.962 138.31 107.046 138.034 107.046 137.718C107.046 137.302 106.9 136.964 106.608 136.704C106.316 136.444 105.92 136.314 105.42 136.314C104.888 136.314 104.456 136.464 104.124 136.764C103.792 137.064 103.6 137.478 103.548 138.006H102.288C102.3 137.49 102.426 137.02 102.666 136.596C102.906 136.172 103.26 135.834 103.728 135.582C104.196 135.33 104.776 135.204 105.468 135.204C106.068 135.204 106.586 135.31 107.022 135.522C107.462 135.73 107.802 136.022 108.042 136.398C108.282 136.774 108.402 137.212 108.402 137.712C108.402 138.156 108.32 138.538 108.156 138.858C107.992 139.178 107.776 139.454 107.508 139.686C107.244 139.918 106.952 140.124 106.632 140.304C106.312 140.48 105.992 140.65 105.672 140.814C105.352 140.974 105.058 141.144 104.79 141.324C104.522 141.5 104.306 141.7 104.142 141.924C103.978 142.148 103.896 142.418 103.896 142.734V142.884H108.432V144H102.468ZM112.752 135.204C113.716 135.204 114.482 135.584 115.05 136.344C115.622 137.1 115.908 138.212 115.908 139.68C115.908 141.14 115.624 142.248 115.056 143.004C114.492 143.756 113.722 144.132 112.746 144.132C111.766 144.132 110.994 143.758 110.43 143.01C109.866 142.258 109.584 141.152 109.584 139.692C109.584 138.712 109.714 137.89 109.974 137.226C110.234 136.558 110.6 136.054 111.072 135.714C111.548 135.374 112.108 135.204 112.752 135.204ZM112.752 143.04C113.344 143.04 113.788 142.78 114.084 142.26C114.38 141.736 114.528 140.878 114.528 139.686C114.528 138.47 114.378 137.596 114.078 137.064C113.778 136.528 113.334 136.26 112.746 136.26C112.162 136.26 111.716 136.53 111.408 137.07C111.1 137.606 110.946 138.478 110.946 139.686C110.946 140.874 111.098 141.73 111.402 142.254C111.71 142.778 112.16 143.04 112.752 143.04ZM117.199 144V143.274V142.89C117.199 142.45 117.281 142.068 117.445 141.744C117.613 141.42 117.833 141.138 118.105 140.898C118.377 140.654 118.675 140.438 118.999 140.25C119.327 140.062 119.653 139.882 119.977 139.71C120.301 139.538 120.599 139.36 120.871 139.176C121.143 138.988 121.361 138.778 121.525 138.546C121.693 138.31 121.777 138.034 121.777 137.718C121.777 137.302 121.631 136.964 121.339 136.704C121.047 136.444 120.651 136.314 120.151 136.314C119.619 136.314 119.187 136.464 118.855 136.764C118.523 137.064 118.331 137.478 118.279 138.006H117.019C117.031 137.49 117.157 137.02 117.397 136.596C117.637 136.172 117.991 135.834 118.459 135.582C118.927 135.33 119.507 135.204 120.199 135.204C120.799 135.204 121.317 135.31 121.753 135.522C122.193 135.73 122.533 136.022 122.773 136.398C123.013 136.774 123.133 137.212 123.133 137.712C123.133 138.156 123.051 138.538 122.887 138.858C122.723 139.178 122.507 139.454 122.239 139.686C121.975 139.918 121.683 140.124 121.363 140.304C121.043 140.48 120.723 140.65 120.403 140.814C120.083 140.974 119.789 141.144 119.521 141.324C119.253 141.5 119.037 141.7 118.873 141.924C118.709 142.148 118.627 142.418 118.627 142.734V142.884H123.163V144H117.199ZM128.316 135.324H129.606V140.754H131.016V141.864H129.606V144H128.358V141.864H124.296V140.736L128.316 135.324ZM125.508 140.754H128.34V136.956L125.508 140.754ZM136.162 145.932H135.19L135.184 134.088H136.162V145.932ZM142.159 144V137.208H140.515V136.41C141.027 136.41 141.429 136.37 141.721 136.29C142.017 136.206 142.229 136.084 142.357 135.924C142.489 135.76 142.563 135.56 142.579 135.324H143.473V144H142.159ZM145.574 137.892C145.574 137.312 145.712 136.824 145.988 136.428C146.268 136.028 146.64 135.724 147.104 135.516C147.572 135.308 148.09 135.204 148.658 135.204C149.27 135.204 149.812 135.29 150.284 135.462C150.756 135.634 151.126 135.888 151.394 136.224C151.666 136.56 151.802 136.974 151.802 137.466C151.802 137.894 151.668 138.28 151.4 138.624C151.136 138.964 150.724 139.23 150.164 139.422C150.528 139.522 150.85 139.67 151.13 139.866C151.41 140.058 151.628 140.298 151.784 140.586C151.944 140.874 152.024 141.208 152.024 141.588C152.024 141.992 151.938 142.352 151.766 142.668C151.594 142.984 151.354 143.252 151.046 143.472C150.738 143.692 150.376 143.858 149.96 143.97C149.544 144.082 149.094 144.136 148.61 144.132C147.986 144.128 147.442 144.018 146.978 143.802C146.514 143.582 146.152 143.272 145.892 142.872C145.632 142.472 145.494 142 145.478 141.456H146.744C146.828 141.98 147.04 142.378 147.38 142.65C147.724 142.918 148.146 143.052 148.646 143.052C149.054 143.052 149.406 142.99 149.702 142.866C150.002 142.738 150.234 142.564 150.398 142.344C150.562 142.12 150.644 141.86 150.644 141.564C150.644 141.244 150.554 140.972 150.374 140.748C150.198 140.524 149.954 140.354 149.642 140.238C149.334 140.118 148.988 140.054 148.604 140.046L147.806 140.028V138.96L148.55 138.936C148.914 138.928 149.236 138.86 149.516 138.732C149.8 138.6 150.022 138.428 150.182 138.216C150.342 138.004 150.422 137.77 150.422 137.514C150.422 137.282 150.35 137.07 150.206 136.878C150.066 136.686 149.862 136.534 149.594 136.422C149.33 136.306 149.012 136.248 148.64 136.248C148.34 136.248 148.054 136.304 147.782 136.416C147.514 136.528 147.292 136.706 147.116 136.95C146.944 137.19 146.85 137.504 146.834 137.892H145.574ZM154.72 138.018V139.554H153.232V138.018H154.72ZM154.72 142.434V143.964H153.232V142.434H154.72ZM156.854 135.324H162.14L162.098 136.41H157.916L157.712 139.02C158.008 138.78 158.32 138.608 158.648 138.504C158.976 138.396 159.332 138.342 159.716 138.342C160.256 138.342 160.748 138.45 161.192 138.666C161.64 138.882 161.998 139.2 162.266 139.62C162.534 140.036 162.668 140.55 162.668 141.162C162.668 141.766 162.536 142.29 162.272 142.734C162.008 143.178 161.634 143.522 161.15 143.766C160.67 144.01 160.104 144.132 159.452 144.132C158.908 144.132 158.404 144.04 157.94 143.856C157.476 143.668 157.076 143.412 156.74 143.088C156.408 142.76 156.162 142.382 156.002 141.954L157.076 141.444C157.22 141.756 157.398 142.036 157.61 142.284C157.822 142.528 158.072 142.72 158.36 142.86C158.648 142.996 158.978 143.064 159.35 143.064C159.938 143.064 160.412 142.898 160.772 142.566C161.132 142.23 161.312 141.776 161.312 141.204C161.312 140.848 161.228 140.536 161.06 140.268C160.892 140 160.666 139.792 160.382 139.644C160.098 139.492 159.78 139.416 159.428 139.416C159.208 139.416 159.002 139.436 158.81 139.476C158.618 139.512 158.426 139.586 158.234 139.698C158.046 139.806 157.846 139.968 157.634 140.184C157.602 140.2 157.578 140.208 157.562 140.208C157.55 140.208 157.524 140.198 157.484 140.178L156.458 139.806L156.854 135.324ZM167.808 135.324H169.098V140.754H170.508V141.864H169.098V144H167.85V141.864H163.788V140.736L167.808 135.324ZM165 140.754H167.832V136.956L165 140.754Z" fill="white"/>
<path d="M179.256 139.336H182.496C183.317 139.336 183.92 139.181 184.304 138.872C184.693 138.563 184.888 138.064 184.888 137.376C184.888 136.747 184.704 136.283 184.336 135.984C183.968 135.68 183.427 135.528 182.712 135.528H179.256V134.432H183.008C184.331 134.432 185.36 134.691 186.096 135.208C186.832 135.725 187.2 136.467 187.2 137.432C187.2 137.981 187.093 138.453 186.88 138.848C186.672 139.243 186.4 139.571 186.064 139.832C185.733 140.088 185.379 140.283 185 140.416C184.92 140.443 184.901 140.512 184.944 140.624L187.08 146H184.672L182.808 140.792H179.256V139.336ZM188.496 134.424V135.448L179.272 135.456V134.432L188.496 134.424ZM188.496 136.84V137.872L179.272 137.88V136.848L188.496 136.84ZM194.899 134.432H196.835V141.6H198.683V143.256H196.835V146H194.947L194.955 143.256H189.571V141.6L194.899 134.432ZM191.395 141.6H194.939V136.848L191.395 141.6ZM204.204 134.272C205.527 134.272 206.572 134.781 207.34 135.8C208.114 136.813 208.5 138.293 208.5 140.24C208.5 142.176 208.116 143.651 207.348 144.664C206.586 145.672 205.535 146.176 204.196 146.176C202.858 146.176 201.804 145.672 201.036 144.664C200.274 143.656 199.892 142.187 199.892 140.256C199.892 138.955 200.068 137.861 200.42 136.976C200.772 136.085 201.271 135.413 201.916 134.96C202.562 134.501 203.324 134.272 204.204 134.272ZM204.204 144.552C204.956 144.552 205.516 144.219 205.884 143.552C206.252 142.885 206.436 141.784 206.436 140.248C206.436 138.68 206.25 137.555 205.876 136.872C205.503 136.189 204.943 135.848 204.196 135.848C203.45 135.848 202.884 136.192 202.5 136.88C202.122 137.568 201.932 138.691 201.932 140.248C201.932 141.779 202.122 142.88 202.5 143.552C202.884 144.219 203.452 144.552 204.204 144.552ZM209.962 148.136L210.874 146.048L210.114 145.992V143.952H212.242V145.736L210.746 148.136H209.962ZM218.454 134.272C219.777 134.272 220.822 134.781 221.59 135.8C222.364 136.813 222.75 138.293 222.75 140.24C222.75 142.176 222.366 143.651 221.598 144.664C220.836 145.672 219.785 146.176 218.446 146.176C217.108 146.176 216.054 145.672 215.286 144.664C214.524 143.656 214.142 142.187 214.142 140.256C214.142 138.955 214.318 137.861 214.67 136.976C215.022 136.085 215.521 135.413 216.166 134.96C216.812 134.501 217.574 134.272 218.454 134.272ZM218.454 144.552C219.206 144.552 219.766 144.219 220.134 143.552C220.502 142.885 220.686 141.784 220.686 140.248C220.686 138.68 220.5 137.555 220.126 136.872C219.753 136.189 219.193 135.848 218.446 135.848C217.7 135.848 217.134 136.192 216.75 136.88C216.372 137.568 216.182 138.691 216.182 140.248C216.182 141.779 216.372 142.88 216.75 143.552C217.134 144.219 217.702 144.552 218.454 144.552ZM228.454 134.272C229.777 134.272 230.822 134.781 231.59 135.8C232.364 136.813 232.75 138.293 232.75 140.24C232.75 142.176 232.366 143.651 231.598 144.664C230.836 145.672 229.785 146.176 228.446 146.176C227.108 146.176 226.054 145.672 225.286 144.664C224.524 143.656 224.142 142.187 224.142 140.256C224.142 138.955 224.318 137.861 224.67 136.976C225.022 136.085 225.521 135.413 226.166 134.96C226.812 134.501 227.574 134.272 228.454 134.272ZM228.454 144.552C229.206 144.552 229.766 144.219 230.134 143.552C230.502 142.885 230.686 141.784 230.686 140.248C230.686 138.68 230.5 137.555 230.126 136.872C229.753 136.189 229.193 135.848 228.446 135.848C227.7 135.848 227.134 136.192 226.75 136.88C226.372 137.568 226.182 138.691 226.182 140.248C226.182 141.779 226.372 142.88 226.75 143.552C227.134 144.219 227.702 144.552 228.454 144.552ZM238.454 134.272C239.777 134.272 240.822 134.781 241.59 135.8C242.364 136.813 242.75 138.293 242.75 140.24C242.75 142.176 242.366 143.651 241.598 144.664C240.836 145.672 239.785 146.176 238.446 146.176C237.108 146.176 236.054 145.672 235.286 144.664C234.524 143.656 234.142 142.187 234.142 140.256C234.142 138.955 234.318 137.861 234.67 136.976C235.022 136.085 235.521 135.413 236.166 134.96C236.812 134.501 237.574 134.272 238.454 134.272ZM238.454 144.552C239.206 144.552 239.766 144.219 240.134 143.552C240.502 142.885 240.686 141.784 240.686 140.248C240.686 138.68 240.5 137.555 240.126 136.872C239.753 136.189 239.193 135.848 238.446 135.848C237.7 135.848 237.134 136.192 236.75 136.88C236.372 137.568 236.182 138.691 236.182 140.248C236.182 141.779 236.372 142.88 236.75 143.552C237.134 144.219 237.702 144.552 238.454 144.552Z" fill="white"/>
<g clip-path="url(#clip1_2046_95793)">
<path d="M448.839 139H332.308C331.108 138.999 329.957 138.504 329.108 137.625C328.26 136.746 327.783 135.554 327.781 134.311V43.6889C327.783 42.4457 328.26 41.2539 329.108 40.3749C329.957 39.4958 331.108 39.0014 332.308 39H448.839C450.039 39.0014 451.19 39.4959 452.038 40.3749C452.887 41.2539 453.364 42.4457 453.366 43.6889V134.311C453.364 135.554 452.887 136.746 452.038 137.625C451.19 138.504 450.039 138.999 448.839 139Z" fill="url(#paint3_linear_2046_95793)"/>
<path d="M353.862 95.7273C358.243 95.7273 361.795 92.1922 361.795 87.8313C361.795 83.4705 358.243 79.9353 353.862 79.9353C349.48 79.9353 345.929 83.4705 345.929 87.8313C345.929 92.1922 349.48 95.7273 353.862 95.7273Z" fill="url(#paint4_linear_2046_95793)"/>
<path d="M353.861 97.5077C353.243 97.507 352.65 97.2621 352.212 96.8267C351.775 96.3913 351.529 95.801 351.528 95.1853V80.4771C351.528 80.1719 351.588 79.8697 351.705 79.5878C351.822 79.3058 351.994 79.0496 352.211 78.8337C352.428 78.6179 352.685 78.4466 352.968 78.3298C353.251 78.213 353.555 78.1528 353.861 78.1528C354.168 78.1528 354.471 78.213 354.755 78.3298C355.038 78.4466 355.295 78.6179 355.512 78.8337C355.729 79.0496 355.9 79.3058 356.018 79.5878C356.135 79.8697 356.195 80.1719 356.195 80.4771V95.1853C356.194 95.801 355.948 96.3913 355.51 96.8267C355.073 97.2621 354.48 97.507 353.861 97.5077Z" fill="url(#paint5_linear_2046_95793)"/>
<path d="M387.779 80.6219H369.79C368.901 80.6219 368.049 80.2561 367.42 79.6049C366.792 78.9538 366.439 78.0706 366.439 77.1497C366.439 76.2288 366.792 75.3456 367.42 74.6945C368.049 74.0433 368.901 73.6775 369.79 73.6775H387.779C388.668 73.6775 389.521 74.0433 390.149 74.6945C390.778 75.3456 391.131 76.2288 391.131 77.1497C391.131 78.0706 390.778 78.9538 390.149 79.6049C389.521 80.2561 388.668 80.6219 387.779 80.6219Z" fill="url(#paint6_linear_2046_95793)"/>
<path d="M372.025 90.1127H367.779C367.453 90.1127 367.14 89.9786 366.91 89.7398C366.679 89.501 366.55 89.1772 366.55 88.8396C366.55 88.5019 366.679 88.1781 366.91 87.9393C367.14 87.7005 367.453 87.5664 367.779 87.5664H372.025C372.351 87.5664 372.663 87.7005 372.894 87.9393C373.124 88.1781 373.254 88.5019 373.254 88.8396C373.254 89.1772 373.124 89.501 372.894 89.7398C372.663 89.9786 372.351 90.1127 372.025 90.1127Z" fill="url(#paint7_linear_2046_95793)"/>
<path d="M380.74 90.1127H376.494C376.168 90.1127 375.856 89.9786 375.625 89.7398C375.395 89.501 375.265 89.1772 375.265 88.8396C375.265 88.5019 375.395 88.1781 375.625 87.9393C375.856 87.7005 376.168 87.5664 376.494 87.5664H380.74C381.066 87.5664 381.379 87.7005 381.609 87.9393C381.84 88.1781 381.969 88.5019 381.969 88.8396C381.969 89.1772 381.84 89.501 381.609 89.7398C381.379 89.9786 381.066 90.1127 380.74 90.1127Z" fill="url(#paint8_linear_2046_95793)"/>
<path d="M372.025 94.974H367.779C367.453 94.974 367.14 94.8399 366.91 94.6011C366.679 94.3624 366.55 94.0385 366.55 93.7009C366.55 93.3632 366.679 93.0394 366.91 92.8006C367.14 92.5619 367.453 92.4277 367.779 92.4277H372.025C372.351 92.4277 372.663 92.5619 372.894 92.8006C373.124 93.0394 373.254 93.3632 373.254 93.7009C373.254 94.0385 373.124 94.3624 372.894 94.6011C372.663 94.8399 372.351 94.974 372.025 94.974Z" fill="url(#paint9_linear_2046_95793)"/>
<path d="M380.74 94.974H376.494C376.168 94.974 375.856 94.8399 375.625 94.6011C375.395 94.3624 375.265 94.0385 375.265 93.7009C375.265 93.3632 375.395 93.0394 375.625 92.8006C375.856 92.5619 376.168 92.4277 376.494 92.4277H380.74C381.066 92.4277 381.379 92.5619 381.609 92.8006C381.84 93.0394 381.969 93.3632 381.969 93.7009C381.969 94.0385 381.84 94.3624 381.609 94.6011C381.379 94.8399 381.066 94.974 380.74 94.974Z" fill="url(#paint10_linear_2046_95793)"/>
<path d="M372.025 99.8351H367.779C367.453 99.8351 367.14 99.701 366.91 99.4622C366.679 99.2235 366.55 98.8996 366.55 98.562C366.55 98.2243 366.679 97.9005 366.91 97.6617C367.14 97.423 367.453 97.2888 367.779 97.2888H372.025C372.351 97.2888 372.663 97.423 372.894 97.6617C373.124 97.9005 373.254 98.2243 373.254 98.562C373.254 98.8996 373.124 99.2235 372.894 99.4622C372.663 99.701 372.351 99.8351 372.025 99.8351Z" fill="url(#paint11_linear_2046_95793)"/>
<path d="M380.74 99.8351H376.494C376.168 99.8351 375.856 99.701 375.625 99.4622C375.395 99.2235 375.265 98.8996 375.265 98.562C375.265 98.2243 375.395 97.9005 375.625 97.6617C375.856 97.423 376.168 97.2888 376.494 97.2888H380.74C381.066 97.2888 381.379 97.423 381.609 97.6617C381.84 97.9005 381.969 98.2243 381.969 98.562C381.969 98.8996 381.84 99.2235 381.609 99.4622C381.379 99.701 381.066 99.8351 380.74 99.8351Z" fill="url(#paint12_linear_2046_95793)"/>
<path d="M372.025 104.696H367.779C367.453 104.696 367.14 104.562 366.91 104.323C366.679 104.085 366.55 103.761 366.55 103.423C366.55 103.085 366.679 102.762 366.91 102.523C367.14 102.284 367.453 102.15 367.779 102.15H372.025C372.351 102.15 372.663 102.284 372.894 102.523C373.124 102.762 373.254 103.085 373.254 103.423C373.254 103.761 373.124 104.085 372.894 104.323C372.663 104.562 372.351 104.696 372.025 104.696Z" fill="url(#paint13_linear_2046_95793)"/>
<path d="M380.74 104.696H376.494C376.168 104.696 375.856 104.562 375.625 104.323C375.395 104.085 375.265 103.761 375.265 103.423C375.265 103.085 375.395 102.762 375.625 102.523C375.856 102.284 376.168 102.15 376.494 102.15H380.74C381.066 102.15 381.379 102.284 381.609 102.523C381.84 102.762 381.969 103.085 381.969 103.423C381.969 103.761 381.84 104.085 381.609 104.323C381.379 104.562 381.066 104.696 380.74 104.696Z" fill="url(#paint14_linear_2046_95793)"/>
<path d="M373.048 77.6706H369.919C369.801 77.6706 369.687 77.6218 369.603 77.535C369.519 77.4481 369.472 77.3304 369.472 77.2076C369.472 77.0848 369.519 76.967 369.603 76.8802C369.687 76.7934 369.801 76.7446 369.919 76.7446H373.048C373.166 76.7446 373.28 76.7934 373.364 76.8802C373.447 76.967 373.494 77.0848 373.494 77.2076C373.494 77.3304 373.447 77.4481 373.364 77.535C373.28 77.6218 373.166 77.6706 373.048 77.6706Z" fill="#DFE3E8"/>
<path d="M377.963 77.6706H374.835C374.716 77.6706 374.602 77.6218 374.519 77.535C374.435 77.4481 374.388 77.3304 374.388 77.2076C374.388 77.0848 374.435 76.967 374.519 76.8802C374.602 76.7934 374.716 76.7446 374.835 76.7446H377.963C378.082 76.7446 378.195 76.7934 378.279 76.8802C378.363 76.967 378.41 77.0848 378.41 77.2076C378.41 77.3304 378.363 77.4481 378.279 77.535C378.195 77.6218 378.082 77.6706 377.963 77.6706Z" fill="#DFE3E8"/>
<path d="M382.915 77.6706H379.787C379.668 77.6706 379.554 77.6218 379.471 77.535C379.387 77.4481 379.34 77.3304 379.34 77.2076C379.34 77.0848 379.387 76.967 379.471 76.8802C379.554 76.7934 379.668 76.7446 379.787 76.7446H382.915C383.034 76.7446 383.147 76.7934 383.231 76.8802C383.315 76.967 383.362 77.0848 383.362 77.2076C383.362 77.3304 383.315 77.4481 383.231 77.535C383.147 77.6218 383.034 77.6706 382.915 77.6706Z" fill="#DFE3E8"/>
<path d="M342.64 124.706C342.64 125.279 342.75 125.847 342.963 126.376C343.177 126.904 343.489 127.384 343.883 127.787H342.037C341.492 127.787 340.953 127.676 340.45 127.46C339.947 127.244 339.49 126.928 339.104 126.529C338.719 126.13 338.414 125.656 338.205 125.135C337.997 124.614 337.89 124.055 337.89 123.491V53.8422C337.89 53.2781 337.997 52.7194 338.205 52.1982C338.414 51.677 338.719 51.2034 339.104 50.8044C339.49 50.4055 339.947 50.0891 340.45 49.8732C340.953 49.6573 341.492 49.5461 342.037 49.5461H344.723C344.09 49.9278 343.564 50.475 343.198 51.1331C342.833 51.7911 342.641 52.537 342.64 53.2961L342.64 124.706Z" fill="url(#paint15_linear_2046_95793)"/>
<path d="M342.193 68.6919V91.796C342.343 91.7451 342.493 91.6965 342.64 91.6502V68.9025C342.49 68.8308 342.343 68.7613 342.193 68.6919ZM342.193 68.6919V91.796C342.343 91.7451 342.493 91.6965 342.64 91.6502V68.9025C342.49 68.8308 342.343 68.7613 342.193 68.6919ZM342.193 68.6919V91.796C342.343 91.7451 342.493 91.6965 342.64 91.6502V68.9025C342.49 68.8308 342.343 68.7613 342.193 68.6919ZM342.193 70.3794V97.0021C342.343 96.965 342.493 96.9303 342.64 96.8956V70.5113C342.49 70.465 342.341 70.421 342.193 70.3794ZM342.193 70.3794V97.0021C342.343 96.965 342.493 96.9303 342.64 96.8956V70.5113C342.49 70.465 342.341 70.421 342.193 70.3794ZM342.193 70.3794V97.0021C342.343 96.965 342.493 96.9303 342.64 96.8956V70.5113C342.49 70.465 342.341 70.421 342.193 70.3794ZM342.193 70.3794V97.0021C342.343 96.965 342.493 96.9303 342.64 96.8956V70.5113C342.49 70.465 342.341 70.421 342.193 70.3794ZM342.193 70.3794V97.2428C342.343 97.2058 342.49 97.1687 342.64 97.134V70.5113C342.49 70.465 342.341 70.421 342.193 70.3794ZM439.677 48.4905H346.832C345.602 48.4926 344.424 48.9996 343.554 49.9003C342.685 50.8011 342.195 52.0222 342.193 53.296V124.706C342.195 125.979 342.685 127.2 343.554 128.101C344.424 129.001 345.603 129.507 346.832 129.509H439.677C440.907 129.507 442.085 129.001 442.954 128.1C443.824 127.2 444.313 125.979 444.314 124.706V53.296C444.313 52.0223 443.824 50.8009 442.955 49.9C442.086 48.9991 440.907 48.4922 439.677 48.4905ZM443.867 124.706C443.866 125.857 443.424 126.96 442.639 127.773C441.853 128.587 440.788 129.045 439.677 129.046H346.832C345.721 129.045 344.656 128.587 343.87 127.774C343.084 126.96 342.642 125.857 342.64 124.706V53.296C342.642 52.1448 343.084 51.0413 343.87 50.2273C344.656 49.4132 345.721 48.9552 346.832 48.9534H439.677C440.789 48.9548 441.854 49.4128 442.639 50.227C443.425 51.0411 443.867 52.1449 443.867 53.296V124.706ZM342.193 70.3794V96.7683C342.343 96.7312 342.49 96.6942 342.64 96.6571V70.5113C342.49 70.465 342.341 70.421 342.193 70.3794ZM342.193 70.3794V97.0021C342.343 96.965 342.493 96.9303 342.64 96.8956V70.5113C342.49 70.465 342.341 70.421 342.193 70.3794ZM342.193 70.3794V97.0021C342.343 96.965 342.493 96.9303 342.64 96.8956V70.5113C342.49 70.465 342.341 70.421 342.193 70.3794ZM342.193 70.3794V97.0021C342.343 96.965 342.493 96.9303 342.64 96.8956V70.5113C342.49 70.465 342.341 70.421 342.193 70.3794ZM342.193 68.6919V91.796C342.343 91.7451 342.493 91.6965 342.64 91.6502V68.9025C342.49 68.8308 342.343 68.7613 342.193 68.6919ZM342.193 68.6919V91.796C342.343 91.7451 342.493 91.6965 342.64 91.6502V68.9025C342.49 68.8308 342.343 68.7613 342.193 68.6919Z" fill="url(#paint16_linear_2046_95793)"/>
<path d="M329.11 72.0645C324.862 72.0662 320.78 73.7803 317.73 76.8441C314.68 79.9079 312.901 84.0808 312.769 88.4798C312.764 88.6515 312.762 88.8257 312.762 88.9999C312.762 92.3495 313.72 95.6238 315.517 98.4088C317.313 101.194 319.867 103.364 322.854 104.646C325.841 105.928 329.128 106.263 332.3 105.61C335.471 104.957 338.384 103.344 340.67 100.975C342.957 98.6067 344.514 95.589 345.145 92.3039C345.775 89.0187 345.452 85.6136 344.214 82.519C342.977 79.4245 340.881 76.7795 338.193 74.9186C335.504 73.0577 332.344 72.0645 329.11 72.0645ZM329.11 105.452C324.899 105.447 320.863 103.712 317.885 100.628C314.908 97.5437 313.233 93.3618 313.229 88.9999C313.229 88.7749 313.233 88.5524 313.243 88.3322C313.369 85.1096 314.407 81.9965 316.228 79.3802C318.049 76.7639 320.572 74.7596 323.483 73.6168C326.395 72.4739 329.566 72.2428 332.604 72.9521C335.641 73.6615 338.41 75.2801 340.566 77.6066C342.723 79.9331 344.171 82.8649 344.732 86.0375C345.293 89.21 344.941 92.4833 343.72 95.4504C342.499 98.4174 340.464 100.947 337.866 102.725C335.269 104.504 332.224 105.452 329.11 105.452Z" fill="url(#paint17_linear_2046_95793)"/>
<path d="M342.889 89C342.889 92.7857 341.438 96.4164 338.853 99.0933C336.269 101.77 332.764 103.274 329.11 103.274C325.455 103.274 321.95 101.77 319.366 99.0933C316.782 96.4164 315.33 92.7857 315.33 89C315.33 88.5475 315.351 88.1024 315.391 87.6621C315.723 84.0084 317.401 80.6276 320.076 78.2217C322.751 75.8157 326.218 74.5694 329.756 74.7416C333.295 74.9137 336.634 76.4911 339.079 79.1463C341.525 81.8014 342.889 85.3302 342.889 89Z" fill="url(#paint18_linear_2046_95793)"/>
<path d="M330.346 97.2167L324.538 91.1722C324.459 91.0935 324.396 90.9951 324.349 90.8771C324.301 90.759 324.278 90.637 324.278 90.5111V89.9444C324.278 89.6769 324.368 89.4525 324.549 89.2715C324.73 89.0905 324.955 89 325.222 89H327.583C328.418 89 329.138 88.7285 329.744 88.1854C330.35 87.6424 330.716 86.9694 330.842 86.1667H324.278C324.01 86.1667 323.786 86.0762 323.605 85.8951C323.424 85.7141 323.333 85.4898 323.333 85.2222C323.333 84.9546 323.424 84.7303 323.605 84.5493C323.786 84.3683 324.01 84.2778 324.278 84.2778H330.558C330.291 83.7269 329.893 83.2743 329.366 82.9201C328.839 82.566 328.244 82.3889 327.583 82.3889H324.278C324.01 82.3889 323.786 82.2984 323.605 82.1174C323.424 81.9363 323.333 81.712 323.333 81.4444C323.333 81.1769 323.424 80.9525 323.605 80.7715C323.786 80.5905 324.01 80.5 324.278 80.5H333.722C333.99 80.5 334.214 80.5905 334.395 80.7715C334.576 80.9525 334.667 81.1769 334.667 81.4444C334.667 81.712 334.576 81.9363 334.395 82.1174C334.214 82.2984 333.99 82.3889 333.722 82.3889H331.597C331.818 82.6565 332.014 82.9477 332.188 83.2625C332.361 83.5773 332.494 83.9157 332.589 84.2778H333.722C333.99 84.2778 334.214 84.3683 334.395 84.5493C334.576 84.7303 334.667 84.9546 334.667 85.2222C334.667 85.4898 334.576 85.7141 334.395 85.8951C334.214 86.0762 333.99 86.1667 333.722 86.1667H332.754C332.628 87.5046 332.077 88.6262 331.101 89.5312C330.126 90.4363 328.953 90.8889 327.583 90.8889H326.899L331.715 95.8944C331.999 96.1935 332.058 96.5359 331.892 96.9215C331.727 97.3072 331.44 97.5 331.031 97.5C330.905 97.5 330.783 97.4764 330.665 97.4292C330.547 97.3819 330.44 97.3111 330.346 97.2167Z" fill="url(#paint19_linear_2046_95793)"/>
</g>
</g>
</g>
<defs>
<filter id="filter0_dd_2046_95793" x="0" y="0" width="392" height="200" filterUnits="userSpaceOnUse" color-interpolation-filters="sRGB">
<feFlood flood-opacity="0" result="BackgroundImageFix"/>
<feColorMatrix in="SourceAlpha" type="matrix" values="0 0 0 0 0 0 0 0 0 0 0 0 0 0 0 0 0 0 127 0" result="hardAlpha"/>
<feMorphology radius="4" operator="erode" in="SourceAlpha" result="effect1_dropShadow_2046_95793"/>
<feOffset dy="12"/>
<feGaussianBlur stdDeviation="8"/>
<feComposite in2="hardAlpha" operator="out"/>
<feColorMatrix type="matrix" values="0 0 0 0 0.568627 0 0 0 0 0.619608 0 0 0 0 0.670588 0 0 0 0.12 0"/>
<feBlend mode="normal" in2="BackgroundImageFix" result="effect1_dropShadow_2046_95793"/>
<feColorMatrix in="SourceAlpha" type="matrix" values="0 0 0 0 0 0 0 0 0 0 0 0 0 0 0 0 0 0 127 0" result="hardAlpha"/>
<feOffset/>
<feGaussianBlur stdDeviation="1"/>
<feComposite in2="hardAlpha" operator="out"/>
<feColorMatrix type="matrix" values="0 0 0 0 0.568627 0 0 0 0 0.619608 0 0 0 0 0.670588 0 0 0 0.2 0"/>
<feBlend mode="normal" in2="effect1_dropShadow_2046_95793" result="effect2_dropShadow_2046_95793"/>
<feBlend mode="normal" in="SourceGraphic" in2="effect2_dropShadow_2046_95793" result="shape"/>
</filter>
<linearGradient id="paint0_linear_2046_95793" x1="196" y1="2" x2="196" y2="238.892" gradientUnits="userSpaceOnUse">
<stop stop-color="#00A76F"/>
<stop offset="1" stop-color="#0C301F"/>
</linearGradient>
<linearGradient id="paint1_linear_2046_95793" x1="37.6666" y1="105.458" x2="54.5403" y2="122.124" gradientUnits="userSpaceOnUse">
<stop stop-color="#FFD666"/>
<stop offset="1" stop-color="#FFAB00"/>
</linearGradient>
<linearGradient id="paint2_linear_2046_95793" x1="37.6666" y1="105.458" x2="54.5403" y2="122.124" gradientUnits="userSpaceOnUse">
<stop stop-color="#FFD666"/>
<stop offset="1" stop-color="#FFAB00"/>
</linearGradient>
<linearGradient id="paint3_linear_2046_95793" x1="327.781" y1="39" x2="425.241" y2="161.395" gradientUnits="userSpaceOnUse">
<stop stop-color="#5BE49B"/>
<stop offset="1" stop-color="#00A66F"/>
</linearGradient>
<linearGradient id="paint4_linear_2046_95793" x1="345.929" y1="79.9353" x2="361.721" y2="95.8011" gradientUnits="userSpaceOnUse">
<stop stop-color="#00A76F"/>
<stop offset="1" stop-color="#007867"/>
<stop offset="1" stop-color="#123424"/>
</linearGradient>
<linearGradient id="paint5_linear_2046_95793" x1="351.528" y1="78.1528" x2="360.348" y2="80.2794" gradientUnits="userSpaceOnUse">
<stop stop-color="#22C55E"/>
<stop offset="1" stop-color="#118D57"/>
</linearGradient>
<linearGradient id="paint6_linear_2046_95793" x1="366.439" y1="73.6775" x2="370.058" y2="86.5484" gradientUnits="userSpaceOnUse">
<stop stop-color="#22C55E"/>
<stop offset="1" stop-color="#118D57"/>
</linearGradient>
<linearGradient id="paint7_linear_2046_95793" x1="366.55" y1="87.5664" x2="368.24" y2="92.0169" gradientUnits="userSpaceOnUse">
<stop stop-color="#22C55E"/>
<stop offset="1" stop-color="#118D57"/>
</linearGradient>
<linearGradient id="paint8_linear_2046_95793" x1="375.265" y1="87.5664" x2="376.956" y2="92.0169" gradientUnits="userSpaceOnUse">
<stop stop-color="#22C55E"/>
<stop offset="1" stop-color="#118D57"/>
</linearGradient>
<linearGradient id="paint9_linear_2046_95793" x1="366.55" y1="92.4277" x2="368.24" y2="96.8782" gradientUnits="userSpaceOnUse">
<stop stop-color="#22C55E"/>
<stop offset="1" stop-color="#118D57"/>
</linearGradient>
<linearGradient id="paint10_linear_2046_95793" x1="375.265" y1="92.4277" x2="376.956" y2="96.8782" gradientUnits="userSpaceOnUse">
<stop stop-color="#22C55E"/>
<stop offset="1" stop-color="#118D57"/>
</linearGradient>
<linearGradient id="paint11_linear_2046_95793" x1="366.55" y1="97.2888" x2="368.24" y2="101.739" gradientUnits="userSpaceOnUse">
<stop stop-color="#22C55E"/>
<stop offset="1" stop-color="#118D57"/>
</linearGradient>
<linearGradient id="paint12_linear_2046_95793" x1="375.265" y1="97.2888" x2="376.956" y2="101.739" gradientUnits="userSpaceOnUse">
<stop stop-color="#22C55E"/>
<stop offset="1" stop-color="#118D57"/>
</linearGradient>
<linearGradient id="paint13_linear_2046_95793" x1="366.55" y1="102.15" x2="368.24" y2="106.6" gradientUnits="userSpaceOnUse">
<stop stop-color="#22C55E"/>
<stop offset="1" stop-color="#118D57"/>
</linearGradient>
<linearGradient id="paint14_linear_2046_95793" x1="375.265" y1="102.15" x2="376.956" y2="106.6" gradientUnits="userSpaceOnUse">
<stop stop-color="#22C55E"/>
<stop offset="1" stop-color="#118D57"/>
</linearGradient>
<linearGradient id="paint15_linear_2046_95793" x1="337.89" y1="49.5461" x2="351.453" y2="50.7307" gradientUnits="userSpaceOnUse">
<stop stop-color="#00A76F"/>
<stop offset="1" stop-color="#007867"/>
<stop offset="1" stop-color="#123424"/>
</linearGradient>
<linearGradient id="paint16_linear_2046_95793" x1="393.254" y1="48.4905" x2="393.254" y2="129.509" gradientUnits="userSpaceOnUse">
<stop stop-color="#2F2E41"/>
<stop offset="1" stop-color="#2F2E41" stop-opacity="0"/>
</linearGradient>
<linearGradient id="paint17_linear_2046_95793" x1="312.762" y1="72.0645" x2="346.612" y2="104.741" gradientUnits="userSpaceOnUse">
<stop stop-color="#FFD666"/>
<stop offset="1" stop-color="#FFAB00"/>
</linearGradient>
<linearGradient id="paint18_linear_2046_95793" x1="315.33" y1="74.7258" x2="343.861" y2="102.268" gradientUnits="userSpaceOnUse">
<stop stop-color="#22C55E"/>
<stop offset="1" stop-color="#118D57"/>
</linearGradient>
<linearGradient id="paint19_linear_2046_95793" x1="323.333" y1="80.5" x2="339.026" y2="90.9615" gradientUnits="userSpaceOnUse">
<stop stop-color="#FFD666"/>
<stop offset="1" stop-color="#FFAB00"/>
</linearGradient>
<clipPath id="clip0_2046_95793">
<path d="M12 18C12 9.16345 19.1634 2 28 2H364C372.837 2 380 9.16344 380 18V160C380 168.837 372.837 176 364 176H28C19.1634 176 12 168.837 12 160V18Z" fill="white"/>
</clipPath>
<clipPath id="clip1_2046_95793">
<rect width="142" height="100" fill="white" transform="translate(312 39)"/>
</clipPath>
</defs>
</svg>
