<svg width="248" height="164" viewBox="0 0 248 164" fill="none" xmlns="http://www.w3.org/2000/svg">
<g clip-path="url(#clip0_2028_45653)">
<rect x="110.652" y="0.191162" width="97.1711" height="58.8326" rx="2.64881" fill="#F4F6F8"/>
<path d="M198.656 51.908H119.319C118.987 51.9077 118.67 51.7806 118.435 51.5545C118.201 51.3285 118.069 51.0221 118.069 50.7024V17.4282C118.069 17.1086 118.201 16.8022 118.435 16.5761C118.67 16.3501 118.987 16.223 119.319 16.2227H198.656C198.987 16.223 199.305 16.3501 199.539 16.5761C199.774 16.8022 199.906 17.1086 199.906 17.4282V50.7024C199.906 51.0221 199.774 51.3285 199.539 51.5545C199.305 51.7806 198.987 51.9077 198.656 51.908ZM119.319 16.7049C119.12 16.7051 118.929 16.7814 118.789 16.917C118.648 17.0526 118.569 17.2365 118.569 17.4282V50.7024C118.569 50.8942 118.648 51.0781 118.789 51.2137C118.929 51.3493 119.12 51.4256 119.319 51.4258H198.656C198.855 51.4256 199.045 51.3493 199.186 51.2137C199.327 51.0781 199.406 50.8942 199.406 50.7024V17.4282C199.406 17.2365 199.327 17.0526 199.186 16.917C199.045 16.7814 198.855 16.7051 198.656 16.7049H119.319Z" fill="url(#paint0_linear_2028_45653)"/>
<path d="M122.569 20.3215C122.37 20.3215 122.179 20.3977 122.039 20.5334C121.898 20.6691 121.819 20.853 121.819 21.0449C121.819 21.2367 121.898 21.4207 122.039 21.5564C122.179 21.692 122.37 21.7682 122.569 21.7682H133.07C133.269 21.7682 133.459 21.692 133.6 21.5564C133.741 21.4207 133.82 21.2367 133.82 21.0449C133.82 20.853 133.741 20.6691 133.6 20.5334C133.459 20.3977 133.269 20.3215 133.07 20.3215H122.569Z" fill="url(#paint1_linear_2028_45653)"/>
<path d="M194.454 25.3522V38.7663H123.646V31.7035C124.136 31.3998 124.629 31.0976 125.127 30.8053C127.253 29.5507 129.528 28.3774 132.008 27.9426C133.181 27.7317 134.382 27.7172 135.56 27.8998C136.805 28.098 137.996 28.5114 139.175 28.9263C140.338 29.3369 141.503 29.7603 142.72 29.9984C143.905 30.2228 145.121 30.2459 146.315 30.0668C148.592 29.7375 150.731 28.855 152.861 28.0566C155.004 27.254 157.213 26.4955 159.533 26.3957C161.823 26.2959 164.085 26.8177 166.258 27.465C170.689 28.7837 175.213 30.7398 179.904 29.3982C184.668 28.0381 189.05 24.1118 194.33 25.2766C194.38 25.2855 194.424 25.3126 194.454 25.3522Z" fill="url(#paint2_linear_2028_45653)"/>
<path d="M194.454 25.586C194.432 25.6269 194.396 25.6592 194.352 25.6778C194.308 25.6965 194.258 25.7003 194.212 25.6886C193.583 25.5495 192.938 25.4854 192.293 25.4976C187.1 25.586 183.107 29.6178 178.03 30.2208C173.451 30.764 169.142 28.6169 164.838 27.4949C162.601 26.9118 160.295 26.6025 157.993 26.9988C155.709 27.3909 153.566 28.2919 151.414 29.0917C149.341 29.8615 147.187 30.5772 144.943 30.6129C142.476 30.6528 140.254 29.6719 137.966 28.9249C136.776 28.5357 135.555 28.2277 134.294 28.1978C133.065 28.1836 131.842 28.3662 130.675 28.7381C128.243 29.4837 126.053 30.8125 123.919 32.1326C123.883 32.1575 123.838 32.1691 123.794 32.1654C123.748 32.1595 123.705 32.1402 123.67 32.1101C123.636 32.08 123.612 32.0405 123.601 31.9969C123.591 31.9532 123.594 31.9076 123.611 31.8658C123.628 31.8241 123.658 31.7884 123.696 31.7634L123.794 31.7035C124.283 31.3998 124.775 31.0976 125.272 30.8053C127.393 29.5507 129.664 28.3774 132.139 27.9426C133.309 27.7317 134.508 27.7172 135.683 27.8998C136.925 28.098 138.114 28.5114 139.29 28.9263C140.451 29.3369 141.614 29.7603 142.828 29.9984C144.01 30.2228 145.225 30.2459 146.416 30.0668C148.688 29.7375 150.822 28.855 152.948 28.0566C155.087 27.254 157.291 26.4955 159.606 26.3957C161.891 26.2959 164.149 26.8177 166.317 27.465C170.739 28.7837 175.253 30.7398 179.935 29.3982C184.689 28.0381 189.062 24.1118 194.33 25.2766C194.38 25.2855 194.425 25.3126 194.454 25.3522C194.477 25.3872 194.489 25.4277 194.489 25.4691C194.489 25.5104 194.477 25.551 194.454 25.586Z" fill="url(#paint3_linear_2028_45653)"/>
<path d="M133.403 29.0719C133.974 29.0719 134.437 28.6251 134.437 28.0739C134.437 27.5227 133.974 27.0759 133.403 27.0759C132.831 27.0759 132.368 27.5227 132.368 28.0739C132.368 28.6251 132.831 29.0719 133.403 29.0719Z" fill="url(#paint4_linear_2028_45653)"/>
<path d="M159.567 27.7887C160.139 27.7887 160.602 27.3419 160.602 26.7907C160.602 26.2395 160.139 25.7927 159.567 25.7927C158.996 25.7927 158.532 26.2395 158.532 26.7907C158.532 27.3419 158.996 27.7887 159.567 27.7887Z" fill="url(#paint5_linear_2028_45653)"/>
<path d="M191.498 26.5057C192.069 26.5057 192.532 26.0589 192.532 25.5077C192.532 24.9566 192.069 24.5098 191.498 24.5098C190.926 24.5098 190.463 24.9566 190.463 25.5077C190.463 26.0589 190.926 26.5057 191.498 26.5057Z" fill="url(#paint6_linear_2028_45653)"/>
<path d="M132.82 44.4336C132.621 44.4336 132.43 44.5098 132.29 44.6455C132.149 44.7811 132.07 44.9651 132.07 45.1569C132.07 45.3488 132.149 45.5328 132.29 45.6684C132.43 45.8041 132.621 45.8803 132.82 45.8803H143.321C143.52 45.8803 143.71 45.8041 143.851 45.6684C143.992 45.5328 144.071 45.3488 144.071 45.1569C144.071 44.9651 143.992 44.7811 143.851 44.6455C143.71 44.5098 143.52 44.4336 143.321 44.4336H132.82Z" fill="url(#paint7_linear_2028_45653)"/>
<path d="M126.07 47.8091C127.634 47.8091 128.903 46.5856 128.903 45.0764C128.903 43.5672 127.634 42.3438 126.07 42.3438C124.505 42.3438 123.236 43.5672 123.236 45.0764C123.236 46.5856 124.505 47.8091 126.07 47.8091Z" fill="url(#paint8_linear_2028_45653)"/>
<path d="M158.154 44.4336C157.955 44.4336 157.764 44.5098 157.624 44.6455C157.483 44.7811 157.404 44.9651 157.404 45.1569C157.404 45.3488 157.483 45.5328 157.624 45.6684C157.764 45.8041 157.955 45.8803 158.154 45.8803H168.655C168.853 45.8803 169.044 45.8041 169.185 45.6684C169.326 45.5328 169.405 45.3488 169.405 45.1569C169.405 44.9651 169.326 44.7811 169.185 44.6455C169.044 44.5098 168.853 44.4336 168.655 44.4336H158.154Z" fill="url(#paint9_linear_2028_45653)"/>
<path d="M151.404 47.8091C152.969 47.8091 154.237 46.5856 154.237 45.0764C154.237 43.5672 152.969 42.3438 151.404 42.3438C149.839 42.3438 148.57 43.5672 148.57 45.0764C148.57 46.5856 149.839 47.8091 151.404 47.8091Z" fill="url(#paint10_linear_2028_45653)"/>
<path d="M183.489 44.4336C183.29 44.4336 183.099 44.5098 182.958 44.6455C182.818 44.7811 182.739 44.9651 182.739 45.1569C182.739 45.3488 182.818 45.5328 182.958 45.6684C183.099 45.8041 183.29 45.8803 183.489 45.8803H193.989C194.188 45.8803 194.379 45.8041 194.52 45.6684C194.66 45.5328 194.739 45.3488 194.739 45.1569C194.739 44.9651 194.66 44.7811 194.52 44.6455C194.379 44.5098 194.188 44.4336 193.989 44.4336H183.489Z" fill="url(#paint11_linear_2028_45653)"/>
<path d="M176.739 47.8091C178.304 47.8091 179.572 46.5856 179.572 45.0764C179.572 43.5672 178.304 42.3438 176.739 42.3438C175.174 42.3438 173.905 43.5672 173.905 45.0764C173.905 46.5856 175.174 47.8091 176.739 47.8091Z" fill="url(#paint12_linear_2028_45653)"/>
<path d="M153.434 5.33521C153.213 5.33546 153.001 5.42021 152.845 5.57089C152.689 5.72156 152.601 5.92585 152.601 6.13893V11.765C152.601 11.9781 152.689 12.1824 152.845 12.333C153.001 12.4837 153.213 12.5685 153.434 12.5687H183.269C183.49 12.5685 183.702 12.4837 183.858 12.333C184.014 12.1824 184.102 11.9781 184.102 11.765V6.13893C184.102 5.92585 184.014 5.72156 183.858 5.57089C183.702 5.42021 183.49 5.33546 183.269 5.33521H153.434Z" fill="url(#paint13_linear_2028_45653)"/>
<path d="M157.601 10.8005C158.614 10.8005 159.434 10.0089 159.434 9.03235C159.434 8.05581 158.614 7.26416 157.601 7.26416C156.588 7.26416 155.768 8.05581 155.768 9.03235C155.768 10.0089 156.588 10.8005 157.601 10.8005Z" fill="white"/>
<path d="M165.957 8.26489C165.758 8.26489 165.567 8.3411 165.426 8.47676C165.286 8.61241 165.207 8.7964 165.207 8.98824C165.207 9.18009 165.286 9.36408 165.426 9.49973C165.567 9.63539 165.758 9.7116 165.957 9.7116H176.457C176.656 9.7116 176.847 9.63539 176.987 9.49973C177.128 9.36408 177.207 9.18009 177.207 8.98824C177.207 8.7964 177.128 8.61241 176.987 8.47676C176.847 8.3411 176.656 8.26489 176.457 8.26489H165.957Z" fill="white"/>
<path d="M119.266 5.33521C119.045 5.33546 118.833 5.42021 118.677 5.57089C118.52 5.72156 118.432 5.92585 118.432 6.13893V11.765C118.432 11.9781 118.52 12.1824 118.677 12.333C118.833 12.4837 119.045 12.5685 119.266 12.5687H149.1C149.321 12.5685 149.533 12.4837 149.689 12.333C149.845 12.1824 149.933 11.9781 149.934 11.765V6.13893C149.933 5.92585 149.845 5.72156 149.689 5.57089C149.533 5.42021 149.321 5.33546 149.1 5.33521H119.266Z" fill="url(#paint14_linear_2028_45653)"/>
<path d="M123.433 10.8005C124.445 10.8005 125.266 10.0089 125.266 9.03235C125.266 8.05581 124.445 7.26416 123.433 7.26416C122.42 7.26416 121.599 8.05581 121.599 9.03235C121.599 10.0089 122.42 10.8005 123.433 10.8005Z" fill="white"/>
<path d="M131.788 8.26489C131.589 8.26489 131.399 8.3411 131.258 8.47676C131.117 8.61241 131.038 8.7964 131.038 8.98824C131.038 9.18009 131.117 9.36408 131.258 9.49973C131.399 9.63539 131.589 9.7116 131.788 9.7116H142.289C142.488 9.7116 142.679 9.63539 142.819 9.49973C142.96 9.36408 143.039 9.18009 143.039 8.98824C143.039 8.7964 142.96 8.61241 142.819 8.47676C142.679 8.3411 142.488 8.26489 142.289 8.26489H131.788Z" fill="white"/>
<path d="M212.919 145.295C211.229 145.867 209.415 146.011 207.652 145.711C205.888 145.412 204.234 144.679 202.849 143.584C199.322 140.729 198.216 136.025 197.316 131.67L194.655 118.788L200.227 122.488C204.234 125.149 208.331 127.895 211.105 131.749C213.88 135.603 215.091 140.864 212.862 145.035" fill="url(#paint15_linear_2028_45653)"/>
<path d="M212.443 160.891C213.007 156.929 213.587 152.917 213.191 148.913C212.84 145.357 211.715 141.884 209.425 139.036C208.209 137.527 206.73 136.234 205.054 135.216C204.617 134.95 204.214 135.618 204.649 135.883C207.55 137.651 209.793 140.261 211.056 143.338C212.451 146.759 212.675 150.489 212.434 154.123C212.289 156.321 211.981 158.505 211.671 160.686C211.646 160.784 211.661 160.888 211.713 160.976C211.765 161.065 211.85 161.13 211.95 161.161C212.053 161.187 212.162 161.174 212.254 161.123C212.346 161.073 212.414 160.989 212.443 160.891Z" fill="#BF5F16"/>
<path d="M175.122 155.435C174.463 156.186 173.614 156.761 172.657 157.104C171.7 157.447 170.668 157.546 169.66 157.393C167.072 156.97 165.123 154.964 163.379 153.073L158.22 147.479L162.065 147.75C164.831 147.944 167.666 148.155 170.182 149.279C172.698 150.402 174.866 152.653 175.016 155.323" fill="url(#paint16_linear_2028_45653)"/>
<path d="M179.55 163.235C178.643 161.131 177.729 158.997 176.338 157.138C175.102 155.487 173.511 154.092 171.534 153.329C170.485 152.925 169.371 152.7 168.243 152.666C167.948 152.656 167.95 153.097 168.243 153.106C170.198 153.169 172.081 153.829 173.622 154.99C175.33 156.285 176.555 158.056 177.523 159.91C178.109 161.031 178.61 162.191 179.109 163.349C179.126 163.404 179.165 163.451 179.217 163.48C179.269 163.509 179.33 163.518 179.388 163.505C179.447 163.49 179.496 163.453 179.527 163.402C179.557 163.352 179.565 163.292 179.55 163.235Z" fill="#BF5F16"/>
<path d="M207.011 153.881C206.286 154.943 205.29 155.807 204.119 156.39C202.947 156.973 201.64 157.256 200.322 157.21C196.936 157.055 194.114 154.776 191.573 152.612L184.057 146.213L189.031 145.983C192.608 145.818 196.278 145.664 199.685 146.728C203.092 147.792 206.234 150.352 206.857 153.753" fill="url(#paint17_linear_2028_45653)"/>
<path d="M214.037 163.168C211.322 158.536 208.174 153.388 202.548 151.743C200.984 151.287 199.344 151.124 197.716 151.262C197.203 151.305 197.331 152.067 197.843 152.025C200.572 151.806 203.295 152.501 205.555 153.992C207.729 155.42 209.422 157.404 210.855 159.508C211.733 160.797 212.519 162.141 213.305 163.483C213.556 163.912 214.291 163.602 214.037 163.168Z" fill="#BF5F16"/>
<path d="M96.815 84.1063C91.4179 81.2456 84.7009 81.8197 78.886 83.7756C73.071 85.7315 67.8015 88.9358 62.1546 91.3059C44.8987 98.5484 24.1008 97.3805 7.83301 88.2557C6.29446 91.7071 7.94498 95.655 9.75803 98.9802C11.5711 102.305 13.6374 105.909 12.8911 109.597C11.936 114.315 6.80641 117.144 4.72797 121.514C2.75496 125.662 3.81395 130.533 5.32758 134.857C6.84122 139.181 8.80547 143.537 8.54826 148.094C8.29106 152.651 4.85824 157.47 0.126221 157.473C7.13892 158.524 14.2896 159.576 21.298 158.499C28.3065 157.422 35.278 153.847 38.5321 147.765C40.1586 144.725 40.7856 141.229 42.6535 138.321C45.8351 133.367 51.9412 131.038 57.7023 129.282C63.4635 127.526 69.6288 125.835 73.6851 121.516C77.55 117.402 78.7742 111.67 80.8219 106.481C84.2705 97.7945 90.2604 90.261 98.064 84.7953" fill="url(#paint18_linear_2028_45653)"/>
<path d="M90.5618 62.5477C92.4564 61.6977 94.7825 61.419 96.7103 62.2089C98.6381 62.9987 99.9523 65.0233 99.329 66.815C99.0463 67.6273 98.4027 68.4262 98.6534 69.2467C98.8465 69.8782 99.5198 70.2951 100.181 70.5915C100.842 70.888 101.566 71.1372 102.044 71.6372C102.522 72.1372 102.622 72.998 102.025 73.3857C101.828 73.5135 101.582 73.574 101.391 73.7087C101.228 73.8361 101.111 74.0093 101.055 74.2042C100.999 74.3991 101.008 74.6058 101.08 74.7957C101.239 75.1777 101.502 75.5113 101.841 75.7613C102.519 76.3254 103.416 76.971 103.205 77.7717C103.127 77.9857 102.996 78.1784 102.825 78.3334C102.653 78.4884 102.445 78.6011 102.218 78.662C101.747 78.7929 101.259 78.8551 100.769 78.8464L80.7569 79.4544C80.0962 79.5023 79.432 79.4665 78.781 79.3479C78.4645 79.2923 78.1634 79.1743 77.8964 79.0013C77.6294 78.8283 77.4023 78.6041 77.2292 78.3426C76.8459 77.6584 77.0975 76.8157 77.5708 76.1769C78.0441 75.5381 78.7139 75.0341 79.2674 74.4475C79.8208 73.8609 80.2737 73.1287 80.1761 72.3705C80.098 71.7636 79.683 71.2391 79.3851 70.6876C79.0871 70.1362 78.9141 69.4471 79.2999 68.9398C79.8437 68.2249 81.1491 68.2895 81.7673 67.6234C82.2339 67.1207 82.1438 66.397 82.1902 65.7488C82.3018 64.1895 83.4212 62.7169 85.0147 62.033C85.8249 61.6976 86.7063 61.5528 87.586 61.6105C88.4658 61.6683 89.3187 61.927 90.0743 62.3654L90.5618 62.5477Z" fill="url(#paint19_linear_2028_45653)"/>
<path d="M103.208 160.421L106.343 159.513L104.202 147.421L99.5758 148.761L103.208 160.421Z" fill="url(#paint20_linear_2028_45653)"/>
<path d="M103.321 163.583L113.428 160.654L113.39 160.531C113.234 160.033 112.979 159.569 112.638 159.166C112.297 158.763 111.877 158.429 111.402 158.182C110.927 157.936 110.406 157.782 109.869 157.73C109.333 157.677 108.791 157.727 108.274 157.877L102.101 159.666L103.321 163.583Z" fill="url(#paint21_linear_2028_45653)"/>
<path d="M73.6302 160.523L76.9031 160.523L78.46 148.348L73.6297 148.349L73.6302 160.523Z" fill="url(#paint22_linear_2028_45653)"/>
<path d="M72.7958 163.583L83.3486 163.582V163.454C83.3486 162.934 83.2424 162.418 83.036 161.938C82.8296 161.457 82.527 161.02 82.1456 160.653C81.7642 160.285 81.3114 159.993 80.813 159.794C80.3147 159.595 79.7806 159.492 79.2412 159.492L72.7956 159.493L72.7958 163.583Z" fill="url(#paint23_linear_2028_45653)"/>
<path d="M78.1733 151.315C78.4588 151.315 78.735 151.217 78.9523 151.038C79.1695 150.859 79.3137 150.612 79.3589 150.34L84.2184 121.104C84.2506 120.911 84.3474 120.733 84.4941 120.597C84.6409 120.461 84.8295 120.375 85.0315 120.352C85.2334 120.329 85.4377 120.37 85.6131 120.47C85.7886 120.569 85.9258 120.72 86.0038 120.901L98.5937 150.132C98.711 150.402 98.9294 150.619 99.2054 150.741C99.4815 150.862 99.7948 150.878 100.083 150.787L104.63 149.325C104.913 149.235 105.152 149.046 105.298 148.795C105.444 148.545 105.489 148.251 105.422 147.97L95.1047 103.94C95.0542 103.728 94.9431 103.533 94.784 103.379C94.6249 103.225 94.4242 103.117 94.2046 103.067L80.3677 99.9689C80.1976 99.9316 80.0212 99.93 79.8505 99.9642C79.6797 99.9984 79.5186 100.068 79.3779 100.167C70.2667 106.552 71.0364 127.411 72.7345 150.062C72.7557 150.345 72.8842 150.611 73.0955 150.809C73.3069 151.007 73.5864 151.124 73.8809 151.136L78.1206 151.314C78.1382 151.315 78.1558 151.315 78.1733 151.315Z" fill="url(#paint24_linear_2028_45653)"/>
<path d="M89.8398 79.8963C86.2187 79.8963 83.2832 77.0652 83.2832 73.5729C83.2832 70.0806 86.2187 67.2495 89.8398 67.2495C93.461 67.2495 96.3965 70.0806 96.3965 73.5729C96.3965 77.0652 93.461 79.8963 89.8398 79.8963Z" fill="url(#paint25_linear_2028_45653)"/>
<path d="M89.5384 105.755C91.1122 105.745 92.6643 105.399 94.0829 104.742L94.1317 104.72L94.151 104.672L100.032 89.9769L100.144 87.4237C100.181 86.5699 100.033 85.7179 99.7083 84.9228C99.3837 84.1276 98.89 83.4068 98.259 82.8067C97.6281 82.2067 96.8738 81.7408 96.0448 81.4389C95.2158 81.1371 94.3305 81.006 93.4458 81.0542L87.2023 81.3933C85.5896 81.4817 84.0724 82.1596 82.9596 83.2889C81.8468 84.4182 81.2221 85.9141 81.2128 87.472C81.0506 87.7724 79.899 90.1217 82.1559 92.329C82.2402 92.8315 83.0297 98.0566 80.0505 100.93L79.9668 101.011L80.04 101.1C80.0874 101.159 83.9135 105.754 89.5384 105.755Z" fill="url(#paint26_linear_2028_45653)"/>
<path d="M80.7897 107.455C80.4208 107.326 80.0856 107.121 79.8079 106.853C79.5302 106.586 79.3167 106.263 79.1824 105.907C79.0481 105.552 78.9963 105.172 79.0306 104.795C79.0649 104.418 79.1845 104.053 79.381 103.725L73.1453 96.7626L78.061 96.1455L83.2289 102.852C83.7778 103.207 84.1726 103.743 84.3385 104.36C84.5045 104.977 84.4301 105.631 84.1294 106.198C83.8287 106.766 83.3227 107.207 82.7072 107.439C82.0916 107.67 81.4094 107.676 80.7897 107.455Z" fill="url(#paint27_linear_2028_45653)"/>
<path d="M76.8722 101.49C77.1065 101.49 77.3356 101.423 77.5313 101.299L80.6154 99.3483C80.8747 99.1849 81.0584 98.9312 81.128 98.6401C81.1976 98.3491 81.1477 98.0433 80.9888 97.787L78.7561 94.1692C78.6353 93.9735 78.5588 93.7554 78.5316 93.5291C78.5044 93.3029 78.5272 93.0736 78.5984 92.8564C78.6696 92.6393 78.7876 92.4391 78.9447 92.269C79.1018 92.099 79.2945 91.9629 79.51 91.8697L85.9243 89.0963C86.7131 88.7509 87.357 88.1574 87.7505 87.413C88.1439 86.6686 88.2635 85.8174 88.0898 84.9988C87.9699 84.4468 87.7196 83.929 87.3583 83.4855C86.997 83.042 86.5345 82.6849 86.0067 82.4419C85.479 82.1989 84.9002 82.0767 84.3155 82.0846C83.7307 82.0925 83.1558 82.2304 82.6353 82.4876L72.9043 87.2966C72.2478 87.621 71.6718 88.0785 71.2157 88.6375C70.7596 89.1966 70.4341 89.8442 70.2616 90.5358C70.089 91.2275 70.0736 91.947 70.2161 92.6449C70.3587 93.3429 70.656 94.0029 71.0877 94.5798L75.8983 101.008C76.0093 101.157 76.1556 101.279 76.325 101.363C76.4943 101.446 76.6819 101.49 76.8722 101.49Z" fill="url(#paint28_linear_2028_45653)"/>
<path d="M96.5286 72.0823C94.458 71.9219 92.7389 69.927 92.9542 67.9344C92.9785 68.7557 92.6889 69.557 92.1405 70.1858C91.5921 70.8146 90.8232 71.227 89.98 71.3446C89.0302 71.4456 87.989 71.1684 87.1622 71.6305C86.2466 72.1424 85.9536 73.3853 84.9997 73.8274C84.078 74.2545 82.9074 73.672 82.452 72.789C81.9967 71.906 82.1084 70.8451 82.4102 69.9029C82.8406 68.5591 83.6242 67.3456 84.6849 66.3805C85.7456 65.4153 87.0472 64.7314 88.4632 64.3951C89.8791 64.0588 91.3612 64.0817 92.7653 64.4614C94.1694 64.8412 95.4477 65.565 96.4759 66.5623C97.3465 67.4069 98.0378 68.4833 98.1499 69.6694C98.262 70.8554 97.6916 72.1423 96.5871 72.6751L96.5286 72.0823Z" fill="url(#paint29_linear_2028_45653)"/>
<path d="M111.801 55.1581C111.456 55.3377 111.155 55.5882 110.921 55.8918C110.687 56.1955 110.525 56.545 110.446 56.9158C110.367 57.2865 110.373 57.6694 110.464 58.0376C110.555 58.4058 110.729 58.7502 110.973 59.0466L105.858 66.8128L110.815 66.7309L114.912 59.3686C115.401 58.9403 115.71 58.3537 115.781 57.7202C115.852 57.0866 115.679 56.45 115.296 55.931C114.912 55.4121 114.345 55.0467 113.701 54.9043C113.057 54.7618 112.381 54.8521 111.801 55.1581Z" fill="url(#paint30_linear_2028_45653)"/>
<path d="M107.661 60.0967L101.074 75.1068L94.1681 86.4C93.8766 86.8767 93.7012 87.4111 93.6552 87.9628C93.6093 88.5145 93.6938 89.069 93.9026 89.5845C94.1114 90.1 94.4389 90.5631 94.8604 90.9387C95.2819 91.3142 95.7864 91.5925 96.3358 91.7525C97.2071 92.0019 98.1421 91.9425 98.972 91.5852C99.8018 91.2278 100.472 90.5959 100.861 89.8038L114.17 62.3763C114.243 62.2273 114.281 62.0652 114.284 61.9007C114.286 61.7362 114.252 61.5731 114.184 61.4223C114.115 61.2715 114.015 61.1364 113.888 61.0261C113.762 60.9157 113.612 60.8326 113.45 60.7823L109.134 59.4453C109.052 59.4199 108.968 59.4029 108.883 59.3945C108.628 59.3697 108.371 59.4245 108.151 59.551C107.931 59.6774 107.759 59.8687 107.661 60.0967Z" fill="url(#paint31_linear_2028_45653)"/>
<path d="M45.916 163.797H247.733C247.804 163.797 247.872 163.77 247.922 163.722C247.972 163.673 248 163.608 248 163.54C248 163.471 247.972 163.406 247.922 163.358C247.872 163.309 247.804 163.282 247.733 163.282H45.916C45.8452 163.282 45.7773 163.309 45.7273 163.358C45.6772 163.406 45.6491 163.471 45.6491 163.54C45.6491 163.608 45.6772 163.673 45.7273 163.722C45.7773 163.77 45.8452 163.797 45.916 163.797Z" fill="#637381"/>
</g>
<defs>
<linearGradient id="paint0_linear_2028_45653" x1="158.987" y1="16.2227" x2="158.987" y2="51.908" gradientUnits="userSpaceOnUse">
<stop stop-color="#E6E6E6"/>
<stop offset="1" stop-color="#C5CAD1" stop-opacity="0.16"/>
</linearGradient>
<linearGradient id="paint1_linear_2028_45653" x1="127.819" y1="20.3215" x2="127.819" y2="21.7682" gradientUnits="userSpaceOnUse">
<stop stop-color="#E6E6E6"/>
<stop offset="1" stop-color="#C5CAD1" stop-opacity="0.16"/>
</linearGradient>
<linearGradient id="paint2_linear_2028_45653" x1="159.05" y1="25.0635" x2="159.05" y2="38.7663" gradientUnits="userSpaceOnUse">
<stop stop-color="#E6E6E6"/>
<stop offset="1" stop-color="#C5CAD1" stop-opacity="0.16"/>
</linearGradient>
<linearGradient id="paint3_linear_2028_45653" x1="123.595" y1="25.0635" x2="125.004" y2="39.1276" gradientUnits="userSpaceOnUse">
<stop stop-color="#00A76F"/>
<stop offset="1" stop-color="#007867"/>
<stop offset="1" stop-color="#123424"/>
</linearGradient>
<linearGradient id="paint4_linear_2028_45653" x1="132.368" y1="27.0759" x2="134.363" y2="29.1441" gradientUnits="userSpaceOnUse">
<stop stop-color="#00A76F"/>
<stop offset="1" stop-color="#007867"/>
<stop offset="1" stop-color="#123424"/>
</linearGradient>
<linearGradient id="paint5_linear_2028_45653" x1="158.532" y1="25.7927" x2="160.527" y2="27.8609" gradientUnits="userSpaceOnUse">
<stop stop-color="#00A76F"/>
<stop offset="1" stop-color="#007867"/>
<stop offset="1" stop-color="#123424"/>
</linearGradient>
<linearGradient id="paint6_linear_2028_45653" x1="190.463" y1="24.5098" x2="192.458" y2="26.578" gradientUnits="userSpaceOnUse">
<stop stop-color="#00A76F"/>
<stop offset="1" stop-color="#007867"/>
<stop offset="1" stop-color="#123424"/>
</linearGradient>
<linearGradient id="paint7_linear_2028_45653" x1="138.07" y1="44.4336" x2="138.07" y2="45.8803" gradientUnits="userSpaceOnUse">
<stop stop-color="#E6E6E6"/>
<stop offset="1" stop-color="#C5CAD1" stop-opacity="0.16"/>
</linearGradient>
<linearGradient id="paint8_linear_2028_45653" x1="123.236" y1="42.3438" x2="128.698" y2="48.007" gradientUnits="userSpaceOnUse">
<stop stop-color="#00A76F"/>
<stop offset="1" stop-color="#007867"/>
<stop offset="1" stop-color="#123424"/>
</linearGradient>
<linearGradient id="paint9_linear_2028_45653" x1="163.404" y1="44.4336" x2="163.404" y2="45.8803" gradientUnits="userSpaceOnUse">
<stop stop-color="#E6E6E6"/>
<stop offset="1" stop-color="#C5CAD1" stop-opacity="0.16"/>
</linearGradient>
<linearGradient id="paint10_linear_2028_45653" x1="151.404" y1="42.3438" x2="151.404" y2="47.8091" gradientUnits="userSpaceOnUse">
<stop stop-color="#FFD45A"/>
<stop offset="1" stop-color="#FFAB00"/>
</linearGradient>
<linearGradient id="paint11_linear_2028_45653" x1="188.739" y1="44.4336" x2="188.739" y2="45.8803" gradientUnits="userSpaceOnUse">
<stop stop-color="#E6E6E6"/>
<stop offset="1" stop-color="#C5CAD1" stop-opacity="0.16"/>
</linearGradient>
<linearGradient id="paint12_linear_2028_45653" x1="176.739" y1="42.5084" x2="176.739" y2="47.8091" gradientUnits="userSpaceOnUse">
<stop stop-color="#FFB177"/>
<stop offset="1" stop-color="#FF6D00"/>
</linearGradient>
<linearGradient id="paint13_linear_2028_45653" x1="152.601" y1="5.33521" x2="155.756" y2="19.0776" gradientUnits="userSpaceOnUse">
<stop stop-color="#FF5630"/>
<stop offset="1" stop-color="#B71D18"/>
</linearGradient>
<linearGradient id="paint14_linear_2028_45653" x1="118.432" y1="5.33521" x2="121.588" y2="19.0776" gradientUnits="userSpaceOnUse">
<stop stop-color="#00A76F"/>
<stop offset="1" stop-color="#007867"/>
<stop offset="1" stop-color="#123424"/>
</linearGradient>
<linearGradient id="paint15_linear_2028_45653" x1="214.019" y1="118.788" x2="188.397" y2="137.113" gradientUnits="userSpaceOnUse">
<stop stop-color="#FFD666"/>
<stop offset="1" stop-color="#FFAB00"/>
</linearGradient>
<linearGradient id="paint16_linear_2028_45653" x1="175.122" y1="147.479" x2="166.379" y2="162.282" gradientUnits="userSpaceOnUse">
<stop stop-color="#FFD666"/>
<stop offset="1" stop-color="#FFAB00"/>
</linearGradient>
<linearGradient id="paint17_linear_2028_45653" x1="207.011" y1="145.865" x2="197.992" y2="164.105" gradientUnits="userSpaceOnUse">
<stop stop-color="#FFD666"/>
<stop offset="1" stop-color="#FFAB00"/>
</linearGradient>
<linearGradient id="paint18_linear_2028_45653" x1="98.064" y1="82.1335" x2="23.4583" y2="177.251" gradientUnits="userSpaceOnUse">
<stop stop-color="#5BE49B"/>
<stop offset="1" stop-color="#277351"/>
</linearGradient>
<linearGradient id="paint19_linear_2028_45653" x1="90.1393" y1="61.5981" x2="90.1393" y2="79.475" gradientUnits="userSpaceOnUse">
<stop stop-color="#2F2E41"/>
<stop offset="1"/>
</linearGradient>
<linearGradient id="paint20_linear_2028_45653" x1="102.959" y1="147.421" x2="102.959" y2="160.421" gradientUnits="userSpaceOnUse">
<stop stop-color="#FFC1B0"/>
<stop offset="1" stop-color="#A15C2A"/>
</linearGradient>
<linearGradient id="paint21_linear_2028_45653" x1="107.765" y1="157.709" x2="107.765" y2="163.583" gradientUnits="userSpaceOnUse">
<stop stop-color="#2F2E41"/>
<stop offset="1"/>
</linearGradient>
<linearGradient id="paint22_linear_2028_45653" x1="76.0448" y1="148.348" x2="76.0448" y2="160.523" gradientUnits="userSpaceOnUse">
<stop stop-color="#FFC1B0"/>
<stop offset="1" stop-color="#A15C2A"/>
</linearGradient>
<linearGradient id="paint23_linear_2028_45653" x1="78.0721" y1="159.492" x2="78.0721" y2="163.583" gradientUnits="userSpaceOnUse">
<stop stop-color="#2F2E41"/>
<stop offset="1"/>
</linearGradient>
<linearGradient id="paint24_linear_2028_45653" x1="88.5642" y1="99.9397" x2="88.5642" y2="151.315" gradientUnits="userSpaceOnUse">
<stop stop-color="#2F2E41"/>
<stop offset="1" stop-color="#0E1311"/>
</linearGradient>
<linearGradient id="paint25_linear_2028_45653" x1="89.8398" y1="67.2495" x2="89.8398" y2="79.8963" gradientUnits="userSpaceOnUse">
<stop stop-color="#FFC1B0"/>
<stop offset="1" stop-color="#A15C2A"/>
</linearGradient>
<linearGradient id="paint26_linear_2028_45653" x1="90.0581" y1="81.0444" x2="90.0581" y2="105.755" gradientUnits="userSpaceOnUse">
<stop stop-color="#3F3D56"/>
<stop offset="0.214" stop-color="#333145"/>
<stop offset="1"/>
</linearGradient>
<linearGradient id="paint27_linear_2028_45653" x1="78.7851" y1="96.1455" x2="78.7851" y2="107.617" gradientUnits="userSpaceOnUse">
<stop stop-color="#FFC1B0"/>
<stop offset="1" stop-color="#A15C2A"/>
</linearGradient>
<linearGradient id="paint28_linear_2028_45653" x1="79.1435" y1="82.0842" x2="79.1435" y2="101.49" gradientUnits="userSpaceOnUse">
<stop stop-color="#3F3D56"/>
<stop offset="0.214" stop-color="#333145"/>
<stop offset="1"/>
</linearGradient>
<linearGradient id="paint29_linear_2028_45653" x1="90.1552" y1="64.1587" x2="90.1552" y2="73.9705" gradientUnits="userSpaceOnUse">
<stop stop-color="#2F2E41"/>
<stop offset="1"/>
</linearGradient>
<linearGradient id="paint30_linear_2028_45653" x1="110.827" y1="54.8384" x2="110.827" y2="66.8128" gradientUnits="userSpaceOnUse">
<stop stop-color="#FFC1B0"/>
<stop offset="1" stop-color="#A15C2A"/>
</linearGradient>
<linearGradient id="paint31_linear_2028_45653" x1="75.5707" y1="108.728" x2="144.627" y2="40.0445" gradientUnits="userSpaceOnUse">
<stop stop-color="#3F3D56"/>
<stop offset="0.214" stop-color="#333145"/>
<stop offset="1"/>
</linearGradient>
<clipPath id="clip0_2028_45653">
<rect width="248" height="164" fill="white" transform="matrix(-1 0 0 1 248 0)"/>
</clipPath>
</defs>
</svg>
