<svg width="15" height="15" viewBox="0 0 15 15" fill="none" xmlns="http://www.w3.org/2000/svg">
<path fill-rule="evenodd" clip-rule="evenodd" d="M7.37273 8.7621L13.027 14.4168C13.2155 14.5989 13.468 14.6996 13.7301 14.6973C13.9921 14.6951 14.2428 14.5899 14.4281 14.4046C14.6135 14.2193 14.7186 13.9686 14.7208 13.7065C14.7231 13.4444 14.6224 13.1919 14.4403 13.0034L8.78604 7.34868L14.4403 1.69401C14.6224 1.50549 14.7231 1.25299 14.7208 0.990902C14.7186 0.728814 14.6135 0.478105 14.4281 0.292773C14.2428 0.107441 13.9921 0.00231527 13.7301 3.77871e-05C13.468 -0.00223969 13.2155 0.0985131 13.027 0.280596L7.37273 5.93527L1.71846 0.280596C1.5291 0.103014 1.27808 0.0060748 1.01853 0.0102899C0.758969 0.0145049 0.511233 0.119544 0.327739 0.303181C0.144245 0.486818 0.0393888 0.734645 0.0353576 0.994224C0.0313265 1.2538 0.128437 1.50477 0.30614 1.69401L5.95941 7.34868L0.30514 13.0034C0.209676 13.0956 0.133531 13.2059 0.0811476 13.3278C0.028764 13.4498 0.001191 13.5809 3.77388e-05 13.7137C-0.00111552 13.8464 0.0241738 13.978 0.0744304 14.1009C0.124687 14.2237 0.198904 14.3353 0.292752 14.4292C0.386599 14.523 0.498197 14.5972 0.621034 14.6475C0.743871 14.6978 0.875487 14.7231 1.0082 14.7219C1.14092 14.7207 1.27207 14.6932 1.39402 14.6408C1.51596 14.5884 1.62626 14.5122 1.71846 14.4168L7.37273 8.7621Z" fill="#277351"/>
</svg>
