<svg width="451" height="824" viewBox="0 0 451 824" fill="none" xmlns="http://www.w3.org/2000/svg">
<path d="M752.877 837.917C704.354 955.305 621.059 1037.42 499.315 1077.98C497.121 1078.72 495.015 1079.38 492.821 1080.04C344.215 1055.67 201.588 1003.13 72.5556 925.214C20.8516 857.276 -5.56853 777.531 0.984407 683.955C7.08103 597.722 41.0414 520.703 98.9758 450.777C108.629 525.218 139.754 585.529 198.483 630.068C106.854 385.361 155.835 176.316 350.953 0C348.081 12.1893 346.67 17.3722 345.483 22.6205C339.137 50.6484 346.393 74.9701 351.754 104.057C365.994 181.342 398.364 250.606 438.877 316.758C483.969 390.318 537 458.928 578.764 534.618C611.413 593.68 635.446 655.114 642.854 723.585C647.551 766.871 640.336 807.297 630.543 850.583C647.229 839.172 656.757 824.989 666.302 810.673C695.756 766.77 715.071 716.818 722.837 664.464L727.137 538.6C727.74 531.907 727.211 525.079 727.211 514.814C744.692 538.27 752.306 563.201 760.777 587.262C790.437 671.615 786.798 755.866 752.899 837.928" fill="#93CEB3" fill-opacity="0.08"/>
</svg>
