<svg width="222" height="216" viewBox="0 0 222 216" fill="none" xmlns="http://www.w3.org/2000/svg">
<path d="M250.819 282.264C234.657 321.359 206.916 348.711 166.37 362.212C165.64 362.456 164.938 362.679 164.207 362.899C114.715 354.782 67.2146 337.281 24.2414 311.332C6.49884 288.517 -2.01431 259.821 0.403394 230.979C2.43487 202.259 13.744 176.608 33.0387 153.317C36.257 178.11 46.6206 198.198 66.1807 213.031C35.6581 131.546 54.5822 58.7229 119.565 0C119.565 1.3039 118.472 6.08009 118.447 6.2857C118.266 7.82338 118.266 9.12728 118.266 9.12728C116.016 18.3418 115.575 28.5084 117.231 37.8491C121.974 63.5887 132.754 86.6568 146.246 108.69C161.265 133.192 178.934 156.042 192.837 181.25C203.711 200.92 211.714 221.383 214.182 244.187C215.747 258.604 213.344 272.067 210.082 286.484C214.909 282.91 218.96 278.388 221.99 273.192C231.797 258.567 238.227 241.927 240.809 224.488L242.241 182.57C242.443 180.341 242.265 178.068 242.265 174.641C248.088 182.453 250.624 190.756 253.454 198.771C263.194 225.921 262.253 255.778 250.821 282.255" fill="#FFC522"/>
</svg>
