<svg width="18" height="20" viewBox="0 0 18 20" fill="none" xmlns="http://www.w3.org/2000/svg">
<path d="M5.35206 18.242C5.78721 18.7922 6.34171 19.2364 6.97368 19.541C7.60564 19.8455 8.29855 20.0025 9.00006 20C9.70158 20.0025 10.3945 19.8455 11.0264 19.541C11.6584 19.2364 12.2129 18.7922 12.6481 18.242C10.2271 18.5702 7.77299 18.5702 5.35206 18.242Z" fill="#637381"/>
<path fill-rule="evenodd" clip-rule="evenodd" d="M15.7501 7.704V7C15.7501 3.134 12.7271 0 9.00006 0C5.27306 0 2.25006 3.134 2.25006 7V7.704C2.25006 8.549 2.01006 9.375 1.55806 10.078L0.450062 11.801C-0.560938 13.375 0.211062 15.514 1.97006 16.011C6.56631 17.313 11.4338 17.313 16.0301 16.011C17.7891 15.514 18.5611 13.375 17.5501 11.801L16.4421 10.078C15.9885 9.36934 15.749 8.54536 15.7501 7.704ZM9.00006 3.25C9.19897 3.25 9.38974 3.32902 9.53039 3.46967C9.67104 3.61032 9.75006 3.80109 9.75006 4V8C9.75006 8.19891 9.67104 8.38968 9.53039 8.53033C9.38974 8.67098 9.19897 8.75 9.00006 8.75C8.80115 8.75 8.61038 8.67098 8.46973 8.53033C8.32908 8.38968 8.25006 8.19891 8.25006 8V4C8.25006 3.80109 8.32908 3.61032 8.46973 3.46967C8.61038 3.32902 8.80115 3.25 9.00006 3.25Z" fill="#637381"/>
</svg>
