<svg width="18" height="20" viewBox="0 0 18 20" fill="none" xmlns="http://www.w3.org/2000/svg">
<path fill-rule="evenodd" clip-rule="evenodd" d="M17.9114 6.22695C16.4717 6.5891 14.7718 6.61315 13.3035 6.1646C12.6828 5.97495 12.1988 5.4914 11.9893 4.8771C11.4674 3.34677 11.3385 1.47362 11.722 0.0318C10.9279 0.0118555 10.0248 0 9 0C5.51575 0 3.43945 0.136825 2.26285 0.26379C1.39116 0.35785 0.719015 0.948265 0.555805 1.80967C0.30175 3.15055 0 5.65725 0 10C0 14.3428 0.30175 16.8494 0.555805 18.1903C0.719015 19.0518 1.39116 19.6422 2.26285 19.7362C3.43945 19.8631 5.51575 20 9 20C12.4843 20 14.5606 19.8631 15.7372 19.7362C16.6089 19.6422 17.281 19.0518 17.4442 18.1903C17.6982 16.8494 18 14.3428 18 10C18 8.5445 17.9661 7.2952 17.9114 6.22695Z" fill="#637381"/>
</svg>
